<svg width="22" height="22" viewBox="0 0 22 22" fill="none" xmlns="http://www.w3.org/2000/svg">
<rect x="0.5" y="0.5" width="21" height="21" rx="1.5" fill="white"/>
<rect x="0.5" y="0.5" width="21" height="21" rx="1.5" stroke="#EAEBEE"/>
<path d="M15 5L16 5C16.5523 5 17 5.44772 17 6L17 9.58579C17 9.851 17.1054 10.1054 17.2929 10.2929L18 11L17.2929 11.7071C17.1054 11.8946 17 12.149 17 12.4142L17 16C17 16.5523 16.5523 17 16 17L15 17" stroke="black" stroke-width="1.2" stroke-linecap="round" stroke-linejoin="round"/>
<path d="M7 5L6 5C5.44771 5 5 5.44772 5 6L5 9.58579C5 9.851 4.89464 10.1054 4.70711 10.2929L4 11L4.70711 11.7071C4.89464 11.8946 5 12.149 5 12.4142L5 16C5 16.5523 5.44771 17 6 17L7 17" stroke="black" stroke-width="1.2" stroke-linecap="round" stroke-linejoin="round"/>
<path d="M8.49133 8.24805V13.75" stroke="black" stroke-width="1.2" stroke-linecap="round"/>
<path d="M11.7086 8.24805V13.75" stroke="black" stroke-width="1.2" stroke-linecap="round"/>
<path d="M11.7086 10.998H13.9461" stroke="black" stroke-width="1.2" stroke-linecap="round"/>
<path d="M11.7086 8.24805H13.9461" stroke="black" stroke-width="1.2" stroke-linecap="round"/>
</svg>
