<svg width="22" height="22" viewBox="0 0 22 22" fill="none" xmlns="http://www.w3.org/2000/svg">
<rect x="0.5" y="0.5" width="21" height="21" rx="1.5" fill="#262930"/>
<rect x="0.5" y="0.5" width="21" height="21" rx="1.5" stroke="#383B41"/>
<g clip-path="url(#clip0_5633_3592)">
<path fill-rule="evenodd" clip-rule="evenodd" d="M6.99999 3.9C5.28791 3.9 3.89999 5.28792 3.89999 7C3.89999 8.71208 5.28791 10.1 6.99999 10.1C8.71208 10.1 10.1 8.71208 10.1 7C10.1 5.28792 8.71208 3.9 6.99999 3.9ZM5.09999 7C5.09999 5.95066 5.95065 5.1 6.99999 5.1C8.04934 5.1 8.89999 5.95066 8.89999 7C8.89999 8.04934 8.04934 8.9 6.99999 8.9C5.95065 8.9 5.09999 8.04934 5.09999 7Z" fill="white"/>
<path d="M14.0721 9.0787C13.8278 9.30262 13.4483 9.28612 13.2244 9.04184L11.5577 7.22366C11.3474 6.99427 11.3474 6.64219 11.5577 6.41279L13.2244 4.59461C13.4483 4.35034 13.8278 4.33384 14.0721 4.55775C14.3164 4.78167 14.3329 5.16121 14.109 5.40548L13.364 6.21823H15.3333C16.5852 6.21823 17.6 7.23305 17.6 8.4849L17.6 10C17.6 10.3314 17.3314 10.6 17 10.6C16.6686 10.6 16.4 10.3314 16.4 10L16.4 8.48489C16.4 7.89579 15.9224 7.41823 15.3333 7.41823H13.364L14.109 8.23097C14.3329 8.47525 14.3164 8.85479 14.0721 9.0787Z" fill="white"/>
<path d="M5.6 12C5.6 11.6686 5.33137 11.4 4.99999 11.4C4.66862 11.4 4.4 11.6686 4.4 12L4.39999 13.5151C4.39999 14.767 5.41482 15.7818 6.66666 15.7818H8.63603L7.89101 16.5945C7.6671 16.8388 7.6836 17.2183 7.92787 17.4423C8.17214 17.6662 8.55168 17.6497 8.7756 17.4054L10.4423 15.5872C10.6525 15.3578 10.6525 15.0057 10.4423 14.7763L8.7756 12.9582C8.55168 12.7139 8.17214 12.6974 7.92787 12.9213C7.6836 13.1452 7.6671 13.5248 7.89101 13.769L8.63603 14.5818H6.66666C6.07756 14.5818 5.59999 14.1042 5.59999 13.5151L5.6 12Z" fill="white"/>
<path fill-rule="evenodd" clip-rule="evenodd" d="M11.9 13.5C11.9 12.6163 12.6163 11.9 13.5 11.9H16.5C17.3836 11.9 18.1 12.6163 18.1 13.5V16.5C18.1 17.3837 17.3836 18.1 16.5 18.1H13.5C12.6163 18.1 11.9 17.3837 11.9 16.5V13.5ZM13.5 13.1C13.2791 13.1 13.1 13.2791 13.1 13.5V16.5C13.1 16.7209 13.2791 16.9 13.5 16.9H16.5C16.7209 16.9 16.9 16.7209 16.9 16.5V13.5C16.9 13.2791 16.7209 13.1 16.5 13.1H13.5Z" fill="white"/>
</g>
<defs>
<clipPath id="clip0_5633_3592">
<rect width="16" height="16" fill="white" transform="translate(3 3)"/>
</clipPath>
</defs>
</svg>
