<svg fill="none" height="22" viewBox="0 0 22 22" width="22" xmlns="http://www.w3.org/2000/svg"><rect fill="#fff" height="21" rx="1.5" width="21" x=".5" y=".5"/><rect height="21" rx="1.5" stroke="#eaebee" width="21" x=".5" y=".5"/><g fill="#262930"><path d="m5.39999 11c0 .6075.49249 1.1 1.1 1.1.60752 0 1.1-.4925 1.1-1.1s-.49248-1.10002-1.1-1.10002c-.60751 0-1.1.49252-1.1 1.10002z"/><path d="m9.89999 11c0 .6075.49251 1.1 1.10001 1.1s1.1-.4925 1.1-1.1-.4925-1.10002-1.1-1.10002-1.10001.49252-1.10001 1.10002z"/><path d="m14.4 11c0 .6075.4925 1.1 1.1 1.1s1.1-.4925 1.1-1.1-.4925-1.10002-1.1-1.10002-1.1.49252-1.1 1.10002z"/></g></svg>