<svg width="22" height="22" viewBox="0 0 22 22" fill="none" xmlns="http://www.w3.org/2000/svg">
<rect x="0.5" y="0.5" width="21" height="21" rx="1.5" fill="white"/>
<rect x="0.5" y="0.5" width="21" height="21" rx="1.5" stroke="#EAEBEE"/>
<path fill-rule="evenodd" clip-rule="evenodd" d="M4.4 6.99999C4.4 5.56405 5.56406 4.39999 7 4.39999C8.43594 4.39999 9.6 5.56405 9.6 6.99999V8.39999H12.4V6.99999C12.4 5.56405 13.5641 4.39999 15 4.39999C16.4359 4.39999 17.6 5.56405 17.6 6.99999C17.6 8.43593 16.4359 9.59999 15 9.59999H13.6V12.4H15C16.4359 12.4 17.6 13.5641 17.6 15C17.6 16.4359 16.4359 17.6 15 17.6C13.5641 17.6 12.4 16.4359 12.4 15V13.6H9.6V15C9.6 16.4359 8.43594 17.6 7 17.6C5.56406 17.6 4.4 16.4359 4.4 15C4.4 13.5641 5.56406 12.4 7 12.4H8.4V9.59999H7C5.56406 9.59999 4.4 8.43593 4.4 6.99999ZM7 5.59999C6.2268 5.59999 5.6 6.2268 5.6 6.99999C5.6 7.77319 6.2268 8.39999 7 8.39999H8.4V6.99999C8.4 6.2268 7.7732 5.59999 7 5.59999ZM15 16.4C15.7732 16.4 16.4 15.7732 16.4 15C16.4 14.2268 15.7732 13.6 15 13.6H13.6V15C13.6 15.7732 14.2268 16.4 15 16.4ZM16.4 6.99999C16.4 6.2268 15.7732 5.59999 15 5.59999C14.2268 5.59999 13.6 6.2268 13.6 6.99999V8.39999H15C15.7732 8.39999 16.4 7.77319 16.4 6.99999ZM7 16.4C6.2268 16.4 5.6 15.7732 5.6 15C5.6 14.2268 6.2268 13.6 7 13.6H8.4L8.4 15C8.4 15.7732 7.7732 16.4 7 16.4ZM9.6 12.4V9.59999H12.4V12.4H9.6Z" fill="#262930"/>
</svg>
