<svg width="22" height="22" viewBox="0 0 22 22" fill="none" xmlns="http://www.w3.org/2000/svg">
<rect x="0.5" y="0.5" width="21" height="21" rx="1.5" fill="white"/>
<rect x="0.5" y="0.5" width="21" height="21" rx="1.5" stroke="#EAEBEE"/>
<path d="M11 5.39999C10.3925 5.39999 9.90002 5.89248 9.90002 6.49999C9.90002 7.10751 10.3925 7.59999 11 7.59999C11.6075 7.59999 12.1 7.10751 12.1 6.49999C12.1 5.89248 11.6075 5.39999 11 5.39999Z" fill="#262930"/>
<path d="M11 9.89999C10.3925 9.89999 9.90002 10.3925 9.90002 11C9.90002 11.6075 10.3925 12.1 11 12.1C11.6075 12.1 12.1 11.6075 12.1 11C12.1 10.3925 11.6075 9.89999 11 9.89999Z" fill="#262930"/>
<path d="M11 14.4C10.3925 14.4 9.90002 14.8925 9.90002 15.5C9.90002 16.1075 10.3925 16.6 11 16.6C11.6075 16.6 12.1 16.1075 12.1 15.5C12.1 14.8925 11.6075 14.4 11 14.4Z" fill="#262930"/>
</svg>
