<svg width="22" height="22" viewBox="0 0 22 22" fill="none" xmlns="http://www.w3.org/2000/svg">
<rect x="0.5" y="0.5" width="21" height="21" rx="1.5" fill="white"/>
<rect x="0.5" y="0.5" width="21" height="21" rx="1.5" stroke="#EAEBEE"/>
<g clip-path="url(#clip0_5640_3286)">
<path d="M16.4439 3.89999C17.5919 3.89999 18.6002 4.77457 18.6002 5.94492L18.6002 16.0553C18.6002 17.2256 17.5919 18.1002 16.4439 18.1002H5.55527C4.99745 18.1001 4.45445 17.8941 4.04745 17.5162C3.63893 17.1368 3.39999 16.6124 3.39999 16.0553L3.39999 5.94492C3.39999 4.77473 4.40749 3.90024 5.55527 3.89999L16.4439 3.89999ZM5.55527 5.10019C4.985 5.10042 4.60019 5.51963 4.60019 5.94492L4.60019 16.0553C4.60019 16.2643 4.68895 16.4749 4.86386 16.6373C5.04016 16.801 5.28822 16.8999 5.55527 16.9H7.19101L7.19101 5.10019H5.55527ZM8.3912 16.9H16.4439C17.0145 16.9 17.4 16.4807 17.4 16.0553L17.4 5.94492C17.4 5.51951 17.0145 5.10019 16.4439 5.10019L8.3912 5.10019L8.3912 16.9Z" fill="#262930"/>
<path d="M13.3456 9.3029L15.0426 11L13.3456 12.697" stroke="#262930" stroke-linecap="round" stroke-linejoin="round"/>
<path d="M15.0426 11L10.8 11" stroke="#262930" stroke-linecap="round" stroke-linejoin="round"/>
</g>
<defs>
<clipPath id="clip0_5640_3286">
<rect width="16" height="16" fill="white" transform="translate(3 3)"/>
</clipPath>
</defs>
</svg>
