<svg width="22" height="22" viewBox="0 0 22 22" fill="none" xmlns="http://www.w3.org/2000/svg">
<rect x="0.5" y="0.5" width="21" height="21" rx="1.5" fill="#262930"/>
<rect x="0.5" y="0.5" width="21" height="21" rx="1.5" stroke="#383B41"/>
<path fill-rule="evenodd" clip-rule="evenodd" d="M18.6 7C18.6 5.56406 17.4359 4.4 16 4.4H5.99999C4.56405 4.4 3.39999 5.56406 3.39999 7V13C3.39999 14.4359 4.56406 15.6 6 15.6H6.0923V17.7174C6.0923 17.9507 6.22755 18.1629 6.43905 18.2613C6.65055 18.3598 6.89997 18.3267 7.07851 18.1766L9.75118 15.9286C10.0035 15.7164 10.3226 15.6 10.6523 15.6H16C17.4359 15.6 18.6 14.4359 18.6 13V7ZM16 5.6C16.7732 5.6 17.4 6.2268 17.4 7V13C17.4 13.7732 16.7732 14.4 16 14.4H10.6523C10.04 14.4 9.44736 14.6161 8.97876 15.0102L7.2923 16.4287V15C7.2923 14.6686 7.02367 14.4 6.6923 14.4H6C5.2268 14.4 4.59999 13.7732 4.59999 13V7C4.59999 6.2268 5.2268 5.6 5.99999 5.6H16Z" fill="white"/>
</svg>
