<svg width="22" height="22" viewBox="0 0 22 22" fill="none" xmlns="http://www.w3.org/2000/svg">
<rect x="0.5" y="0.5" width="21" height="21" rx="1.5" fill="white"/>
<rect x="0.5" y="0.5" width="21" height="21" rx="1.5" stroke="#EAEBEE"/>
<path fill-rule="evenodd" clip-rule="evenodd" d="M6.46957 8.09999L4.5 8.09999C4.16863 8.09999 3.9 7.83136 3.9 7.49999C3.9 7.16862 4.16863 6.89999 4.5 6.89999L6.46957 6.89999C6.74044 5.75331 7.77057 4.89999 9 4.89999C10.4359 4.89999 11.6 6.06405 11.6 7.49999C11.6 8.93593 10.4359 10.1 9 10.1C7.77057 10.1 6.74044 9.24667 6.46957 8.09999ZM7.6 7.49999C7.6 8.27319 8.2268 8.89999 9 8.89999C9.7732 8.89999 10.4 8.27319 10.4 7.49999C10.4 6.7268 9.7732 6.09999 9 6.09999C8.22695 6.09999 7.60025 6.727 7.6 7.49999C7.6 7.49984 7.6 7.50014 7.6 7.49999Z" fill="#262930"/>
<path d="M13.5 6.89999C13.1686 6.89999 12.9 7.16862 12.9 7.49999C12.9 7.83136 13.1686 8.09999 13.5 8.09999L17.5 8.09999C17.8314 8.09999 18.1 7.83136 18.1 7.49999C18.1 7.16862 17.8314 6.89999 17.5 6.89999L13.5 6.89999Z" fill="#262930"/>
<path fill-rule="evenodd" clip-rule="evenodd" d="M10.4 13.5C10.4 12.6163 11.1163 11.9 12 11.9H14C14.8837 11.9 15.6 12.6163 15.6 13.5V13.9H17.5C17.8314 13.9 18.1 14.1686 18.1 14.5C18.1 14.8314 17.8314 15.1 17.5 15.1H15.6V15.5C15.6 16.3836 14.8837 17.1 14 17.1H12C11.1163 17.1 10.4 16.3836 10.4 15.5V13.5ZM14.4 13.5V15.5C14.4 15.7209 14.2209 15.9 14 15.9H12C11.7791 15.9 11.6 15.7209 11.6 15.5V13.5C11.6 13.2791 11.7791 13.1 12 13.1H14C14.2209 13.1 14.4 13.2791 14.4 13.5Z" fill="#262930"/>
<path d="M8.5 13.9C8.83137 13.9 9.1 14.1686 9.1 14.5C9.1 14.8314 8.83137 15.1 8.5 15.1H4.5C4.16863 15.1 3.9 14.8314 3.9 14.5C3.9 14.1686 4.16863 13.9 4.5 13.9L8.5 13.9Z" fill="#262930"/>
</svg>
