<svg width="22" height="22" viewBox="0 0 22 22" fill="none" xmlns="http://www.w3.org/2000/svg">
<rect x="0.5" y="0.5" width="21" height="21" rx="1.5" fill="#262930"/>
<rect x="0.5" y="0.5" width="21" height="21" rx="1.5" stroke="#383B41"/>
<path d="M8.75002 5.4C8.14251 5.4 7.65002 5.89249 7.65002 6.5C7.65002 7.10751 8.14251 7.6 8.75002 7.6C9.35754 7.6 9.85002 7.10751 9.85002 6.5C9.85002 5.89249 9.35754 5.4 8.75002 5.4Z" fill="white"/>
<path d="M8.75002 9.9C8.14251 9.9 7.65002 10.3925 7.65002 11C7.65002 11.6075 8.14251 12.1 8.75002 12.1C9.35754 12.1 9.85002 11.6075 9.85002 11C9.85002 10.3925 9.35754 9.9 8.75002 9.9Z" fill="white"/>
<path d="M8.75002 14.4C8.14251 14.4 7.65002 14.8925 7.65002 15.5C7.65002 16.1075 8.14251 16.6 8.75002 16.6C9.35754 16.6 9.85002 16.1075 9.85002 15.5C9.85002 14.8925 9.35754 14.4 8.75002 14.4Z" fill="white"/>
<path d="M13.25 5.4C12.6425 5.4 12.15 5.89249 12.15 6.5C12.15 7.10751 12.6425 7.6 13.25 7.6C13.8575 7.6 14.35 7.10751 14.35 6.5C14.35 5.89249 13.8575 5.4 13.25 5.4Z" fill="white"/>
<path d="M13.25 9.9C12.6425 9.9 12.15 10.3925 12.15 11C12.15 11.6075 12.6425 12.1 13.25 12.1C13.8575 12.1 14.35 11.6075 14.35 11C14.35 10.3925 13.8575 9.9 13.25 9.9Z" fill="white"/>
<path d="M13.25 14.4C12.6425 14.4 12.15 14.8925 12.15 15.5C12.15 16.1075 12.6425 16.6 13.25 16.6C13.8575 16.6 14.35 16.1075 14.35 15.5C14.35 14.8925 13.8575 14.4 13.25 14.4Z" fill="white"/>
</svg>
