<svg fill="none" height="22" viewBox="0 0 22 22" width="22" xmlns="http://www.w3.org/2000/svg"><rect fill="#262930" height="21" rx="1.5" width="21" x=".5" y=".5"/><rect height="21" rx="1.5" stroke="#383b41" width="21" x=".5" y=".5"/><g fill="#fff"><path d="m17.4282 4.57967c.0556.05661.0977.1215.1263.19066.0293.07075.0455.14832.0455.22967v4c0 .33137-.2686.6-.6.6-.3313 0-.6-.26863-.6-.6v-2.55147l-3.4757 3.47574c-.2343.23433-.6142.23433-.8485 0-.2344-.23432-.2344-.61422 0-.84853l3.4757-3.47574h-2.5515c-.3313 0-.6-.26863-.6-.6s.2687-.6.6-.6h3.9999c.1677 0 .3194.06878.4283.17967z"/><path d="m5.00002 17.6h4c.33138 0 .6-.2686.6-.6s-.26862-.6-.6-.6h-2.55147l3.47574-3.4757c.23431-.2343.23431-.6142 0-.8486-.23432-.2343-.61421-.2343-.84853 0l-3.47574 3.4758v-2.5515c0-.3314-.26862-.6-.6-.6-.33137 0-.6.2686-.6.6v4c0 .0819.01642.16.04613.2311.0281.0674.06904.1308.12281.1863.0045.0046.00907.0092.01371.0137.0559.0541.11973.0953.18769.1234.07074.0293.14831.0455.22966.0455z"/></g></svg>