<svg fill="none" height="22" viewBox="0 0 22 22" width="22" xmlns="http://www.w3.org/2000/svg"><rect fill="#fff" height="21" rx="1.5" width="21" x=".5" y=".5"/><rect height="21" rx="1.5" stroke="#eaebee" width="21" x=".5" y=".5"/><g stroke="#262930" stroke-width="1.2"><path d="m15.1562 12.2989c-.2675.6171-.6535 1.1951-1.1579 1.6996-2.1479 2.1478-5.63031 2.1478-7.7782 0-2.14788-2.1479-2.14788-5.63033 0-7.77821 1.44007-1.44007 3.48002-1.91463 5.3155-1.42369" stroke-linecap="round"/><path d="m13.9982 13.998 3.3926 3.3926" stroke-linecap="round" stroke-linejoin="round"/><path d="m15.0406 4.08191c.0384-.10924.1929-.1092.2313.00003.2229.63432.3601 1.02481.5851 1.3605.1991.29709.4469.55847.733.77313.3232.24253.7059.40033 1.3275.65664.11.04538.11.20121 0 .24659-.6216.25632-1.0043.41411-1.3275.65665-.2861.21465-.5339.47603-.733.77313-.225.33568-.3622.72619-.5851 1.36051-.0384.10921-.1929.10921-.2313.00001-.2229-.63433-.3601-1.02483-.5851-1.36052-.1991-.2971-.4469-.55848-.733-.77313-.3233-.24254-.7059-.40033-1.3275-.65665-.11-.04538-.11-.20123 0-.24661.6216-.2563 1.0042-.41409 1.3275-.65662.2861-.21466.5339-.47604.733-.77313.225-.3357.3622-.7262.5851-1.36053z" stroke-linejoin="round"/></g></svg>