<svg width="22" height="22" viewBox="0 0 22 22" fill="none" xmlns="http://www.w3.org/2000/svg">
<rect x="0.5" y="0.5" width="21" height="21" rx="1.5" fill="#262930"/>
<rect x="0.5" y="0.5" width="21" height="21" rx="1.5" stroke="#383B41"/>
<path fill-rule="evenodd" clip-rule="evenodd" d="M11 8.65C9.56405 8.65 8.4 9.81406 8.4 11.25C8.4 12.6859 9.56405 13.85 11 13.85C12.4359 13.85 13.6 12.6859 13.6 11.25C13.6 9.81406 12.4359 8.65 11 8.65ZM9.6 11.25C9.6 10.4768 10.2268 9.85 11 9.85C11.7732 9.85 12.4 10.4768 12.4 11.25C12.4 12.0232 11.7732 12.65 11 12.65C10.2268 12.65 9.6 12.0232 9.6 11.25Z" fill="white"/>
<path fill-rule="evenodd" clip-rule="evenodd" d="M12.3752 4.86652C11.7131 3.91116 10.2869 3.91116 9.6248 4.86651L8.74774 6.13209C8.65584 6.2647 8.49466 6.34358 8.32277 6.33079L6.76843 6.21516C5.61217 6.12914 4.69674 7.22123 5.05174 8.34829L5.5124 9.81081C5.55926 9.95957 5.52267 10.1233 5.41113 10.2412L4.34996 11.3625C3.53872 12.2198 3.8708 13.6041 4.96296 14.024L6.41446 14.5822C6.57275 14.6431 6.67937 14.7793 6.70284 14.9331L6.93393 16.4471C7.11099 17.6071 8.40746 18.2011 9.41281 17.6299L10.7621 16.8634C10.9088 16.7801 11.0911 16.7801 11.2379 16.8634L12.5872 17.6299C13.5925 18.201 14.889 17.6071 15.0661 16.4471L15.2971 14.9331C15.3206 14.7793 15.4272 14.6431 15.5855 14.5822L17.037 14.024C18.1292 13.6041 18.4613 12.2198 17.65 11.3625L16.5889 10.2412C16.4773 10.1233 16.4407 9.95957 16.4876 9.81081L16.9482 8.34829C17.3032 7.22124 16.3878 6.12914 15.2316 6.21516L13.6772 6.33079C13.5053 6.34358 13.3442 6.2647 13.2523 6.13209L12.3752 4.86652ZM10.6111 5.55004C10.7959 5.28332 11.204 5.28332 11.3889 5.55004L12.2659 6.81562C12.6037 7.30298 13.1767 7.57134 13.7662 7.52748L15.3206 7.41185C15.6652 7.38621 15.8935 7.7026 15.8037 7.98778L15.343 9.45029C15.1642 10.018 15.309 10.6345 15.7173 11.066L16.7784 12.1874C16.9919 12.4129 16.9158 12.785 16.6063 12.904L15.1548 13.4621C14.6021 13.6747 14.2006 14.1642 14.1109 14.752L13.8798 16.266C13.8337 16.5679 13.4775 16.7556 13.1799 16.5865L11.8306 15.82C11.3163 15.5279 10.6837 15.5279 10.1694 15.82L8.82008 16.5865C8.52249 16.7556 8.16627 16.5679 8.12019 16.266L7.8891 14.752C7.79938 14.1642 7.39791 13.6747 6.84516 13.4621L5.39366 12.904C5.08423 12.785 5.00812 12.4129 5.22157 12.1873L6.28274 11.066C6.69103 10.6345 6.83578 10.018 6.65697 9.45029L6.19631 7.98778C6.10648 7.7026 6.33475 7.38621 6.6794 7.41185L8.23374 7.52748C8.82327 7.57134 9.3963 7.30297 9.73404 6.81562L10.6111 5.55004Z" fill="white"/>
</svg>
