<svg width="800" height="450" viewBox="0 0 800 450" fill="none" xmlns="http://www.w3.org/2000/svg">
<rect width="800" height="450" fill="url(#paint0_linear_6312_3688)"/>
<path d="M329.999 232.5L329.999 250C329.999 252.761 332.238 255 334.999 255H352.499" stroke="#F2911E" stroke-width="5" stroke-linecap="round"/>
<path d="M369.999 232.5L369.999 250C369.999 252.761 372.238 255 374.999 255H392.499" stroke="#F2911E" stroke-width="5" stroke-linecap="round"/>
<path d="M367.5 155L392.5 155" stroke="#F2911E" stroke-width="5" stroke-linecap="round"/>
<path d="M407.5 155L432.5 155" stroke="#F2911E" stroke-width="5" stroke-linecap="round"/>
<path d="M470.001 232.5L470.001 250C470.001 252.761 467.762 255 465.001 255H447.501" stroke="#F2911E" stroke-width="5" stroke-linecap="round"/>
<path d="M329.999 177.5L329.999 160C329.999 157.239 332.238 155 334.999 155H352.499" stroke="#F2911E" stroke-width="5" stroke-linecap="round"/>
<path d="M407.5 255L432.5 255" stroke="#F2911E" stroke-width="5" stroke-linecap="round"/>
<path d="M470.001 177.5L470.001 160C470.001 157.239 467.762 155 465.001 155H447.501" stroke="#F2911E" stroke-width="5" stroke-linecap="round"/>
<path d="M330 212.5L330 217.5" stroke="#F2911E" stroke-width="5" stroke-linecap="round"/>
<path d="M330 192.5L330 197.5" stroke="#F2911E" stroke-width="5" stroke-linecap="round"/>
<path d="M370 212.5L370 217.5" stroke="#F2911E" stroke-width="5" stroke-linecap="round"/>
<path d="M370 192.5L370 197.5" stroke="#F2911E" stroke-width="5" stroke-linecap="round"/>
<path d="M370 172.5L370 177.5" stroke="#F2911E" stroke-width="5" stroke-linecap="round"/>
<path d="M470 212.5L470 217.5" stroke="#F2911E" stroke-width="5" stroke-linecap="round"/>
<path d="M470 192.5L470 197.5" stroke="#F2911E" stroke-width="5" stroke-linecap="round"/>
<path d="M367.5 295L392.5 295" stroke="#F2911E" stroke-width="5" stroke-linecap="round"/>
<path d="M407.5 295L432.5 295" stroke="#F2911E" stroke-width="5" stroke-linecap="round"/>
<path d="M400 272.5L400 277.5" stroke="#F2911E" stroke-width="5" stroke-linecap="round"/>
<path d="M420 232.5L420 237.5" stroke="white" stroke-width="5" stroke-linecap="round"/>
<path d="M420 212.5L420 217.5" stroke="white" stroke-width="5" stroke-linecap="round"/>
<path d="M392.5 205H387.5" stroke="white" stroke-width="5" stroke-linecap="round"/>
<path d="M412.5 205H407.5" stroke="white" stroke-width="5" stroke-linecap="round"/>
<path d="M432.5 205H427.5" stroke="white" stroke-width="5" stroke-linecap="round"/>
<path d="M452.5 205H447.5" stroke="white" stroke-width="5" stroke-linecap="round"/>
<path d="M420 192.5L420 197.5" stroke="white" stroke-width="5" stroke-linecap="round"/>
<path d="M420 172.5L420 177.5" stroke="white" stroke-width="5" stroke-linecap="round"/>
<defs>
<linearGradient id="paint0_linear_6312_3688" x1="795.549" y1="7.11824e-06" x2="-34.1589" y2="361.346" gradientUnits="userSpaceOnUse">
<stop offset="0.518302" stop-color="#262930"/>
<stop offset="1" stop-color="#3F424A"/>
</linearGradient>
</defs>
</svg>
