<svg width="22" height="22" viewBox="0 0 22 22" fill="none" xmlns="http://www.w3.org/2000/svg">
<rect x="0.5" y="0.5" width="21" height="21" rx="1.5" fill="white"/>
<rect x="0.5" y="0.5" width="21" height="21" rx="1.5" stroke="#EAEBEE"/>
<path fill-rule="evenodd" clip-rule="evenodd" d="M8.75002 4.39999C7.17601 4.39999 5.90002 5.67598 5.90002 7.24999C5.90002 8.82401 7.17601 10.1 8.75002 10.1C10.324 10.1 11.6 8.82401 11.6 7.24999C11.6 5.67598 10.324 4.39999 8.75002 4.39999ZM7.10002 7.24999C7.10002 6.33872 7.83875 5.59999 8.75002 5.59999C9.66129 5.59999 10.4 6.33872 10.4 7.24999C10.4 8.16126 9.66129 8.89999 8.75002 8.89999C7.83875 8.89999 7.10002 8.16126 7.10002 7.24999Z" fill="#262930"/>
<path fill-rule="evenodd" clip-rule="evenodd" d="M11.2815 10.9797C12.2953 9.32071 14.7047 9.32071 15.7186 10.9797L18.5822 15.6657C19.2338 16.7318 18.4665 18.1 17.217 18.1H8.00002L7.99719 18.1L5 18.1C3.68153 18.1 2.92892 16.5948 3.72 15.54L5.42 13.2733C6.46 11.8867 8.54 11.8867 9.58 13.2733L9.74521 13.4936L11.2815 10.9797ZM9.07174 14.5956L7.66353 16.9L5 16.9C4.67038 16.9 4.48223 16.5237 4.68 16.26L6.38 13.9933C6.94 13.2467 8.06 13.2467 8.62 13.9933L9.07174 14.5956ZM14.6946 11.6054C14.1487 10.7121 12.8513 10.7121 12.3054 11.6054L9.06986 16.9H17.217C17.5293 16.9 17.7212 16.558 17.5583 16.2914L14.6946 11.6054Z" fill="#262930"/>
</svg>
