<svg width="22" height="22" viewBox="0 0 22 22" fill="none" xmlns="http://www.w3.org/2000/svg">
<rect x="0.5" y="0.5" width="21" height="21" rx="1.5" fill="white"/>
<rect x="0.5" y="0.5" width="21" height="21" rx="1.5" stroke="#EAEBEE"/>
<g clip-path="url(#clip0_5640_3268)">
<path d="M16.4439 18.1C17.5919 18.1 18.6002 17.2254 18.6002 16.0551L18.6002 5.94473C18.6002 4.77439 17.5919 3.89981 16.4439 3.89981L5.55527 3.89981C4.40749 3.90005 3.39999 4.77455 3.39999 5.94473L3.39999 16.0551C3.39999 16.6123 3.63884 17.1376 4.04745 17.517C4.45442 17.8948 4.99757 18.0999 5.55527 18.1H16.4439ZM5.55527 16.8998C5.28821 16.8997 5.04016 16.8008 4.86386 16.6371C4.68901 16.4747 4.60019 16.2641 4.60019 16.0551L4.60019 5.94473C4.60019 5.51945 4.985 5.10024 5.55527 5.10001H7.19101L7.19101 16.8998H5.55527ZM8.3912 16.8998L8.3912 5.10001L16.4439 5.10001C17.0145 5.10001 17.4 5.51933 17.4 5.94473L17.4 16.0551C17.4 16.4805 17.0145 16.8998 16.4439 16.8998H8.3912Z" fill="#262930"/>
<path d="M12.4971 12.6971L10.8 11.0001L12.4971 9.303" stroke="#262930" stroke-linecap="round" stroke-linejoin="round"/>
<path d="M10.8 11L15.0426 11" stroke="#262930" stroke-linecap="round" stroke-linejoin="round"/>
</g>
<defs>
<clipPath id="clip0_5640_3268">
<rect width="16" height="16" fill="white" transform="matrix(1 0 0 -1 3 19)"/>
</clipPath>
</defs>
</svg>
