<svg width="800" height="450" viewBox="0 0 800 450" fill="none" xmlns="http://www.w3.org/2000/svg">
<rect width="800" height="450" fill="url(#paint0_linear_6312_2945)"/>
<path d="M281.356 280.002H517.906C520.354 280.002 522.461 278.208 522.758 275.778C528.673 227.416 493.7 215.427 470.938 215.308C468.062 215.294 465.611 213.077 465.15 210.237C462.583 194.415 449.668 170.36 412.151 170.002C376.625 169.664 361.49 188.143 356.761 201.715C355.633 204.952 351.916 206.947 348.664 205.861C323.701 197.525 314.528 217.011 312.548 231.597C312.208 234.102 310.236 236.12 307.746 236.554C284.089 240.67 277.283 261.603 276.632 275.307C276.506 277.947 278.713 280.002 281.356 280.002Z" stroke="white" stroke-width="5" stroke-linecap="round" stroke-linejoin="round" stroke-dasharray="10 20 30 20"/>
<path d="M342.472 258H457.383C459.831 258 461.956 256.212 462.144 253.771C463.758 232.837 449.4 226.38 438.414 225.476C435.548 225.24 433.08 223.006 432.3 220.238C430.111 212.46 423.122 202.664 406.131 202.502C390.853 202.357 383.05 209.108 379.601 215.345C377.942 218.345 374.13 220.283 370.742 219.764C361.725 218.385 357.669 225.197 356.267 231.42C355.711 233.886 353.75 235.875 351.319 236.564C342.265 239.131 338.849 247.033 337.975 253.31C337.61 255.927 339.829 258 342.472 258Z" stroke="#B2A5FF" stroke-width="5" stroke-linecap="round" stroke-linejoin="round" stroke-dasharray="13 13"/>
<defs>
<linearGradient id="paint0_linear_6312_2945" x1="795.549" y1="7.11824e-06" x2="-34.1589" y2="361.346" gradientUnits="userSpaceOnUse">
<stop offset="0.518302" stop-color="#262930"/>
<stop offset="1" stop-color="#3F424A"/>
</linearGradient>
</defs>
</svg>
