<svg width="16" height="16" viewBox="0 0 16 16" fill="none" xmlns="http://www.w3.org/2000/svg">
<path d="M8.00002 2.4C7.39251 2.4 6.90002 2.89249 6.90002 3.5C6.90002 4.10751 7.39251 4.6 8.00002 4.6C8.60754 4.6 9.10002 4.10751 9.10002 3.5C9.10002 2.89249 8.60754 2.4 8.00002 2.4Z" fill="#656973"/>
<path d="M8.00002 6.9C7.39251 6.9 6.90002 7.39249 6.90002 8C6.90002 8.60751 7.39251 9.1 8.00002 9.1C8.60754 9.1 9.10002 8.60751 9.10002 8C9.10002 7.39249 8.60754 6.9 8.00002 6.9Z" fill="#656973"/>
<path d="M8.00002 11.4C7.39251 11.4 6.90002 11.8925 6.90002 12.5C6.90002 13.1075 7.39251 13.6 8.00002 13.6C8.60754 13.6 9.10002 13.1075 9.10002 12.5C9.10002 11.8925 8.60754 11.4 8.00002 11.4Z" fill="#656973"/>
</svg>
