<svg width="800" height="450" viewBox="0 0 800 450" fill="none" xmlns="http://www.w3.org/2000/svg">
<rect width="800" height="450" fill="url(#paint0_linear_5485_1092)"/>
<path d="M330.945 177.5C333.658 166.958 341.958 158.658 352.5 155.945" stroke="#262930" stroke-width="5" stroke-linecap="round"/>
<path d="M330.945 192.5C333.658 203.042 341.958 211.342 352.5 214.055" stroke="#262930" stroke-width="5" stroke-linecap="round"/>
<path d="M389.055 177.5C386.342 166.958 378.042 158.658 367.5 155.945" stroke="#262930" stroke-width="5" stroke-linecap="round"/>
<path d="M389.055 192.5C386.342 203.042 378.042 211.342 367.5 214.055" stroke="#262930" stroke-width="5" stroke-linecap="round"/>
<path d="M435 235L430 236.25" stroke="#F2911E" stroke-width="5" stroke-linecap="round"/>
<path d="M411.25 255L410 260" stroke="#F2911E" stroke-width="5" stroke-linecap="round"/>
<path d="M420 241.25L416.25 245" stroke="#F2911E" stroke-width="5" stroke-linecap="round"/>
<path d="M445 235L450 236.25" stroke="#F2911E" stroke-width="5" stroke-linecap="round"/>
<path d="M468.75 255L470 260" stroke="#F2911E" stroke-width="5" stroke-linecap="round"/>
<path d="M460 241.25L463.75 245" stroke="#F2911E" stroke-width="5" stroke-linecap="round"/>
<path d="M330.945 257.5C333.658 246.958 341.958 238.658 352.5 235.945" stroke="#262930" stroke-width="5" stroke-linecap="round"/>
<path d="M410 292.5L410 297.5" stroke="#F2911E" stroke-width="5" stroke-linecap="round"/>
<path d="M410 272.5L410 277.5" stroke="#F2911E" stroke-width="5" stroke-linecap="round"/>
<path d="M389.055 257.5C386.342 246.958 378.042 238.658 367.5 235.945" stroke="#262930" stroke-width="5" stroke-linecap="round"/>
<path d="M470 292.5L470 297.5" stroke="#F2911E" stroke-width="5" stroke-linecap="round"/>
<path d="M470 272.5L470 277.5" stroke="#F2911E" stroke-width="5" stroke-linecap="round"/>
<path d="M390 272.5L390 297.5" stroke="#262930" stroke-width="5" stroke-linecap="round"/>
<path d="M330 272.5L330 297.5" stroke="#262930" stroke-width="5" stroke-linecap="round"/>
<path d="M440 212.5L440 217.5" stroke="#F2911E" stroke-width="5" stroke-linecap="round"/>
<path d="M440 192.5L440 197.5" stroke="#F2911E" stroke-width="5" stroke-linecap="round"/>
<path d="M427.5 185L432.5 185" stroke="#F2911E" stroke-width="5" stroke-linecap="round"/>
<path d="M407.5 185L412.5 185" stroke="#F2911E" stroke-width="5" stroke-linecap="round"/>
<path d="M440 172.5L440 177.5" stroke="#F2911E" stroke-width="5" stroke-linecap="round"/>
<path d="M440 152.5L440 157.5" stroke="#F2911E" stroke-width="5" stroke-linecap="round"/>
<path d="M467.5 185L472.5 185" stroke="#F2911E" stroke-width="5" stroke-linecap="round"/>
<path d="M447.5 185L452.5 185" stroke="#F2911E" stroke-width="5" stroke-linecap="round"/>
<defs>
<linearGradient id="paint0_linear_5485_1092" x1="377.262" y1="3.12975e-05" x2="424.55" y2="240.166" gradientUnits="userSpaceOnUse">
<stop stop-color="#FFF5D9"/>
<stop offset="1" stop-color="white"/>
</linearGradient>
</defs>
</svg>
