<svg fill="none" height="22" viewBox="0 0 22 22" width="22" xmlns="http://www.w3.org/2000/svg"><rect fill="#262930" height="21" rx="1.5" width="21" x=".5" y=".5"/><rect height="21" rx="1.5" stroke="#383b41" width="21" x=".5" y=".5"/><path clip-rule="evenodd" d="m11 3.35001c-.4066 0-.8063.03178-1.1964.09309-.32736.05145-.55103.35853-.49958.68588.05144.32735.35852.55102.68587.49958.32871-.05167.66611-.07855 1.01011-.07855s.6813.02688 1.0101.07855c.3273.05144.6344-.17223.6858-.49958.0515-.32735-.1722-.63443-.4995-.68587-.3902-.06132-.7898-.0931-1.1964-.0931zm-3.79108 2.43111c.26792-.19499.32705-.57026.13206-.83819-.19499-.26792-.57026-.32705-.83819-.13206-.64854.472-1.21996 1.04342-1.69195 1.69196-.195.26792-.13587.64319.13206.83819.26792.19499.64319.13586.83819-.13206.39828-.54726.88057-1.02956 1.42783-1.42784zm8.28828-.97025c-.268-.19499-.6432-.13586-.8382.13206-.195.26793-.1359.6432.132.83819.5473.39828 1.0296.88058 1.4279 1.42784.195.26792.5702.32705.8381.13206.268-.19499.3271-.57026.1321-.83819-.472-.64854-1.0434-1.21996-1.6919-1.69196zm-10.86868 5.17906c.05144-.32735-.17223-.63443-.49958-.68587-.32735-.05145-.63443.17222-.68587.49957-.06132.39017-.09309.78977-.09309 1.19637s.03177.8062.09309 1.1964c.05144.3273.35852.551.68587.4996.32735-.0515.55102-.3586.49958-.6859-.05167-.3288-.07854-.6661-.07854-1.0101s.02687-.6813.07854-1.01007zm13.92838-.1863c-.0515-.32735-.3585-.55102-.6859-.49957-.3273.05144-.551.35852-.4996.68587.0517.32877.0786.66607.0786 1.01007s-.0269.6813-.0786 1.0101c-.0514.3273.1723.6344.4996.6859.3274.0514.6344-.1723.6859-.4996.0613-.3902.0931-.7898.0931-1.1964s-.0318-.8062-.0931-1.19637zm-12.77582 4.98747c-.19499-.268-.57026-.3271-.83818-.1321-.26793.195-.32706.5703-.13206.8382.47199.6485 1.04341 1.22 1.69195 1.6919.26793.195.6432.1359.83819-.132s.13586-.6432-.13206-.8382c-.54726-.3983-1.02955-.8806-1.42784-1.4278zm11.40802.7061c.195-.2679.1359-.6432-.1321-.8382-.2679-.195-.6431-.1359-.8381.1321-.3983.5472-.8806 1.0295-1.4279 1.4278-.2679.195-.327.5703-.132.8382s.5702.327.8382.132c.6485-.4719 1.2199-1.0434 1.6919-1.6919zm-7.19921 1.8743c-.32735-.0515-.63443.1722-.68587.4995-.05145.3274.17222.6345.49957.6859.39011.0613.78981.0931 1.19641.0931s.8062-.0318 1.1964-.0931c.3273-.0514.551-.3585.4995-.6859-.0514-.3273-.3585-.551-.6858-.4995-.3288.0516-.6661.0785-1.0101.0785s-.6814-.0269-1.01011-.0785zm1.01011-10.9715c.3313 0 .6.26863.6.6v3.4h3.4c.3313 0 .6.2686.6.6s-.2687.6-.6.6h-3.4v3.4c0 .3314-.2687.6-.6.6-.3314 0-.6-.2686-.6-.6v-3.4h-3.40002c-.33138 0-.60001-.2686-.60001-.6s.26863-.6.60001-.6h3.40002v-3.4c0-.33137.2686-.6.6-.6z" fill="#fff" fill-rule="evenodd"/></svg>