<svg width="22" height="22" viewBox="0 0 22 22" fill="none" xmlns="http://www.w3.org/2000/svg">
<rect x="0.5" y="0.5" width="21" height="21" rx="1.5" fill="white"/>
<rect x="0.5" y="0.5" width="21" height="21" rx="1.5" stroke="#EAEBEE"/>
<path fill-rule="evenodd" clip-rule="evenodd" d="M8.11755 4.4L13.8464 4.4V3.65675C13.8464 3.32538 14.115 3.05675 14.4464 3.05675C14.7778 3.05675 15.0464 3.32538 15.0464 3.65675V4.4H15.2C16.5255 4.4 17.6 5.33313 17.6 6.48421V15.5158C17.6 16.6669 16.5255 17.6 15.2 17.6H6.80002C5.47454 17.6 4.40002 16.6669 4.40002 15.5158L4.40002 6.48421C4.40002 5.33313 5.47454 4.4 6.80002 4.4H6.91755V3.65675C6.91755 3.32538 7.18618 3.05675 7.51755 3.05675C7.84892 3.05675 8.11755 3.32538 8.11755 3.65675V4.4ZM5.60002 7.87369V6.48421C5.60002 5.90867 6.13728 5.44211 6.80002 5.44211H6.91755L6.91755 6.21058C6.91755 6.54195 7.18618 6.81058 7.51755 6.81058C7.84892 6.81058 8.11755 6.54195 8.11755 6.21058L8.11755 5.44211H13.8464V6.21058C13.8464 6.54195 14.115 6.81058 14.4464 6.81058C14.7778 6.81058 15.0464 6.54195 15.0464 6.21058V5.44211H15.2C15.8628 5.44211 16.4 5.90867 16.4 6.48421V7.87369H5.60002ZM5.60002 8.91579L5.60002 15.5158C5.60002 16.0913 6.13728 16.5579 6.80002 16.5579H15.2C15.8628 16.5579 16.4 16.0913 16.4 15.5158V8.91579H5.60002Z" fill="#262930"/>
</svg>
