<svg width="800" height="450" viewBox="0 0 800 450" fill="none" xmlns="http://www.w3.org/2000/svg">
<rect width="800" height="450" fill="url(#paint0_linear_5634_275)"/>
<path d="M429.055 192.5C426.342 203.042 418.042 211.342 407.5 214.055" stroke="#181C1F" stroke-width="5" stroke-linecap="round"/>
<path d="M392.5 155.945C381.958 158.658 373.658 166.958 370.945 177.5" stroke="#181C1F" stroke-width="5" stroke-linecap="round"/>
<path d="M429.055 177.5C426.342 166.958 418.042 158.658 407.5 155.945" stroke="#181C1F" stroke-width="5" stroke-linecap="round"/>
<path d="M392.5 214.055C381.958 211.342 373.658 203.042 370.945 192.5" stroke="#181C1F" stroke-width="5" stroke-linecap="round"/>
<path d="M370.945 257.5C373.658 246.958 381.958 238.658 392.5 235.945" stroke="#181C1F" stroke-width="5" stroke-linecap="round"/>
<path d="M407.5 235.945C416.454 238.25 423.79 244.584 427.46 252.899" stroke="#181C1F" stroke-width="5" stroke-linecap="round"/>
<path d="M447.652 277.5L452.348 282.197L462.348 272.197" stroke="#735CFF" stroke-width="5" stroke-linecap="round" stroke-linejoin="round"/>
<path fill-rule="evenodd" clip-rule="evenodd" d="M432.5 277.5C432.5 265.074 442.574 255 455 255C467.426 255 477.5 265.074 477.5 277.5C477.5 289.926 467.426 300 455 300C442.574 300 432.5 289.926 432.5 277.5ZM455 260C445.335 260 437.5 267.835 437.5 277.5C437.5 287.165 445.335 295 455 295C464.665 295 472.5 287.165 472.5 277.5C472.5 267.835 464.665 260 455 260Z" fill="#735CFF"/>
<path d="M355 155L350 156.25" stroke="#181C1F" stroke-width="5" stroke-linecap="round"/>
<path d="M331.25 175L330 180" stroke="#181C1F" stroke-width="5" stroke-linecap="round"/>
<path d="M340 161.25L336.25 165" stroke="#181C1F" stroke-width="5" stroke-linecap="round"/>
<path d="M330 190L331.25 195" stroke="#181C1F" stroke-width="5" stroke-linecap="round"/>
<path d="M350 213.75L355 215" stroke="#181C1F" stroke-width="5" stroke-linecap="round"/>
<path d="M336.25 205L340 208.75" stroke="#181C1F" stroke-width="5" stroke-linecap="round"/>
<path d="M355 235L350 236.25" stroke="#181C1F" stroke-width="5" stroke-linecap="round"/>
<path d="M331.25 255L330 260" stroke="#181C1F" stroke-width="5" stroke-linecap="round"/>
<path d="M340 241.25L336.25 245" stroke="#181C1F" stroke-width="5" stroke-linecap="round"/>
<path d="M330 292.5L330 297.5" stroke="#181C1F" stroke-width="5" stroke-linecap="round"/>
<path d="M330 272.5L330 277.5" stroke="#181C1F" stroke-width="5" stroke-linecap="round"/>
<path d="M370 297.5L370 272.5" stroke="#181C1F" stroke-width="5" stroke-linecap="round"/>
<defs>
<linearGradient id="paint0_linear_5634_275" x1="377.262" y1="3.12975e-05" x2="424.55" y2="240.166" gradientUnits="userSpaceOnUse">
<stop stop-color="#E1E8FF"/>
<stop offset="1" stop-color="white"/>
</linearGradient>
</defs>
</svg>
