<svg width="800" height="450" viewBox="0 0 800 450" fill="none" xmlns="http://www.w3.org/2000/svg">
<rect width="800" height="450" fill="url(#paint0_linear_5489_422)"/>
<path d="M329.999 272.5L329.999 290C329.999 292.761 332.238 295 334.999 295H352.499" stroke="#262930" stroke-width="5" stroke-linecap="round"/>
<path d="M470.001 272.5L470.001 290C470.001 292.761 467.762 295 465.001 295H447.501" stroke="#262930" stroke-width="5" stroke-linecap="round"/>
<path d="M329.999 217.5L329.999 200C329.999 197.239 332.238 195 334.999 195H352.499" stroke="#262930" stroke-width="5" stroke-linecap="round"/>
<path d="M367.5 295L392.5 295" stroke="#262930" stroke-width="5" stroke-linecap="round"/>
<path d="M407.5 295L432.5 295" stroke="#262930" stroke-width="5" stroke-linecap="round"/>
<path d="M470 252.5L470 257.5" stroke="#262930" stroke-width="5" stroke-linecap="round"/>
<path d="M470 232.5L470 237.5" stroke="#262930" stroke-width="5" stroke-linecap="round"/>
<path d="M330 252.5L330 257.5" stroke="#262930" stroke-width="5" stroke-linecap="round"/>
<path d="M330 232.5L330 237.5" stroke="#262930" stroke-width="5" stroke-linecap="round"/>
<path d="M407.5 155.945C418.042 158.658 426.342 166.958 429.055 177.5" stroke="#262930" stroke-width="5" stroke-linecap="round"/>
<path d="M447.5 195.945C458.042 198.658 466.342 206.958 469.055 217.5" stroke="#262930" stroke-width="5" stroke-linecap="round"/>
<path d="M330.945 177.5C333.658 166.958 341.958 158.658 352.5 155.945" stroke="#262930" stroke-width="5" stroke-linecap="round"/>
<path d="M387.5 155L392.5 155" stroke="#262930" stroke-width="5" stroke-linecap="round"/>
<path d="M367.5 155L372.5 155" stroke="#262930" stroke-width="5" stroke-linecap="round"/>
<path d="M367.5 195L392.5 195" stroke="#262930" stroke-width="5" stroke-linecap="round"/>
<path d="M407.5 195L432.5 195" stroke="#262930" stroke-width="5" stroke-linecap="round"/>
<path d="M412.5 245H407.5" stroke="#89C6DA" stroke-width="5" stroke-linecap="round"/>
<path d="M432.5 245H427.5" stroke="#89C6DA" stroke-width="5" stroke-linecap="round"/>
<path d="M372.5 245H367.5" stroke="#89C6DA" stroke-width="5" stroke-linecap="round"/>
<path d="M392.5 245H387.5" stroke="#89C6DA" stroke-width="5" stroke-linecap="round"/>
<defs>
<linearGradient id="paint0_linear_5489_422" x1="377.262" y1="3.12975e-05" x2="424.55" y2="240.166" gradientUnits="userSpaceOnUse">
<stop stop-color="#E1F3FF"/>
<stop offset="1" stop-color="white"/>
</linearGradient>
</defs>
</svg>
