<svg width="800" height="450" viewBox="0 0 800 450" fill="none" xmlns="http://www.w3.org/2000/svg">
<rect width="800" height="450" fill="url(#paint0_linear_5502_442)"/>
<path d="M329.999 232.5L329.999 250C329.999 252.761 332.238 255 334.999 255H352.499" stroke="#262930" stroke-width="5" stroke-linecap="round"/>
<path d="M352.5 194.999L335 194.999C332.239 194.999 330 197.238 330 199.999L330 217.499" stroke="#262930" stroke-width="5" stroke-linecap="round"/>
<path d="M329.999 172.5L329.999 190C329.999 192.761 332.238 195 334.999 195H352.499" stroke="#262930" stroke-width="5" stroke-linecap="round"/>
<path d="M367.5 155L392.5 155" stroke="#262930" stroke-width="5" stroke-linecap="round"/>
<path d="M407.5 155L432.5 155" stroke="#262930" stroke-width="5" stroke-linecap="round"/>
<path d="M470.001 232.5L470.001 250C470.001 252.761 467.762 255 465.001 255H447.501" stroke="#262930" stroke-width="5" stroke-linecap="round"/>
<path d="M447.5 194.999L465 194.999C467.761 194.999 470 197.238 470 199.999L470 217.499" stroke="#262930" stroke-width="5" stroke-linecap="round"/>
<path d="M470.001 172.5L470.001 190C470.001 192.761 467.762 195 465.001 195L447.501 195" stroke="#262930" stroke-width="5" stroke-linecap="round"/>
<path d="M329.999 177.5L329.999 160C329.999 157.239 332.238 155 334.999 155H352.499" stroke="#262930" stroke-width="5" stroke-linecap="round"/>
<path d="M407.5 255L432.5 255" stroke="#262930" stroke-width="5" stroke-linecap="round"/>
<path d="M367.5 255L392.5 255" stroke="#262930" stroke-width="5" stroke-linecap="round"/>
<path d="M470.001 177.5L470.001 160C470.001 157.239 467.762 155 465.001 155H447.501" stroke="#262930" stroke-width="5" stroke-linecap="round"/>
<path d="M367.5 295L392.5 295" stroke="#262930" stroke-width="5" stroke-linecap="round"/>
<path d="M407.5 295L432.5 295" stroke="#262930" stroke-width="5" stroke-linecap="round"/>
<path d="M400 272.5L400 277.5" stroke="#262930" stroke-width="5" stroke-linecap="round"/>
<path d="M372.5 175H367.5" stroke="#735CFF" stroke-width="5" stroke-linecap="round"/>
<path d="M392.5 175H387.5" stroke="#735CFF" stroke-width="5" stroke-linecap="round"/>
<path d="M412.5 175H407.5" stroke="#735CFF" stroke-width="5" stroke-linecap="round"/>
<path d="M432.5 175H427.5" stroke="#735CFF" stroke-width="5" stroke-linecap="round"/>
<path d="M352.5 175H347.5" stroke="#735CFF" stroke-width="5" stroke-linecap="round"/>
<path d="M367.5 195L392.5 195" stroke="#262930" stroke-width="5" stroke-linecap="round"/>
<path d="M407.5 195L432.5 195" stroke="#262930" stroke-width="5" stroke-linecap="round"/>
<defs>
<linearGradient id="paint0_linear_5502_442" x1="377.262" y1="3.12975e-05" x2="424.55" y2="240.166" gradientUnits="userSpaceOnUse">
<stop stop-color="#E1E8FF"/>
<stop offset="1" stop-color="white"/>
</linearGradient>
</defs>
</svg>
