<svg width="800" height="450" viewBox="0 0 800 450" fill="none" xmlns="http://www.w3.org/2000/svg">
<rect width="800" height="450" fill="url(#paint0_linear_5528_1637)"/>
<path d="M360 260L355 261.25" stroke="#F2911E" stroke-width="5" stroke-linecap="round"/>
<path d="M336.25 280L335 285" stroke="#F2911E" stroke-width="5" stroke-linecap="round"/>
<path d="M345 266.25L341.25 270" stroke="#F2911E" stroke-width="5" stroke-linecap="round"/>
<path d="M350 300L355 298.75" stroke="#F2911E" stroke-width="5" stroke-linecap="round"/>
<path d="M373.75 280L375 275" stroke="#F2911E" stroke-width="5" stroke-linecap="round"/>
<path d="M365 293.75L368.75 290" stroke="#F2911E" stroke-width="5" stroke-linecap="round"/>
<path d="M399.747 277.5C402.989 280.676 405 285.103 405 290C405 294.897 402.989 299.324 399.747 302.5" stroke="#262930" stroke-width="5" stroke-linecap="round"/>
<path d="M332.5 235.253C335.676 232.011 340.103 230 345 230C349.897 230 354.324 232.011 357.5 235.253" stroke="#262930" stroke-width="5" stroke-linecap="round"/>
<path d="M415 262.5L437.5 240" stroke="#262930" stroke-width="5" stroke-linecap="round"/>
<path d="M395 197.5L372.5 220" stroke="#262930" stroke-width="5" stroke-linecap="round"/>
<path d="M437.5 180C434.324 176.759 429.897 174.748 425 174.748C420.103 174.748 415.676 176.759 412.5 180" stroke="#262930" stroke-width="5" stroke-linecap="round"/>
<path d="M455 197.5C458.241 200.676 460.252 205.103 460.252 210C460.252 214.897 458.241 219.324 455 222.5" stroke="#262930" stroke-width="5" stroke-linecap="round"/>
<path fill-rule="evenodd" clip-rule="evenodd" d="M421.464 206.464C423.417 204.512 426.583 204.512 428.535 206.464C430.488 208.417 430.488 211.583 428.535 213.536C426.583 215.488 423.417 215.488 421.464 213.536C419.512 211.583 419.512 208.417 421.464 206.464ZM432.071 202.929C428.166 199.024 421.834 199.024 417.929 202.929C414.023 206.834 414.023 213.166 417.929 217.071C421.834 220.976 428.166 220.976 432.071 217.071C435.976 213.166 435.976 206.834 432.071 202.929Z" fill="#262930"/>
<path d="M375 262.5L377.5 260M397.5 240L395 242.5M385 252.5L387.5 250" stroke="#F2911E" stroke-width="5" stroke-linecap="round"/>
<path d="M445 182.5L467.5 160" stroke="#262930" stroke-width="5" stroke-linecap="round"/>
<path d="M352.5 170L357.5 170" stroke="#F2911E" stroke-width="5" stroke-linecap="round"/>
<path d="M332.5 170L337.5 170" stroke="#F2911E" stroke-width="5" stroke-linecap="round"/>
<path d="M345 162.5L345 157.5M345 182.5L345 177.5" stroke="#F2911E" stroke-width="5" stroke-linecap="round"/>
<defs>
<linearGradient id="paint0_linear_5528_1637" x1="377.262" y1="3.12975e-05" x2="424.55" y2="240.166" gradientUnits="userSpaceOnUse">
<stop stop-color="#FFF5D9"/>
<stop offset="1" stop-color="white"/>
</linearGradient>
</defs>
</svg>
