<svg width="800" height="450" viewBox="0 0 800 450" fill="none" xmlns="http://www.w3.org/2000/svg">
<rect width="800" height="450" fill="url(#paint0_linear_5907_9629)"/>
<path d="M342.572 214.475C368.807 210.153 389.355 188.465 393.676 162.246L395.122 149.635C395.476 147.627 394.126 144.847 391.588 145.04C371.763 146.582 353.079 153.121 342.653 157.379C337.496 159.483 334.122 164.512 334.122 170.086V211.214C334.122 213.655 336.307 215.503 338.717 215.117L342.572 214.491V214.475Z" fill="#444444"/>
<path d="M406.323 162.231C410.645 188.466 431.192 210.139 457.427 214.46L461.283 215.086C463.692 215.488 465.877 213.625 465.877 211.183V170.055C465.877 164.481 462.503 159.468 457.347 157.348C446.936 153.09 428.236 146.552 408.411 145.009C405.873 144.817 404.556 147.628 404.861 149.604L406.307 162.216L406.323 162.231Z" fill="#444444"/>
<path d="M457.409 225.978C421.567 233.047 404.923 256.872 404.923 301.984C404.923 304.249 407.172 305.807 409.052 304.554C425.535 293.437 461.81 264.423 465.554 228.115C465.698 223.537 459.979 225.689 457.409 225.978Z" fill="#444444"/>
<path d="M342.584 225.979C378.426 233.047 395.07 256.873 395.07 301.984C395.07 304.249 392.821 305.807 390.941 304.554C374.458 293.437 338.183 264.423 334.439 228.115C334.295 223.537 340.014 225.689 342.584 225.979Z" fill="#444444"/>
<defs>
<linearGradient id="paint0_linear_5907_9629" x1="377.262" y1="3.12975e-05" x2="424.55" y2="240.166" gradientUnits="userSpaceOnUse">
<stop stop-color="#F1E0F8"/>
<stop offset="0.49" stop-color="#EAF7FF"/>
<stop offset="1" stop-color="white"/>
</linearGradient>
</defs>
</svg>
