<svg width="800" height="450" viewBox="0 0 800 450" fill="none" xmlns="http://www.w3.org/2000/svg">
<rect width="800" height="450" fill="url(#paint0_linear_5975_29)"/>
<path d="M417.469 148.614L392.476 160.798V285.713C363.955 282.138 342.489 266.592 342.489 247.911C342.489 230.201 361.8 215.286 388.102 210.733V194.852C347.87 199.715 317.496 221.624 317.496 247.911C317.496 275.145 350.085 297.638 392.476 301.386L417.469 289.618V148.614ZM421.843 194.852V210.733C431.626 212.426 440.458 215.516 447.67 219.689L434.131 227.343L482.504 237.861L479.015 202.037L466.154 209.275C454.207 202.048 438.905 196.914 421.843 194.852Z" fill="#444444"/>
<defs>
<linearGradient id="paint0_linear_5975_29" x1="377.262" y1="3.12975e-05" x2="424.55" y2="240.166" gradientUnits="userSpaceOnUse">
<stop stop-color="#F1E0F8"/>
<stop offset="0.49" stop-color="#EAF7FF"/>
<stop offset="1" stop-color="white"/>
</linearGradient>
</defs>
</svg>
