<svg width="800" height="450" viewBox="0 0 800 450" fill="none" xmlns="http://www.w3.org/2000/svg">
<rect width="800" height="450" fill="url(#paint0_linear_5485_848)"/>
<path d="M367.5 155L392.5 155" stroke="#262930" stroke-width="5" stroke-linecap="round"/>
<path d="M407.5 155L432.5 155" stroke="#262930" stroke-width="5" stroke-linecap="round"/>
<path d="M329.999 177.5L329.999 160C329.999 157.239 332.238 155 334.999 155H352.499" stroke="#262930" stroke-width="5" stroke-linecap="round"/>
<path d="M470.001 177.5L470.001 160C470.001 157.239 467.762 155 465.001 155H447.501" stroke="#262930" stroke-width="5" stroke-linecap="round"/>
<path d="M330 212.5L330 217.5" stroke="#262930" stroke-width="5" stroke-linecap="round"/>
<path d="M330 192.5L330 197.5" stroke="#262930" stroke-width="5" stroke-linecap="round"/>
<path d="M470 212.5L470 217.5" stroke="#262930" stroke-width="5" stroke-linecap="round"/>
<path d="M470 192.5L470 197.5" stroke="#262930" stroke-width="5" stroke-linecap="round"/>
<path d="M329.999 272.5L329.999 290C329.999 292.761 332.238 295 334.999 295H352.499" stroke="#262930" stroke-width="5" stroke-linecap="round"/>
<path d="M470.001 272.5L470.001 290C470.001 292.761 467.762 295 465.001 295H447.501" stroke="#262930" stroke-width="5" stroke-linecap="round"/>
<path d="M367.5 295L392.5 295" stroke="#262930" stroke-width="5" stroke-linecap="round"/>
<path d="M407.5 295L432.5 295" stroke="#262930" stroke-width="5" stroke-linecap="round"/>
<path d="M470 252.5L470 257.5" stroke="#262930" stroke-width="5" stroke-linecap="round"/>
<path d="M470 232.5L470 237.5" stroke="#262930" stroke-width="5" stroke-linecap="round"/>
<path d="M330 252.5L330 257.5" stroke="#262930" stroke-width="5" stroke-linecap="round"/>
<path d="M330 232.5L330 237.5" stroke="#262930" stroke-width="5" stroke-linecap="round"/>
<path d="M420.896 177.736C439.753 185.386 453.028 203.666 453.028 225C453.028 246.334 439.753 264.614 420.896 272.264M381.41 177.736C362.553 185.386 349.278 203.666 349.278 225C349.278 246.334 362.553 264.614 381.41 272.264" stroke="#735CFF" stroke-width="5" stroke-linecap="round" stroke-dasharray="20 15"/>
<ellipse cx="401.153" cy="225" rx="24.2083" ry="51.875" stroke="#735CFF" stroke-width="5" stroke-linecap="round" stroke-dasharray="20 15"/>
<path d="M393.444 225.208H388.444" stroke="#735CFF" stroke-width="5" stroke-linecap="round"/>
<path d="M413.444 225.208H408.444" stroke="#735CFF" stroke-width="5" stroke-linecap="round"/>
<path d="M439.556 225.208H434.556" stroke="#735CFF" stroke-width="5" stroke-linecap="round"/>
<path d="M360.444 224.792L365.444 224.792" stroke="#735CFF" stroke-width="5" stroke-linecap="round"/>
<defs>
<linearGradient id="paint0_linear_5485_848" x1="377.262" y1="3.12975e-05" x2="424.55" y2="240.166" gradientUnits="userSpaceOnUse">
<stop stop-color="#E1E8FF"/>
<stop offset="1" stop-color="white"/>
</linearGradient>
</defs>
</svg>
