<svg width="800" height="450" viewBox="0 0 800 450" fill="none" xmlns="http://www.w3.org/2000/svg">
<rect width="800" height="450" fill="url(#paint0_linear_5907_9670)"/>
<path d="M373.34 149.621H420.685L371.536 295.244C371.031 296.741 370.069 298.041 368.786 298.962C367.503 299.883 365.964 300.379 364.384 300.379H327.538C326.341 300.38 325.162 300.095 324.097 299.549C323.032 299.002 322.113 298.211 321.415 297.239C320.717 296.267 320.26 295.142 320.083 293.959C319.906 292.776 320.013 291.567 320.395 290.433L366.186 154.755C366.691 153.258 367.653 151.958 368.936 151.036C370.22 150.115 371.76 149.621 373.34 149.621Z" fill="#181C1F"/>
<path d="M442.139 247.295H367.061C366.363 247.295 365.681 247.504 365.103 247.896C364.526 248.289 364.08 248.846 363.824 249.495C363.568 250.145 363.514 250.856 363.668 251.537C363.822 252.218 364.177 252.836 364.688 253.312L412.931 298.341C414.336 299.651 416.186 300.38 418.106 300.379H460.619L442.139 247.295Z" fill="#181C1F"/>
<path d="M373.34 149.621C371.743 149.614 370.185 150.119 368.895 151.061C367.606 152.003 366.651 153.332 366.17 154.855L320.452 290.31C320.044 291.447 319.916 292.667 320.078 293.865C320.241 295.063 320.69 296.204 321.387 297.192C322.084 298.18 323.009 298.985 324.083 299.54C325.157 300.095 326.349 300.383 327.558 300.379H365.355C366.763 300.128 368.079 299.507 369.168 298.581C370.258 297.654 371.082 296.455 371.556 295.106L380.673 268.237L413.239 298.612C414.604 299.741 416.316 300.365 418.087 300.379H460.441L441.865 247.295L387.714 247.308L420.856 149.621H373.34Z" fill="#444444"/>
<path d="M433.812 154.748C433.307 153.254 432.347 151.955 431.066 151.035C429.784 150.115 428.247 149.62 426.669 149.621H373.903C375.481 149.621 377.018 150.115 378.299 151.035C379.581 151.955 380.541 153.254 381.046 154.748L426.838 290.431C427.221 291.565 427.328 292.774 427.151 293.958C426.974 295.142 426.518 296.266 425.82 297.239C425.122 298.211 424.202 299.003 423.137 299.55C422.073 300.096 420.893 300.381 419.696 300.381H472.464C473.66 300.381 474.84 300.096 475.905 299.549C476.969 299.002 477.888 298.21 478.586 297.238C479.284 296.266 479.74 295.141 479.917 293.958C480.094 292.774 479.987 291.565 479.604 290.431L433.812 154.748Z" fill="#444444"/>
<defs>
<linearGradient id="paint0_linear_5907_9670" x1="377.262" y1="3.12975e-05" x2="424.55" y2="240.166" gradientUnits="userSpaceOnUse">
<stop stop-color="#F1E0F8"/>
<stop offset="0.49" stop-color="#EAF7FF"/>
<stop offset="1" stop-color="white"/>
</linearGradient>
</defs>
</svg>
