<svg width="800" height="450" viewBox="0 0 800 450" fill="none" xmlns="http://www.w3.org/2000/svg">
<rect width="800" height="450" fill="url(#paint0_linear_5907_9710)"/>
<path d="M448.679 170L464.214 166L464.33 166.17L464.722 259.973L464.214 260.483L461.013 260.62L448.861 258.728L448.679 258.25V170Z" fill="#202427"/>
<path d="M358.831 266.999L358.888 267.004L399.896 278.92L400 279L400.178 279.142L400.121 314.848L400 315L358.831 295V266.999Z" fill="#202427"/>
<path d="M448.679 258.25L400.067 269.891L375.661 264L358.831 266.999L400 279L463.54 261.797L464.214 260.483L448.679 258.25Z" fill="#444444"/>
<path d="M441.169 183L440.773 182.548L400.442 170.83L400 171L399.595 170.793L336.133 189.093L335.786 189.517L336.296 189.796L350.808 191.924L351.321 191.75L399.933 180.109L424.339 186L441.169 183Z" fill="#444444"/>
<path d="M351.321 280L335.786 283.75L335.759 283.66L335.147 190.208L335.786 189.517L351.321 191.75V280Z" fill="#444444"/>
<path d="M372.294 243.75L400 247L400.208 246.689L400.321 203.355L400 203L372.294 206.25V243.75Z" fill="#202427"/>
<path d="M427.705 243.75L400 247V203L427.705 206.25V243.75Z" fill="#444444"/>
<path d="M441.169 183L400 171V135L441.169 155V183Z" fill="#444444"/>
<path d="M400 135L322.839 172.25V277.75L335.786 283.75V189.517L400 171V135Z" fill="#202427"/>
<path d="M464.214 166V260.483L400 279V315L477.161 277.75V172.25L464.214 166Z" fill="#444444"/>
<defs>
<linearGradient id="paint0_linear_5907_9710" x1="377.262" y1="3.12975e-05" x2="424.55" y2="240.166" gradientUnits="userSpaceOnUse">
<stop stop-color="#F1E0F8"/>
<stop offset="0.49" stop-color="#EAF7FF"/>
<stop offset="1" stop-color="white"/>
</linearGradient>
</defs>
</svg>
