<svg width="800" height="450" viewBox="0 0 800 450" fill="none" xmlns="http://www.w3.org/2000/svg">
<rect width="800" height="450" fill="url(#paint0_linear_5907_9750)"/>
<path d="M508.642 267.056C492.989 267.056 481.956 254.842 481.956 238.779C481.956 222.716 492.989 210.502 508.642 210.502C524.294 210.502 535.019 222.716 535.019 238.779C535.019 254.842 524.14 267.056 508.642 267.056ZM506.127 283.888C518.751 283.888 529.477 278.962 536.251 268.647C537.534 278.654 544.77 282.297 553.905 282.297H561.192V266.44H558.061C552.878 266.44 551.595 263.925 551.595 258.024V195.312H534.865V208.193C529.169 199.161 518.443 193.721 506.127 193.721C484.163 193.721 463.994 212.145 463.994 238.779C463.994 265.414 484.214 283.837 506.127 283.837V283.888ZM419.963 262.129C419.963 276.396 428.79 282.297 439.361 282.297H459.735V266.44H444.904C438.745 266.44 437.462 264.079 437.462 258.024V211.17H459.735V195.312H437.462V166.112H419.963V262.129ZM340.265 282.297H357.764V244.989H363.615L393.431 282.297H415.549L377.522 234.981L406.723 195.312H387.016L363.153 228.823H357.764V166.112H340.265V282.297ZM283.455 193.721C258.976 193.721 238.808 212.145 238.808 238.779C238.808 265.414 259.027 283.837 283.455 283.837C307.883 283.837 328.102 265.414 328.102 238.779C328.102 212.145 307.883 193.721 283.455 193.721ZM283.455 267.056C267.803 267.056 256.769 254.842 256.769 238.779C256.769 222.716 267.803 210.502 283.455 210.502C299.107 210.502 310.141 222.716 310.141 238.779C310.141 254.842 299.107 267.056 283.455 267.056Z" fill="#444444"/>
<defs>
<linearGradient id="paint0_linear_5907_9750" x1="377.262" y1="3.12975e-05" x2="424.55" y2="240.166" gradientUnits="userSpaceOnUse">
<stop stop-color="#F1E0F8"/>
<stop offset="0.49" stop-color="#EAF7FF"/>
<stop offset="1" stop-color="white"/>
</linearGradient>
</defs>
</svg>
