<svg width="800" height="450" viewBox="0 0 800 450" fill="none" xmlns="http://www.w3.org/2000/svg">
<rect width="800" height="450" fill="url(#paint0_linear_5907_9790)"/>
<path d="M408.032 230.621L433.295 216.081C433.337 216.057 433.383 216.031 433.432 216.003C433.913 215.731 434.715 215.277 435.29 214.555C435.578 214.194 435.81 213.792 435.98 213.362C436.319 212.504 436.312 211.582 436.308 211.029C436.307 210.973 436.307 210.92 436.307 210.872C436.307 210.824 436.307 210.771 436.308 210.715C436.312 210.162 436.319 209.24 435.98 208.382C435.81 207.953 435.578 207.55 435.29 207.189C434.715 206.467 433.913 206.013 433.432 205.741C433.383 205.714 433.337 205.688 433.295 205.664L408.028 191.121L407.933 191.066C407.108 190.591 406.323 190.139 405.617 189.82C404.827 189.464 403.943 189.179 402.907 189.18C401.87 189.18 400.986 189.465 400.197 189.822C399.491 190.142 398.707 190.594 397.882 191.07L397.787 191.125L375.609 203.912L375.498 203.976C373.07 205.376 371.084 206.521 369.533 207.615C367.913 208.757 366.598 209.957 365.594 211.548C365.4 211.855 365.219 212.169 365.05 212.49C364.173 214.154 363.791 215.893 363.61 217.867C363.437 219.757 363.437 222.049 363.437 224.852L363.438 224.98L363.437 225.109C363.437 227.908 363.437 230.197 363.61 232.085C363.79 234.057 364.171 235.794 365.046 237.457C365.215 237.777 365.396 238.091 365.589 238.398C366.591 239.988 367.904 241.187 369.521 242.33C371.069 243.424 373.051 244.57 375.474 245.971L375.585 246.035L394.053 256.711L394.166 256.776C395.887 257.771 397.352 258.618 398.637 259.201C400.006 259.822 401.369 260.24 402.907 260.241C404.445 260.241 405.808 259.824 407.178 259.204C408.463 258.622 409.929 257.776 411.65 256.782L411.763 256.717L434.245 243.74L434.34 243.685C435.167 243.208 435.953 242.755 436.584 242.303C437.289 241.797 437.98 241.173 438.499 240.274C439.019 239.374 439.214 238.464 439.299 237.601C439.375 236.828 439.375 235.92 439.375 234.966L439.375 234.856V225.028V223.284C439.375 223.24 439.375 223.193 439.376 223.142C439.379 222.645 439.385 221.82 439.111 221.041C438.911 220.47 438.602 219.944 438.201 219.491C437.653 218.873 436.93 218.476 436.495 218.237C436.45 218.212 436.409 218.19 436.371 218.168C436.334 218.148 436.294 218.125 436.251 218.101C435.833 217.864 435.139 217.471 434.351 217.327C433.773 217.221 433.181 217.225 432.605 217.338C431.819 217.493 431.13 217.896 430.715 218.139C430.673 218.163 430.633 218.187 430.597 218.208L403.36 233.884C403.178 233.989 403.033 234.072 402.906 234.143C402.78 234.072 402.635 233.989 402.453 233.884L382.63 222.491C382.594 222.471 382.558 222.45 382.521 222.428C381.999 222.128 381.367 221.764 380.797 221.54C380.163 221.291 378.84 220.903 377.479 221.695C376.117 222.488 375.802 223.83 375.705 224.504C375.619 225.11 375.623 225.84 375.627 226.442C375.627 226.485 375.627 226.527 375.628 226.568L375.636 228.206C375.636 228.232 375.637 228.26 375.637 228.287C375.639 228.736 375.642 229.251 375.689 229.706C375.745 230.25 375.88 230.917 376.274 231.595C376.668 232.273 377.18 232.721 377.624 233.04C377.996 233.306 378.443 233.564 378.831 233.788C378.855 233.802 378.878 233.815 378.902 233.829L399.639 245.813C399.662 245.826 399.686 245.84 399.71 245.854C400.101 246.08 400.55 246.34 400.969 246.53C401.47 246.757 402.117 246.977 402.907 246.978C403.696 246.978 404.344 246.758 404.845 246.531C405.264 246.341 405.714 246.081 406.105 245.855L406.175 245.814L427.633 233.43V233.999L405.227 246.931C404.271 247.483 403.727 247.793 403.303 247.985C403.113 248.071 403.006 248.105 402.953 248.119C402.928 248.126 402.915 248.127 402.912 248.128L402.909 248.128L402.906 248.128C402.905 248.128 402.901 248.127 402.896 248.126C402.889 248.125 402.879 248.123 402.865 248.119C402.812 248.105 402.705 248.071 402.515 247.985C402.091 247.793 401.548 247.482 400.592 246.929L379.76 234.88C378.3 234.035 377.366 233.492 376.682 233.009C376.042 232.557 375.793 232.274 375.642 232.037C375.588 231.952 375.538 231.865 375.491 231.775C375.361 231.526 375.241 231.169 375.17 230.389C375.095 229.554 375.092 228.474 375.092 226.788V223.574C375.092 223.428 375.092 223.394 375.093 223.366C375.117 222.158 375.757 221.047 376.789 220.42C376.813 220.406 376.843 220.388 376.969 220.315C377.082 220.249 377.105 220.236 377.123 220.226C377.957 219.764 378.97 219.763 379.805 220.224C379.823 220.234 379.846 220.247 379.959 220.312L397.782 230.612L397.877 230.667C398.703 231.144 399.488 231.598 400.194 231.918C400.983 232.276 401.868 232.562 402.906 232.563C403.943 232.564 404.828 232.28 405.618 231.923C406.325 231.604 407.111 231.151 407.937 230.676L408.032 230.621Z" stroke="#202427" stroke-width="5.625"/>
<path d="M318.438 191.25L321.25 194.063M343.75 216.563L340.937 213.75M329.687 202.5L332.5 205.313" stroke="#3F89A1" stroke-width="5.625" stroke-linecap="round"/>
<path d="M318.438 236.25L321.25 239.063M343.75 261.563L340.937 258.75M329.687 247.5L332.5 250.313" stroke="#3F89A1" stroke-width="5.625" stroke-linecap="round"/>
<path d="M318.438 281.25L321.25 284.063M343.75 306.563L340.937 303.75M329.687 292.5L332.5 295.313" stroke="#3F89A1" stroke-width="5.625" stroke-linecap="round"/>
<path d="M408.438 281.25L411.25 284.063M433.75 306.563L430.937 303.75M419.687 292.5L422.5 295.313" stroke="#3F89A1" stroke-width="5.625" stroke-linecap="round"/>
<path d="M363.438 281.25L366.25 284.063M388.75 306.563L385.937 303.75M374.687 292.5L377.5 295.313" stroke="#3F89A1" stroke-width="5.625" stroke-linecap="round"/>
<path d="M481.562 258.75L478.75 255.937M456.25 233.437L459.063 236.25M470.313 247.5L467.5 244.687" stroke="#3F89A1" stroke-width="5.625" stroke-linecap="round"/>
<path d="M481.562 213.75L478.75 210.937M456.25 188.437L459.063 191.25M470.313 202.5L467.5 199.687" stroke="#3F89A1" stroke-width="5.625" stroke-linecap="round"/>
<path d="M481.562 168.75L478.75 165.937M456.25 143.437L459.063 146.25M470.313 157.5L467.5 154.687" stroke="#3F89A1" stroke-width="5.625" stroke-linecap="round"/>
<path d="M436.562 168.75L433.75 165.937M411.25 143.437L414.063 146.25M425.313 157.5L422.5 154.687" stroke="#3F89A1" stroke-width="5.625" stroke-linecap="round"/>
<path d="M391.562 168.75L388.75 165.937M366.25 143.437L369.063 146.25M380.313 157.5L377.5 154.687" stroke="#3F89A1" stroke-width="5.625" stroke-linecap="round"/>
<path d="M346.562 168.75L343.75 165.937M321.25 143.437L324.063 146.25M335.313 157.5L332.5 154.687" stroke="#3F89A1" stroke-width="5.625" stroke-linecap="round"/>
<path d="M481.562 303.75L478.75 300.937M456.25 278.437L459.063 281.25M470.313 292.5L467.5 289.687" stroke="#3F89A1" stroke-width="5.625" stroke-linecap="round"/>
<defs>
<linearGradient id="paint0_linear_5907_9790" x1="377.262" y1="3.12975e-05" x2="424.55" y2="240.166" gradientUnits="userSpaceOnUse">
<stop stop-color="#F1E0F8"/>
<stop offset="0.49" stop-color="#EAF7FF"/>
<stop offset="1" stop-color="white"/>
</linearGradient>
</defs>
</svg>
