<svg width="800" height="450" viewBox="0 0 800 450" fill="none" xmlns="http://www.w3.org/2000/svg">
<rect width="800" height="450" fill="url(#paint0_linear_5499_501)"/>
<path d="M387.363 227.842C395.198 232.369 399.115 234.633 403.418 234.637C407.721 234.641 411.643 232.384 419.485 227.87L469.373 199.157C471.628 197.859 473.019 195.454 473.019 192.851V192.851C473.019 190.249 471.628 187.844 469.373 186.546L419.467 157.822C411.633 153.313 407.716 151.059 403.417 151.061C399.118 151.062 395.203 153.32 387.372 157.835L344.494 182.558C344.146 182.759 343.972 182.859 343.81 182.955C329.176 191.545 320.134 207.196 320.001 224.165C320 224.353 320 224.554 320 224.956V224.956C320 225.357 320 225.558 320.001 225.745C320.133 242.695 329.155 258.331 343.763 266.929C343.925 267.024 344.099 267.124 344.446 267.325L371.261 282.827C386.954 291.899 394.8 296.435 403.418 296.438C412.036 296.441 419.885 291.91 435.583 282.849L463.923 266.491C471.769 261.962 475.692 259.698 477.846 255.968C480 252.237 480 247.708 480 238.648V225.063V221.094C480 218.582 478.64 216.267 476.447 215.044V215.044C474.32 213.858 471.727 213.876 469.617 215.09L411.429 248.581C407.518 250.832 405.562 251.958 403.416 251.958C401.269 251.959 399.313 250.835 395.401 248.586L356.031 225.959C354.053 224.821 353.063 224.253 352.269 224.15C350.462 223.918 348.726 224.929 348.036 226.615C347.733 227.356 347.739 228.497 347.751 230.78V230.78C347.76 232.458 347.765 233.297 347.922 234.069C348.272 235.792 349.179 237.353 350.501 238.512C351.094 239.031 351.821 239.451 353.274 240.29L395.378 264.622C399.301 266.889 401.262 268.023 403.416 268.023C405.571 268.024 407.533 266.891 411.456 264.627L463.066 234.839C464.405 234.066 465.075 233.68 465.577 233.97C466.079 234.26 466.079 235.033 466.079 236.58V244.533C466.079 246.798 466.079 247.931 465.541 248.863C465.002 249.796 464.022 250.362 462.06 251.494L419.504 276.056C411.653 280.588 407.727 282.853 403.417 282.851C399.107 282.849 395.184 280.58 387.337 276.042L347.538 253.022C347.395 252.939 347.323 252.898 347.256 252.859C338.92 247.974 333.776 239.056 333.721 229.394C333.72 229.316 333.72 229.233 333.72 229.068V221.756C333.72 216.418 336.562 211.483 341.179 208.804V208.804C345.265 206.432 350.308 206.428 354.399 208.792L387.363 227.842Z" stroke="#181C1F" stroke-width="4.776"/>
<defs>
<linearGradient id="paint0_linear_5499_501" x1="377.262" y1="3.12975e-05" x2="424.55" y2="240.166" gradientUnits="userSpaceOnUse">
<stop stop-color="#E1F3FF"/>
<stop offset="1" stop-color="white"/>
</linearGradient>
</defs>
</svg>
