<svg width="800" height="450" viewBox="0 0 800 450" fill="none" xmlns="http://www.w3.org/2000/svg">
<rect width="800" height="450" fill="url(#paint0_linear_5528_1498)"/>
<path d="M429.055 192.5C426.342 203.042 418.042 211.342 407.5 214.055" stroke="#F2911E" stroke-width="5" stroke-linecap="round"/>
<path d="M392.5 155.945C381.958 158.658 373.658 166.958 370.945 177.5" stroke="#F2911E" stroke-width="5" stroke-linecap="round"/>
<path d="M429.055 177.5C426.342 166.958 418.042 158.658 407.5 155.945" stroke="#F2911E" stroke-width="5" stroke-linecap="round"/>
<path d="M392.5 214.055C381.958 211.342 373.658 203.042 370.945 192.5" stroke="#F2911E" stroke-width="5" stroke-linecap="round"/>
<path d="M370.945 257.5C373.658 246.958 381.958 238.658 392.5 235.945" stroke="#F2911E" stroke-width="5" stroke-linecap="round"/>
<path d="M429.055 257.5C426.342 246.958 418.042 238.658 407.5 235.945" stroke="#F2911E" stroke-width="5" stroke-linecap="round"/>
<path d="M369.999 272.5L369.999 290C369.999 292.761 372.238 295 374.999 295H392.499" stroke="#F2911E" stroke-width="5" stroke-linecap="round"/>
<path d="M347.5 165L352.5 165" stroke="#262930" stroke-width="5" stroke-linecap="round"/>
<path d="M327.5 165L332.5 165" stroke="#262930" stroke-width="5" stroke-linecap="round"/>
<path d="M340 157.5L340 152.5M340 177.5L340 172.5" stroke="#262930" stroke-width="5" stroke-linecap="round"/>
<path d="M452.5 295L442.5 285L452.5 275" stroke="#262930" stroke-width="5" stroke-linecap="round"/>
<path d="M467.5 295L477.5 285L467.5 275" stroke="#262930" stroke-width="5" stroke-linecap="round"/>
<defs>
<linearGradient id="paint0_linear_5528_1498" x1="377.262" y1="3.12975e-05" x2="424.55" y2="240.166" gradientUnits="userSpaceOnUse">
<stop stop-color="#FFF5D9"/>
<stop offset="1" stop-color="white"/>
</linearGradient>
</defs>
</svg>
