<svg width="16" height="16" viewBox="0 0 16 16" fill="none" xmlns="http://www.w3.org/2000/svg">
<path d="M5.75002 2.4C5.14251 2.4 4.65002 2.89249 4.65002 3.5C4.65002 4.10751 5.14251 4.6 5.75002 4.6C6.35754 4.6 6.85002 4.10751 6.85002 3.5C6.85002 2.89249 6.35754 2.4 5.75002 2.4Z" fill="#656973"/>
<path d="M5.75002 6.9C5.14251 6.9 4.65002 7.39249 4.65002 8C4.65002 8.60751 5.14251 9.1 5.75002 9.1C6.35754 9.1 6.85002 8.60751 6.85002 8C6.85002 7.39249 6.35754 6.9 5.75002 6.9Z" fill="#656973"/>
<path d="M5.75002 11.4C5.14251 11.4 4.65002 11.8925 4.65002 12.5C4.65002 13.1075 5.14251 13.6 5.75002 13.6C6.35754 13.6 6.85002 13.1075 6.85002 12.5C6.85002 11.8925 6.35754 11.4 5.75002 11.4Z" fill="#656973"/>
<path d="M10.25 2.4C9.64251 2.4 9.15002 2.89249 9.15002 3.5C9.15002 4.10751 9.64251 4.6 10.25 4.6C10.8575 4.6 11.35 4.10751 11.35 3.5C11.35 2.89249 10.8575 2.4 10.25 2.4Z" fill="#656973"/>
<path d="M10.25 6.9C9.64251 6.9 9.15002 7.39249 9.15002 8C9.15002 8.60751 9.64251 9.1 10.25 9.1C10.8575 9.1 11.35 8.60751 11.35 8C11.35 7.39249 10.8575 6.9 10.25 6.9Z" fill="#656973"/>
<path d="M10.25 11.4C9.64251 11.4 9.15002 11.8925 9.15002 12.5C9.15002 13.1075 9.64251 13.6 10.25 13.6C10.8575 13.6 11.35 13.1075 11.35 12.5C11.35 11.8925 10.8575 11.4 10.25 11.4Z" fill="#656973"/>
</svg>
