<svg width="22" height="22" viewBox="0 0 22 22" fill="none" xmlns="http://www.w3.org/2000/svg">
<rect x="0.5" y="0.5" width="21" height="21" rx="1.5" fill="white"/>
<rect x="0.5" y="0.5" width="21" height="21" rx="1.5" stroke="#EAEBEE"/>
<path fill-rule="evenodd" clip-rule="evenodd" d="M12.6041 5.87801C13.6195 4.86265 15.2657 4.86264 16.2811 5.87801L16.6347 6.23156C17.65 7.24692 17.65 8.89315 16.6347 9.90852L10.2319 16.3113C9.86535 16.6778 9.39758 16.9264 8.88867 17.0252L5.54129 17.6747C5.34555 17.7127 5.14373 17.6509 5.00274 17.5099C4.86175 17.3689 4.80001 17.1671 4.83799 16.9714L5.48748 13.624C5.58623 13.1151 5.83484 12.6473 6.2014 12.2807L12.6041 5.87801ZM15.4326 6.72654C14.8858 6.1798 13.9994 6.1798 13.4527 6.72654L7.51297 12.6662L9.84642 14.9997L15.7861 9.05999C16.3329 8.51325 16.3329 7.62682 15.7861 7.08009L15.4326 6.72654ZM8.91976 15.7701L6.74258 13.5929C6.70872 13.6764 6.68283 13.7633 6.66551 13.8526L6.18533 16.3273L8.6601 15.8471C8.74938 15.8298 8.8363 15.8039 8.91976 15.7701Z" fill="#262930"/>
</svg>
