<svg width="16" height="16" viewBox="0 0 16 16" fill="none" xmlns="http://www.w3.org/2000/svg">
<path fill-rule="evenodd" clip-rule="evenodd" d="M9.60414 2.87801C10.6195 1.86265 12.2657 1.86264 13.2811 2.87801L13.6347 3.23156C14.65 4.24692 14.65 5.89315 13.6347 6.90852L7.23191 13.3113C6.86535 13.6778 6.39758 13.9264 5.88867 14.0252L2.54129 14.6747C2.34555 14.7127 2.14373 14.6509 2.00274 14.5099C1.86175 14.3689 1.80001 14.1671 1.83799 13.9714L2.48748 10.624C2.58623 10.1151 2.83484 9.64731 3.2014 9.28075L9.60414 2.87801ZM12.4326 3.72654C11.8858 3.1798 10.9994 3.1798 10.4527 3.72654L4.51297 9.66624L6.84642 11.9997L12.7861 6.05999C13.3329 5.51325 13.3329 4.62682 12.7861 4.08009L12.4326 3.72654ZM5.91976 12.7701L3.74258 10.5929C3.70872 10.6764 3.68283 10.7633 3.66551 10.8526L3.18533 13.3273L5.6601 12.8471C5.74938 12.8298 5.8363 12.8039 5.91976 12.7701Z" fill="#656973"/>
</svg>
