<svg fill="none" height="22" viewBox="0 0 22 22" width="22" xmlns="http://www.w3.org/2000/svg"><rect fill="#fff" height="21" rx="1.5" width="21" x=".5" y=".5"/><rect height="21" rx="1.5" stroke="#eaebee" width="21" x=".5" y=".5"/><g stroke="#262930" stroke-linejoin="round" stroke-width="1.2"><path d="m15.8916 4.06265c.0294-.08355.1476-.08352.1769.00002.1705.48513.2754.78379.4475 1.04053.1523.22722.3418.42713.5606.5913.2473.1855.5399.30618 1.0153.50221.0842.03471.0842.15389 0 .1886-.4754.19603-.768.31672-1.0153.50221-.2188.16417-.4083.36408-.5606.5913-.1721.25674-.277.55541-.4475 1.04055-.0293.08354-.1475.08355-.1769.00001-.1704-.48515-.2754-.78381-.4474-1.04056-.1523-.22722-.3419-.42713-.5607-.5913-.2472-.1855-.5399-.30618-1.0153-.50221-.0841-.03471-.0841-.1539.0001-.18861.4753-.19603.768-.31671 1.0152-.5022.2188-.16417.4084-.36408.5607-.5913.172-.25674.277-.55541.4474-1.04055z"/><path d="m6.5625 11.7851 3.701 2.1368c.6188.3572 1.3812.3572 2 0l4.9865-2.879c.3333-.1924.75.0481.75.433v1.8018c0 .1786-.0953.3437-.25.433l-5.4865 3.1677c-.6188.3572-1.3812.3572-2 0l-3.701-2.1368c-.85417-.4438-2.5625-1.8096-2.5625-3.7221m0 0c0-1.3747.84765-2.03252 1.62903-2.30248.52523-.18147 1.08674-.01133 1.56798.26651l3.06649 1.77047c.6188.3572 1.3812.3572 2 0l1.646-.95038m-9.9095 1.21588c0-1.525 1.03973-2.71219 1.5596-3.11516l4.8198-2.78269c.4107-.23716.8848-.31689 1.3381-.23919" stroke-linecap="round"/></g></svg>