<svg width="22" height="22" viewBox="0 0 22 22" fill="none" xmlns="http://www.w3.org/2000/svg">
<rect x="0.5" y="0.5" width="21" height="21" rx="1.5" fill="white"/>
<rect x="0.5" y="0.5" width="21" height="21" rx="1.5" stroke="#EAEBEE"/>
<g clip-path="url(#clip0_5644_3306)">
<path d="M9.01185 4.91891C7.88776 5.28631 6.93555 5.93446 6.20624 6.76041L7.77917 6.4882C8.10568 6.43169 8.42 6.64989 8.48122 6.97556C8.54243 7.30123 8.32736 7.61104 8.00084 7.66755L5.14998 8.16092C4.82347 8.21742 4.50915 7.99923 4.44793 7.67356L3.9179 4.85372C3.85668 4.52805 4.07175 4.21824 4.39827 4.16173C4.72479 4.10522 5.03911 4.32342 5.10032 4.64909L5.3407 5.92793C6.20291 4.96465 7.32284 4.20848 8.63905 3.77829C9.54698 3.48153 10.4719 3.36493 11.3742 3.40954C11.3881 3.41023 11.4019 3.41138 11.4155 3.41299C12.5675 3.4751 13.7148 3.79952 14.7622 4.39773C15.5614 4.8521 16.2843 5.45473 16.8848 6.19042C17.1078 6.4627 17.3097 6.74802 17.4901 7.04391C17.4937 7.04986 17.4972 7.05584 17.5006 7.06186C17.8493 7.63613 18.1246 8.26182 18.3126 8.92669C18.4303 9.3395 18.5113 9.75723 18.557 10.1756C18.5583 10.188 18.5593 10.2004 18.5599 10.2127C18.6333 10.9097 18.6108 11.6213 18.4854 12.3274C18.4348 12.6144 18.3679 12.8963 18.2857 13.1722C18.2823 13.1838 18.2785 13.1952 18.2744 13.2065C18.1626 13.5738 18.0215 13.9373 17.8502 14.2939C17.4365 15.1549 16.8809 15.9035 16.2246 16.5242L16.2142 16.5339C15.4242 17.2794 14.4613 17.8666 13.3612 18.2262C12.1545 18.6206 10.9191 18.6964 9.74724 18.4997C8.85475 18.3513 7.97917 18.0416 7.16578 17.5651C6.42802 17.1349 5.75729 16.5773 5.19046 15.9044C4.57689 15.1786 4.11681 14.3566 3.81677 13.4867C3.41769 12.3372 3.31123 11.1387 3.46785 9.98543C3.51245 9.65707 3.81479 9.42704 4.14314 9.47163C4.4715 9.51623 4.70153 9.81857 4.65694 10.1469C4.53383 11.0534 4.60359 11.9924 4.88714 12.9011C4.88964 12.9082 4.89202 12.9153 4.89428 12.9225C4.91129 12.9768 4.92902 13.0308 4.94748 13.0847C5.04557 13.3685 5.16484 13.6489 5.30597 13.9239C5.53187 14.3642 5.80157 14.767 6.10703 15.1298C6.39376 15.469 6.72043 15.7833 7.08626 16.0661C7.30975 16.2388 7.54099 16.3944 7.7784 16.5332C7.85008 16.5748 7.92251 16.6151 7.99565 16.6538C8.00358 16.6581 8.01139 16.6624 8.01906 16.6669C8.3748 16.8547 8.74284 17.006 9.11822 17.1213C9.13095 17.1243 9.14366 17.1277 9.15635 17.1315C9.41413 17.2093 9.67733 17.2711 9.94445 17.316C10.1888 17.3566 10.4347 17.3829 10.6808 17.3949C10.6934 17.3955 10.7059 17.3965 10.7183 17.3979C11.4666 17.431 12.2336 17.3322 12.9884 17.0855C14.2817 16.6628 15.3474 15.8686 16.1079 14.8594C16.1133 14.8523 16.1188 14.8454 16.1244 14.8386C16.3685 14.5117 16.5849 14.1564 16.7686 13.7742C17.0284 13.2335 17.2054 12.6748 17.3048 12.1122C17.3949 11.598 17.4232 11.064 17.3818 10.5185C17.3485 10.0796 17.2718 9.65454 17.1562 9.24717C17.0429 8.85164 16.8896 8.46106 16.6943 8.08053C16.544 7.78762 16.3744 7.51129 16.1877 7.25228C16.1152 7.15223 16.0399 7.05441 15.9619 6.95893C15.9553 6.9508 15.9489 6.94255 15.9428 6.93418C15.6444 6.57244 15.3012 6.23783 14.9139 5.93848C14.6709 5.75066 14.4187 5.58307 14.1594 5.43544C14.1082 5.40644 14.0566 5.37816 14.0047 5.3506C13.9979 5.34702 13.9913 5.34334 13.9847 5.33954C13.1433 4.89466 12.2329 4.65437 11.3193 4.60963C11.3062 4.60898 11.2931 4.60792 11.2802 4.60646C10.533 4.5736 9.76667 4.6722 9.01185 4.91891Z" fill="#262930"/>
<path d="M11.6 7.00001C11.6 6.66864 11.3314 6.40001 11 6.40001C10.6687 6.40001 10.4 6.66864 10.4 7.00001V11.281L13.6159 13.9609C13.8705 14.1731 14.2488 14.1387 14.461 13.8841C14.6731 13.6296 14.6387 13.2512 14.3841 13.0391L11.6 10.719V7.00001Z" fill="#262930"/>
</g>
<defs>
<clipPath id="clip0_5644_3306">
<rect width="16" height="16" fill="white" transform="translate(3 3)"/>
</clipPath>
</defs>
</svg>
