<svg width="800" height="450" viewBox="0 0 800 450" fill="none" xmlns="http://www.w3.org/2000/svg">
<rect width="800" height="450" fill="url(#paint0_linear_6312_5656)"/>
<path d="M447.5 174.055C458.042 171.342 466.342 163.042 469.055 152.5" stroke="white" stroke-width="5" stroke-linecap="round"/>
<path d="M356.25 175L351.25 176.25" stroke="white" stroke-width="5" stroke-linecap="round"/>
<path d="M331.25 196.25L330 201.25" stroke="white" stroke-width="5" stroke-linecap="round"/>
<path d="M340.001 181.25L336.251 185" stroke="white" stroke-width="5" stroke-linecap="round"/>
<path d="M315 217.5C315 213.358 318.358 210 322.5 210L337.5 210C341.642 210 345 213.358 345 217.5L345 232.5C345 236.642 341.642 240 337.5 240L322.5 240C318.358 240 315 236.642 315 232.5L315 217.5ZM320 232.5C320 233.881 321.119 235 322.5 235L337.5 235C338.881 235 340 233.881 340 232.5L340 217.5C340 216.119 338.881 215 337.5 215L322.5 215C321.119 215 320 216.119 320 217.5L320 232.5Z" fill="white"/>
<path d="M352.5 225L342.5 225" stroke="white" stroke-width="5" stroke-linecap="round"/>
<path d="M317.5 225L307.5 225" stroke="white" stroke-width="5" stroke-linecap="round"/>
<path d="M355 275L350 273.75" stroke="white" stroke-width="5" stroke-linecap="round"/>
<path d="M331.25 255L330 250" stroke="white" stroke-width="5" stroke-linecap="round"/>
<path d="M340 268.75L336.25 265" stroke="white" stroke-width="5" stroke-linecap="round"/>
<path d="M475 225C475 223.619 473.881 222.5 472.5 222.5L469.686 222.5C468.575 218.187 464.66 215 460 215C455.34 215 451.426 218.187 450.315 222.5L447.5 222.5C446.119 222.5 445 223.619 445 225C445 226.381 446.119 227.5 447.5 227.5L450.315 227.5C451.426 231.813 455.34 235 460 235C464.66 235 468.575 231.813 469.686 227.5L472.5 227.5C473.881 227.5 475 226.381 475 225ZM465 225C465 227.761 462.761 230 460 230C457.239 230 455 227.761 455 225C455 222.239 457.239 220 460 220C462.761 220 465 222.239 465 225Z" fill="white"/>
<path d="M367.5 175L392.5 175" stroke="white" stroke-width="5" stroke-linecap="round"/>
<path d="M372.5 225H367.5" stroke="white" stroke-width="5" stroke-linecap="round"/>
<path d="M392.5 225H387.5" stroke="white" stroke-width="5" stroke-linecap="round"/>
<path d="M412.5 225H407.5" stroke="white" stroke-width="5" stroke-linecap="round"/>
<path d="M432.5 225H427.5" stroke="white" stroke-width="5" stroke-linecap="round"/>
<path d="M435 175C435 176.381 433.881 177.5 432.5 177.5L422.5 177.5L422.5 187.5C422.5 188.881 421.381 190 420 190C418.619 190 417.5 188.881 417.5 187.5L417.5 177.5L407.5 177.5C406.119 177.5 405 176.381 405 175C405 173.619 406.119 172.5 407.5 172.5L417.5 172.5L417.5 162.5C417.5 161.119 418.619 160 420 160C421.381 160 422.5 161.119 422.5 162.5L422.5 172.5L432.5 172.5C433.881 172.5 435 173.619 435 175Z" fill="white"/>
<path d="M387.5 275L392.5 275" stroke="white" stroke-width="5" stroke-linecap="round"/>
<path d="M367.5 275L372.5 275" stroke="white" stroke-width="5" stroke-linecap="round"/>
<path d="M407.5 275L432.5 275" stroke="white" stroke-width="5" stroke-linecap="round"/>
<path d="M447.5 275.945C458.042 278.658 466.342 286.958 469.055 297.5" stroke="white" stroke-width="5" stroke-linecap="round"/>
<defs>
<linearGradient id="paint0_linear_6312_5656" x1="795.549" y1="7.11824e-06" x2="-34.1589" y2="361.346" gradientUnits="userSpaceOnUse">
<stop offset="0.518302" stop-color="#262930"/>
<stop offset="1" stop-color="#3F424A"/>
</linearGradient>
</defs>
</svg>
