<svg width="22" height="22" viewBox="0 0 22 22" fill="none" xmlns="http://www.w3.org/2000/svg">
<rect x="0.5" y="0.5" width="21" height="21" rx="1.5" fill="white"/>
<rect x="0.5" y="0.5" width="21" height="21" rx="1.5" stroke="#EAEBEE"/>
<g clip-path="url(#clip0_5640_3286)">
<path fill-rule="evenodd" clip-rule="evenodd" d="M4.59999 16.0554C4.59999 16.4808 4.98522 16.9 5.55574 16.9H7.19137V5.09999H5.55574C5.2885 5.09999 5.04034 5.19898 4.86393 5.36279C4.68903 5.5252 4.59999 5.73556 4.59999 5.94462V16.0554ZM3.39999 16.0554C3.39999 17.2257 4.40777 18.1 5.55574 18.1H16.4442C17.5922 18.1 18.6 17.2257 18.6 16.0554V5.94462C18.6 4.77427 17.5922 3.89999 16.4442 3.89999H5.55574C4.99776 3.89999 4.4545 4.1054 4.04739 4.48344C3.63878 4.86286 3.39999 5.3874 3.39999 5.94462V16.0554ZM8.39137 5.09999V16.9H16.4442C17.0148 16.9 17.4 16.4808 17.4 16.0554V5.94462C17.4 5.51921 17.0148 5.09999 16.4442 5.09999H8.39137ZM14.5831 10.8169C14.7393 10.9731 14.7393 11.2264 14.5831 11.3827L12.1829 13.7828C12.0685 13.8972 11.8964 13.9315 11.7469 13.8695C11.5975 13.8076 11.5 13.6618 11.5 13.5V8.69963C11.5 8.53783 11.5975 8.39196 11.7469 8.33005C11.8964 8.26813 12.0685 8.30236 12.1829 8.41676L14.5831 10.8169Z" fill="#262930"/>
</g>
<defs>
<clipPath id="clip0_5640_3286">
<rect width="16" height="16" fill="white" transform="translate(3 3)"/>
</clipPath>
</defs>
</svg>
