<svg width="800" height="450" viewBox="0 0 800 450" fill="none" xmlns="http://www.w3.org/2000/svg">
<rect width="800" height="450" fill="url(#paint0_linear_5573_1958)"/>
<path d="M396.25 175L391.25 176.25" stroke="#262930" stroke-width="5" stroke-linecap="round"/>
<path d="M371.25 196.25L370 201.25" stroke="#262930" stroke-width="5" stroke-linecap="round"/>
<path d="M380.001 181.25L376.251 185" stroke="#262930" stroke-width="5" stroke-linecap="round"/>
<path d="M395 275L390 273.75" stroke="#262930" stroke-width="5" stroke-linecap="round"/>
<path d="M371.25 255L370 250" stroke="#262930" stroke-width="5" stroke-linecap="round"/>
<path d="M380 268.75L376.25 265" stroke="#262930" stroke-width="5" stroke-linecap="round"/>
<path fill-rule="evenodd" clip-rule="evenodd" d="M447.5 227.5C446.119 227.5 445 226.381 445 225C445 223.619 446.119 222.5 447.5 222.5L450.315 222.5C451.425 218.187 455.34 215 460 215C464.66 215 468.575 218.187 469.685 222.5L472.5 222.5C473.881 222.5 475 223.619 475 225C475 226.381 473.881 227.5 472.5 227.5L469.685 227.5C468.575 231.813 464.66 235 460 235C455.34 235 451.425 231.813 450.315 227.5L447.5 227.5ZM460 230C462.761 230 465 227.761 465 225C465 222.239 462.761 220 460 220C457.239 220 455 222.239 455 225C455 227.761 457.239 230 460 230Z" fill="#89C6DA"/>
<path fill-rule="evenodd" clip-rule="evenodd" d="M447.5 177.5C446.119 177.5 445 176.381 445 175C445 173.619 446.119 172.5 447.5 172.5L450.315 172.5C451.425 168.187 455.34 165 460 165C464.66 165 468.575 168.187 469.685 172.5L472.5 172.5C473.881 172.5 475 173.619 475 175C475 176.381 473.881 177.5 472.5 177.5L469.685 177.5C468.575 181.813 464.66 185 460 185C455.34 185 451.425 181.813 450.315 177.5L447.5 177.5ZM460 180C462.761 180 465 177.761 465 175C465 172.239 462.761 170 460 170C457.239 170 455 172.239 455 175C455 177.761 457.239 180 460 180Z" fill="#89C6DA"/>
<path fill-rule="evenodd" clip-rule="evenodd" d="M447.5 277.5C446.119 277.5 445 276.381 445 275C445 273.619 446.119 272.5 447.5 272.5L450.315 272.5C451.425 268.187 455.34 265 460 265C464.66 265 468.575 268.187 469.685 272.5L472.5 272.5C473.881 272.5 475 273.619 475 275C475 276.381 473.881 277.5 472.5 277.5L469.685 277.5C468.575 281.813 464.66 285 460 285C455.34 285 451.425 281.813 450.315 277.5L447.5 277.5ZM460 280C462.761 280 465 277.761 465 275C465 272.239 462.761 270 460 270C457.239 270 455 272.239 455 275C455 277.761 457.239 280 460 280Z" fill="#89C6DA"/>
<path d="M407.5 175L432.5 175" stroke="#262930" stroke-width="5" stroke-linecap="round"/>
<path d="M372.5 225H367.5" stroke="#262930" stroke-width="5" stroke-linecap="round"/>
<path d="M392.5 225H387.5" stroke="#262930" stroke-width="5" stroke-linecap="round"/>
<path d="M412.5 225H407.5" stroke="#262930" stroke-width="5" stroke-linecap="round"/>
<path d="M432.5 225H427.5" stroke="#262930" stroke-width="5" stroke-linecap="round"/>
<path d="M407.5 275L432.5 275" stroke="#262930" stroke-width="5" stroke-linecap="round"/>
<circle cx="340" cy="225" r="12.5" stroke="#262930" stroke-width="5"/>
<defs>
<linearGradient id="paint0_linear_5573_1958" x1="377.262" y1="3.12975e-05" x2="424.55" y2="240.166" gradientUnits="userSpaceOnUse">
<stop stop-color="#E1F3FF"/>
<stop offset="1" stop-color="white"/>
</linearGradient>
</defs>
</svg>
