<svg width="22" height="22" viewBox="0 0 22 22" fill="none" xmlns="http://www.w3.org/2000/svg">
<rect x="0.5" y="0.5" width="21" height="21" rx="1.5" fill="#262930"/>
<rect x="0.5" y="0.5" width="21" height="21" rx="1.5" stroke="#383B41"/>
<g clip-path="url(#clip0_5640_3298)">
<path fill-rule="evenodd" clip-rule="evenodd" d="M4.59999 16.0554C4.59999 16.4808 4.98522 16.9 5.55574 16.9H7.19137V5.1H5.55574C5.2885 5.1 5.04034 5.19899 4.86393 5.3628C4.68903 5.52521 4.59999 5.73557 4.59999 5.94463V16.0554ZM3.39999 16.0554C3.39999 17.2257 4.40777 18.1 5.55574 18.1H16.4442C17.5922 18.1 18.6 17.2257 18.6 16.0554V5.94463C18.6 4.77428 17.5922 3.9 16.4442 3.9H5.55574C4.99776 3.9 4.4545 4.10541 4.04739 4.48345C3.63878 4.86287 3.39999 5.38741 3.39999 5.94463V16.0554ZM8.39137 5.1V16.9H16.4442C17.0148 16.9 17.4 16.4808 17.4 16.0554V5.94463C17.4 5.51922 17.0148 5.1 16.4442 5.1H8.39137ZM14.5831 10.8169C14.7393 10.9732 14.7393 11.2264 14.5831 11.3827L12.1829 13.7828C12.0685 13.8972 11.8964 13.9315 11.7469 13.8695C11.5975 13.8076 11.5 13.6618 11.5 13.5V8.69963C11.5 8.53784 11.5975 8.39197 11.7469 8.33006C11.8964 8.26814 12.0685 8.30236 12.1829 8.41677L14.5831 10.8169Z" fill="white"/>
</g>
<defs>
<clipPath id="clip0_5640_3298">
<rect width="16" height="16" fill="white" transform="translate(3 3)"/>
</clipPath>
</defs>
</svg>
