<svg width="22" height="22" viewBox="0 0 22 22" fill="none" xmlns="http://www.w3.org/2000/svg">
<rect x="0.5" y="0.5" width="21" height="21" rx="1.5" fill="#262930"/>
<rect x="0.5" y="0.5" width="21" height="21" rx="1.5" stroke="#383B41"/>
<path fill-rule="evenodd" clip-rule="evenodd" d="M6.46957 8.1L4.5 8.1C4.16863 8.1 3.9 7.83137 3.9 7.5C3.9 7.16863 4.16863 6.9 4.5 6.9L6.46957 6.9C6.74044 5.75332 7.77057 4.9 9 4.9C10.4359 4.9 11.6 6.06406 11.6 7.5C11.6 8.93594 10.4359 10.1 9 10.1C7.77057 10.1 6.74044 9.24668 6.46957 8.1ZM7.6 7.5C7.6 8.2732 8.2268 8.9 9 8.9C9.7732 8.9 10.4 8.2732 10.4 7.5C10.4 6.7268 9.7732 6.1 9 6.1C8.22695 6.1 7.60025 6.72701 7.6 7.5C7.6 7.49985 7.6 7.50015 7.6 7.5Z" fill="white"/>
<path d="M13.5 6.9C13.1686 6.9 12.9 7.16863 12.9 7.5C12.9 7.83137 13.1686 8.1 13.5 8.1L17.5 8.1C17.8314 8.1 18.1 7.83137 18.1 7.5C18.1 7.16863 17.8314 6.9 17.5 6.9L13.5 6.9Z" fill="white"/>
<path fill-rule="evenodd" clip-rule="evenodd" d="M10.4 13.5C10.4 12.6163 11.1163 11.9 12 11.9H14C14.8837 11.9 15.6 12.6163 15.6 13.5V13.9H17.5C17.8314 13.9 18.1 14.1686 18.1 14.5C18.1 14.8314 17.8314 15.1 17.5 15.1H15.6V15.5C15.6 16.3837 14.8837 17.1 14 17.1H12C11.1163 17.1 10.4 16.3837 10.4 15.5V13.5ZM14.4 13.5V15.5C14.4 15.7209 14.2209 15.9 14 15.9H12C11.7791 15.9 11.6 15.7209 11.6 15.5V13.5C11.6 13.2791 11.7791 13.1 12 13.1H14C14.2209 13.1 14.4 13.2791 14.4 13.5Z" fill="white"/>
<path d="M8.5 13.9C8.83137 13.9 9.1 14.1686 9.1 14.5C9.1 14.8314 8.83137 15.1 8.5 15.1H4.5C4.16863 15.1 3.9 14.8314 3.9 14.5C3.9 14.1686 4.16863 13.9 4.5 13.9L8.5 13.9Z" fill="white"/>
</svg>
