<svg width="22" height="22" viewBox="0 0 22 22" fill="none" xmlns="http://www.w3.org/2000/svg">
<rect x="0.5" y="0.5" width="21" height="21" rx="1.5" fill="white"/>
<rect x="0.5" y="0.5" width="21" height="21" rx="1.5" stroke="#EAEBEE"/>
<g clip-path="url(#clip0_5640_3268)">
<path fill-rule="evenodd" clip-rule="evenodd" d="M4.59999 5.94462C4.59999 5.51921 4.98522 5.09999 5.55574 5.09999H7.19137V16.9H5.55574C5.2885 16.9 5.04034 16.801 4.86393 16.6372C4.68903 16.4748 4.59999 16.2644 4.59999 16.0554V5.94462ZM3.39999 5.94462C3.39999 4.77427 4.40777 3.89999 5.55574 3.89999H16.4442C17.5922 3.89999 18.6 4.77427 18.6 5.94462V16.0554C18.6 17.2257 17.5922 18.1 16.4442 18.1H5.55574C4.99776 18.1 4.4545 17.8946 4.04739 17.5166C3.63878 17.1371 3.39999 16.6126 3.39999 16.0554V5.94462ZM8.39137 16.9V5.09999H16.4442C17.0148 5.09999 17.4 5.51921 17.4 5.94462V16.0554C17.4 16.4808 17.0148 16.9 16.4442 16.9H8.39137ZM11.0171 11.1838C10.8609 11.0276 10.8609 10.7743 11.0171 10.6181L13.4173 8.21795C13.5317 8.10355 13.7038 8.06932 13.8532 8.13124C14.0027 8.19316 14.1002 8.33902 14.1002 8.50082V13.3011C14.1002 13.4629 14.0027 13.6088 13.8532 13.6707C13.7038 13.7326 13.5317 13.6984 13.4173 13.584L11.0171 11.1838Z" fill="#262930"/>
</g>
<defs>
<clipPath id="clip0_5640_3268">
<rect width="16" height="16" fill="white" transform="translate(3 3)"/>
</clipPath>
</defs>
</svg>
