<svg width="800" height="450" viewBox="0 0 800 450" fill="none" xmlns="http://www.w3.org/2000/svg">
<rect width="800" height="450" fill="url(#paint0_linear_5634_319)"/>
<path d="M329.999 180L329.999 162.5C329.999 159.739 332.238 157.5 334.999 157.5H352.499" stroke="#735CFF" stroke-width="5" stroke-linecap="round"/>
<path d="M330 195L330 220" stroke="#735CFF" stroke-width="5" stroke-linecap="round"/>
<path d="M470 220L470 195" stroke="#735CFF" stroke-width="5" stroke-linecap="round"/>
<path d="M470 260L470 235" stroke="#735CFF" stroke-width="5" stroke-linecap="round"/>
<path d="M367.5 257.5L392.5 257.5" stroke="#735CFF" stroke-width="5" stroke-linecap="round"/>
<path d="M432.5 157.5L407.5 157.5" stroke="#735CFF" stroke-width="5" stroke-linecap="round"/>
<path d="M431.251 187.5H426.251" stroke="#181C1F" stroke-width="5" stroke-linecap="round"/>
<path d="M451.251 187.5H446.251" stroke="#181C1F" stroke-width="5" stroke-linecap="round"/>
<path d="M431.251 227.5H426.251" stroke="#181C1F" stroke-width="5" stroke-linecap="round"/>
<path d="M451.251 227.5H446.251" stroke="#181C1F" stroke-width="5" stroke-linecap="round"/>
<path d="M352.5 187.5H347.5" stroke="#181C1F" stroke-width="5" stroke-linecap="round"/>
<path d="M372.5 187.5H367.5" stroke="#181C1F" stroke-width="5" stroke-linecap="round"/>
<path d="M352.5 227.5H347.5" stroke="#181C1F" stroke-width="5" stroke-linecap="round"/>
<path d="M372.5 227.5H367.5" stroke="#181C1F" stroke-width="5" stroke-linecap="round"/>
<path d="M438.828 255.24C426.791 255.24 420.591 264.578 419.207 266.955C419.009 267.295 419.009 267.705 419.207 268.045C420.591 270.422 426.791 279.76 438.828 279.76C450.865 279.76 457.066 270.422 458.449 268.045C458.647 267.705 458.647 267.295 458.449 266.955C457.066 264.578 450.865 255.24 438.828 255.24Z" stroke="#735CFF" stroke-width="5" stroke-linecap="round"/>
<rect x="431.292" y="255.24" width="15.072" height="15.072" rx="7.53601" stroke="#735CFF" stroke-width="5" stroke-linecap="round" stroke-linejoin="round"/>
<path d="M392.5 157.5L367.5 157.5" stroke="#735CFF" stroke-width="5" stroke-linecap="round"/>
<path d="M407.578 257.578L400 250L392.422 257.578" stroke="#735CFF" stroke-width="5" stroke-linecap="round" stroke-linejoin="round"/>
<path d="M392.422 157.422L400 165L407.578 157.422" stroke="#735CFF" stroke-width="5" stroke-linecap="round" stroke-linejoin="round"/>
<path d="M390 235L390 240" stroke="#181C1F" stroke-width="5" stroke-linecap="round"/>
<path d="M390 215L390 220" stroke="#181C1F" stroke-width="5" stroke-linecap="round"/>
<path d="M390 195L390 200" stroke="#181C1F" stroke-width="5" stroke-linecap="round"/>
<path d="M390 175L390 180" stroke="#181C1F" stroke-width="5" stroke-linecap="round"/>
<path d="M410 235L410 240" stroke="#181C1F" stroke-width="5" stroke-linecap="round"/>
<path d="M410 215L410 220" stroke="#181C1F" stroke-width="5" stroke-linecap="round"/>
<path d="M410 195L410 200" stroke="#181C1F" stroke-width="5" stroke-linecap="round"/>
<path d="M410 175L410 180" stroke="#181C1F" stroke-width="5" stroke-linecap="round"/>
<path d="M470.001 180L470.001 162.5C470.001 159.739 467.762 157.5 465.001 157.5H447.501" stroke="#735CFF" stroke-width="5" stroke-linecap="round"/>
<path d="M329.999 235L329.999 252.5C329.999 255.261 332.238 257.5 334.999 257.5H352.499" stroke="#735CFF" stroke-width="5" stroke-linecap="round"/>
<path d="M407.5 295L432.5 295" stroke="#181C1F" stroke-width="5" stroke-linecap="round"/>
<path d="M367.5 295L392.5 295" stroke="#181C1F" stroke-width="5" stroke-linecap="round"/>
<path d="M452.5 295H447.5" stroke="#181C1F" stroke-width="5" stroke-linecap="round"/>
<path d="M472.5 295H467.5" stroke="#181C1F" stroke-width="5" stroke-linecap="round"/>
<path d="M332.5 295H327.5" stroke="#181C1F" stroke-width="5" stroke-linecap="round"/>
<path d="M352.5 295H347.5" stroke="#181C1F" stroke-width="5" stroke-linecap="round"/>
<defs>
<linearGradient id="paint0_linear_5634_319" x1="377.262" y1="3.12975e-05" x2="424.55" y2="240.166" gradientUnits="userSpaceOnUse">
<stop stop-color="#E1E8FF"/>
<stop offset="1" stop-color="white"/>
</linearGradient>
</defs>
</svg>
