<svg fill="none" height="22" viewBox="0 0 22 22" width="22" xmlns="http://www.w3.org/2000/svg" xmlns:xlink="http://www.w3.org/1999/xlink"><clipPath id="a"><path d="m3.46844 2.67773h16v16h-16z"/></clipPath><rect fill="#262930" height="21" rx="1.5" width="21" x=".5" y=".5"/><rect height="21" rx="1.5" stroke="#383b41" width="21" x=".5" y=".5"/><g clip-path="url(#a)" stroke="#fff" stroke-width="1.2"><path d="m15.6246 11.9766c-.2675.6171-.6534 1.1952-1.1579 1.6996-2.1479 2.1479-5.63027 2.1479-7.77815 0s-2.14788-5.63029 0-7.77818c1.44007-1.44006 3.48005-1.91463 5.31545-1.42368" stroke-linecap="round"/><g stroke-linejoin="round"><path d="m14.4667 13.6758 3.3926 3.3926" stroke-linecap="round"/><path d="m15.5091 3.75964c.0383-.10923.1928-.1092.2312.00004.2229.63431.3601 1.0248.5851 1.36049.1991.2971.447.55848.733.77313.3233.24254.706.40033 1.3275.65664.1101.04539.11.20122 0 .2466-.6216.25631-1.0042.4141-1.3275.65664-.286.21465-.5339.47603-.733.77313-.225.33569-.3622.7262-.5851 1.36051-.0384.10924-.1929.10925-.2312.00002-.2229-.63433-.3601-1.02484-.5851-1.36053-.1992-.2971-.447-.55848-.7331-.77313-.3232-.24254-.7059-.40033-1.3275-.65664-.11-.04539-.1099-.20123.0001-.24661.6215-.25631 1.0042-.4141 1.3274-.65663.2861-.21465.5339-.47603.7331-.77313.225-.33569.3622-.72619.5851-1.36053z"/></g></g></svg>