<svg width="22" height="22" viewBox="0 0 22 22" fill="none" xmlns="http://www.w3.org/2000/svg">
<rect x="0.5" y="0.5" width="21" height="21" rx="1.5" fill="white"/>
<rect x="0.5" y="0.5" width="21" height="21" rx="1.5" stroke="#EAEBEE"/>
<g clip-path="url(#clip0_5632_2361)">
<path fill-rule="evenodd" clip-rule="evenodd" d="M6.99999 3.89999C5.28791 3.89999 3.89999 5.28791 3.89999 6.99999C3.89999 8.71208 5.28791 10.1 6.99999 10.1C8.71208 10.1 10.1 8.71208 10.1 6.99999C10.1 5.28791 8.71208 3.89999 6.99999 3.89999ZM5.09999 6.99999C5.09999 5.95065 5.95065 5.09999 6.99999 5.09999C8.04934 5.09999 8.89999 5.95065 8.89999 6.99999C8.89999 8.04934 8.04934 8.89999 6.99999 8.89999C5.95065 8.89999 5.09999 8.04934 5.09999 6.99999Z" fill="#262930"/>
<path d="M14.0721 9.07869C13.8278 9.30261 13.4483 9.28611 13.2244 9.04184L11.5577 7.22365C11.3474 6.99426 11.3474 6.64218 11.5577 6.41279L13.2244 4.5946C13.4483 4.35033 13.8278 4.33383 14.0721 4.55775C14.3164 4.78166 14.3329 5.1612 14.109 5.40547L13.364 6.21822H15.3333C16.5852 6.21822 17.6 7.23304 17.6 8.48489L17.6 10C17.6 10.3314 17.3314 10.6 17 10.6C16.6686 10.6 16.4 10.3314 16.4 10L16.4 8.48489C16.4 7.89578 15.9224 7.41822 15.3333 7.41822H13.364L14.109 8.23097C14.3329 8.47524 14.3164 8.85478 14.0721 9.07869Z" fill="#262930"/>
<path d="M5.6 12C5.6 11.6686 5.33137 11.4 4.99999 11.4C4.66862 11.3999 4.4 11.6686 4.4 12L4.39999 13.5151C4.39999 14.7669 5.41482 15.7818 6.66666 15.7818H8.63603L7.89101 16.5945C7.6671 16.8388 7.6836 17.2183 7.92787 17.4422C8.17214 17.6662 8.55168 17.6497 8.7756 17.4054L10.4423 15.5872C10.6525 15.3578 10.6525 15.0057 10.4423 14.7763L8.7756 12.9582C8.55168 12.7139 8.17214 12.6974 7.92787 12.9213C7.6836 13.1452 7.6671 13.5247 7.89101 13.769L8.63603 14.5818H6.66666C6.07756 14.5818 5.59999 14.1042 5.59999 13.5151L5.6 12Z" fill="#262930"/>
<path fill-rule="evenodd" clip-rule="evenodd" d="M11.9 13.5C11.9 12.6163 12.6163 11.9 13.5 11.9H16.5C17.3836 11.9 18.1 12.6163 18.1 13.5V16.5C18.1 17.3836 17.3836 18.1 16.5 18.1H13.5C12.6163 18.1 11.9 17.3836 11.9 16.5V13.5ZM13.5 13.1C13.2791 13.1 13.1 13.2791 13.1 13.5V16.5C13.1 16.7209 13.2791 16.9 13.5 16.9H16.5C16.7209 16.9 16.9 16.7209 16.9 16.5V13.5C16.9 13.2791 16.7209 13.1 16.5 13.1H13.5Z" fill="#262930"/>
</g>
<defs>
<clipPath id="clip0_5632_2361">
<rect width="16" height="16" fill="white" transform="translate(3 3)"/>
</clipPath>
</defs>
</svg>
