<svg fill="none" height="22" viewBox="0 0 22 22" width="22" xmlns="http://www.w3.org/2000/svg" xmlns:xlink="http://www.w3.org/1999/xlink"><clipPath id="a"><path d="m3 3h16v16h-16z"/></clipPath><rect fill="#fff" height="21" rx="1.5" width="21" x=".5" y=".5"/><rect height="21" rx="1.5" stroke="#eaebee" width="21" x=".5" y=".5"/><g clip-path="url(#a)"><path d="m9.01185 4.91891c-1.12409.3674-2.0763 1.01555-2.80561 1.8415l1.57293-.27221c.32651-.05651.64083.16169.70205.48736.06121.32567-.15386.63548-.48038.69199l-2.85086.49337c-.32651.0565-.64083-.16169-.70205-.48736l-.53003-2.81984c-.06122-.32567.15385-.63548.48037-.69199s.64084.16169.70205.48736l.24038 1.27884c.86221-.96328 1.98214-1.71945 3.29835-2.14964.90793-.29676 1.83285-.41336 2.73515-.36875.0139.00069.0277.00184.0413.00345 1.152.06211 2.2993.38653 3.3467.98474.7992.45437 1.5221 1.057 2.1226 1.79269.223.27228.4249.5576.6053.85349.0036.00595.0071.01193.0105.01795.3487.57427.624 1.19996.812 1.86483.1177.41281.1987.83054.2444 1.24891.0013.0124.0023.0248.0029.0371.0734.697.0509 1.4086-.0745 2.1147-.0506.287-.1175.5689-.1997.8448-.0034.0116-.0072.023-.0113.0343-.1118.3673-.2529.7308-.4242 1.0874-.4137.861-.9693 1.6096-1.6256 2.2303l-.0104.0097c-.79.7455-1.7529 1.3327-2.853 1.6923-1.2067.3944-2.4421.4702-3.61396.2735-.89249-.1484-1.76807-.4581-2.58146-.9346-.73776-.4302-1.40849-.9878-1.97532-1.6607-.61357-.7258-1.07365-1.5478-1.37369-2.4177-.39908-1.1495-.50554-2.348-.34892-3.50127.0446-.32836.34694-.55839.67529-.5138.32836.0446.55839.34694.5138.67527-.12311.9065-.05335 1.8455.2302 2.7542.0025.0071.00488.0142.00714.0214.01701.0543.03474.1083.0532.1622.09809.2838.21736.5642.35849.8392.2259.4403.4956.8431.80106 1.2059.28673.3392.6134.6535.97923.9363.22349.1727.45473.3283.69214.4671.07168.0416.14411.0819.21725.1206.00793.0043.01574.0086.02341.0131.35574.1878.72378.3391 1.09916.4544.01273.003.02544.0064.03813.0102.25778.0778.52098.1396.7881.1845.24435.0406.49025.0669.73635.0789.0126.0006.0251.0016.0375.003.7483.0331 1.5153-.0657 2.2701-.3124 1.2933-.4227 2.359-1.2169 3.1195-2.2261.0054-.0071.0109-.014.0165-.0208.2441-.3269.4605-.6822.6442-1.0644.2598-.5407.4368-1.0994.5362-1.662.0901-.5142.1184-1.0482.077-1.5937-.0333-.4389-.11-.86396-.2256-1.27133-.1133-.39553-.2666-.78611-.4619-1.16664-.1503-.29291-.3199-.56924-.5066-.82825-.0725-.10005-.1478-.19787-.2258-.29335-.0066-.00813-.013-.01638-.0191-.02475-.2984-.36174-.6416-.69635-1.0289-.9957-.243-.18782-.4952-.35541-.7545-.50304-.0512-.029-.1028-.05728-.1547-.08484-.0068-.00358-.0134-.00726-.02-.01106-.8414-.44488-1.7518-.68517-2.6654-.72991-.0131-.00065-.0262-.00171-.0391-.00317-.7472-.03286-1.51353.06574-2.26835.31245z" fill="#262930"/></g></svg>