<svg width="800" height="450" viewBox="0 0 800 450" fill="none" xmlns="http://www.w3.org/2000/svg">
<rect width="800" height="450" fill="url(#paint0_linear_5499_459)"/>
<path d="M407.14 229.997L429.596 217.072C429.633 217.05 429.674 217.027 429.717 217.003C430.145 216.761 430.858 216.357 431.369 215.716C431.625 215.394 431.831 215.037 431.982 214.655C432.284 213.892 432.277 213.073 432.274 212.582C432.273 212.532 432.273 212.485 432.273 212.442C432.273 212.399 432.273 212.352 432.274 212.302C432.277 211.811 432.284 210.991 431.982 210.229C431.831 209.847 431.625 209.489 431.369 209.168C430.858 208.526 430.145 208.123 429.717 207.881C429.674 207.856 429.633 207.833 429.596 207.812L407.136 194.885L407.051 194.836C406.318 194.414 405.62 194.012 404.993 193.729C404.291 193.412 403.505 193.159 402.584 193.16C401.662 193.16 400.877 193.414 400.175 193.731C399.548 194.015 398.85 194.417 398.117 194.84L398.033 194.889L378.319 206.255L378.22 206.312C376.062 207.557 374.297 208.574 372.918 209.547C371.478 210.562 370.309 211.628 369.417 213.043C369.245 213.315 369.083 213.595 368.933 213.88C368.153 215.359 367.814 216.905 367.653 218.66C367.5 220.34 367.5 222.377 367.5 224.869L367.5 224.983L367.5 225.097C367.5 227.585 367.5 229.62 367.653 231.298C367.813 233.05 368.152 234.594 368.93 236.073C369.08 236.358 369.241 236.637 369.413 236.909C370.303 238.323 371.47 239.389 372.907 240.404C374.284 241.377 376.045 242.395 378.199 243.641L378.298 243.698L394.714 253.188L394.814 253.246C396.344 254.13 397.646 254.883 398.788 255.401C400.006 255.953 401.217 256.325 402.584 256.325C403.951 256.326 405.162 255.955 406.38 255.403C407.523 254.886 408.825 254.134 410.356 253.251L410.456 253.193L430.44 241.658L430.525 241.609C431.259 241.185 431.958 240.782 432.519 240.38C433.146 239.931 433.76 239.376 434.222 238.577C434.683 237.777 434.857 236.968 434.933 236.2C435 235.514 435 234.707 435 233.859V233.761V225.024V223.474C435 223.436 435 223.393 435.001 223.348C435.004 222.907 435.009 222.174 434.766 221.481C434.588 220.974 434.313 220.506 433.956 220.103C433.47 219.553 432.827 219.201 432.44 218.988C432.4 218.967 432.363 218.946 432.329 218.927C432.297 218.909 432.261 218.889 432.223 218.868C431.852 218.657 431.234 218.307 430.534 218.179C430.021 218.085 429.494 218.089 428.982 218.19C428.284 218.327 427.671 218.685 427.302 218.901C427.265 218.923 427.23 218.944 427.197 218.962L402.987 232.897C402.825 232.99 402.696 233.064 402.584 233.127C402.471 233.064 402.342 232.99 402.18 232.897L384.56 222.77C384.528 222.752 384.496 222.733 384.463 222.714C383.999 222.447 383.437 222.123 382.93 221.924C382.367 221.703 381.191 221.358 379.981 222.062C378.771 222.767 378.49 223.96 378.405 224.559C378.328 225.098 378.332 225.747 378.335 226.282C378.335 226.32 378.335 226.357 378.336 226.394L378.343 227.849C378.344 227.873 378.344 227.897 378.344 227.922C378.346 228.32 378.348 228.779 378.39 229.183C378.44 229.667 378.56 230.259 378.91 230.862C379.26 231.465 379.715 231.863 380.11 232.146C380.441 232.383 380.838 232.612 381.183 232.812C381.204 232.824 381.225 232.836 381.246 232.848L399.679 243.5C399.7 243.512 399.721 243.524 399.742 243.537C400.089 243.738 400.489 243.969 400.861 244.137C401.307 244.339 401.882 244.536 402.584 244.536C403.285 244.536 403.861 244.34 404.307 244.138C404.679 243.97 405.079 243.739 405.426 243.538C405.447 243.526 405.468 243.514 405.489 243.502L424.562 232.493V232.999L404.647 244.494C403.796 244.985 403.313 245.261 402.936 245.431C402.767 245.508 402.672 245.538 402.625 245.55C402.602 245.556 402.591 245.558 402.588 245.558L402.586 245.558L402.583 245.558C402.58 245.558 402.569 245.556 402.547 245.55C402.499 245.538 402.404 245.508 402.236 245.431C401.859 245.26 401.376 244.984 400.526 244.492L382.009 233.782C380.711 233.031 379.881 232.549 379.273 232.119C378.704 231.718 378.483 231.466 378.349 231.255C378.301 231.179 378.256 231.102 378.214 231.022C378.099 230.801 377.992 230.483 377.929 229.79C377.862 229.048 377.86 228.088 377.86 226.589V223.733C377.86 223.603 377.86 223.573 377.86 223.547C377.881 222.474 378.45 221.486 379.368 220.929C379.389 220.916 379.416 220.901 379.528 220.836C379.628 220.777 379.649 220.766 379.665 220.757C380.406 220.346 381.307 220.345 382.049 220.754C382.065 220.763 382.085 220.775 382.186 220.833L398.029 229.989L398.113 230.037C398.847 230.461 399.545 230.865 400.172 231.149C400.874 231.468 401.66 231.722 402.583 231.723C403.505 231.724 404.292 231.471 404.994 231.154C405.622 230.87 406.321 230.468 407.055 230.045L407.14 229.997Z" stroke="#262930" stroke-width="5"/>
<path d="M458.356 278.145C458.995 277.191 459.515 276.173 460 275.04C460.485 276.173 461.005 277.191 461.644 278.145C462.858 279.956 464.369 281.549 466.113 282.858C467.221 283.69 468.433 284.353 469.827 285C468.433 285.647 467.221 286.31 466.113 287.142C464.369 288.451 462.858 290.044 461.644 291.855C461.005 292.809 460.485 293.827 460 294.96C459.515 293.827 458.995 292.809 458.356 291.855C457.142 290.044 455.631 288.451 453.887 287.142C452.779 286.31 451.567 285.647 450.173 285C451.567 284.353 452.779 283.69 453.887 282.858C455.631 281.549 457.142 279.956 458.356 278.145Z" stroke="#89C6DA" stroke-width="5"/>
<path d="M458.356 158.145C458.995 157.191 459.515 156.173 460 155.04C460.485 156.173 461.005 157.191 461.644 158.145C462.858 159.956 464.369 161.549 466.113 162.858C467.221 163.69 468.433 164.353 469.827 165C468.433 165.647 467.221 166.31 466.113 167.142C464.369 168.451 462.858 170.044 461.644 171.855C461.005 172.809 460.485 173.827 460 174.96C459.515 173.827 458.995 172.809 458.356 171.855C457.142 170.044 455.631 168.451 453.887 167.142C452.779 166.31 451.567 165.647 450.173 165C451.567 164.353 452.779 163.69 453.887 162.858C455.631 161.549 457.142 159.956 458.356 158.145Z" stroke="#89C6DA" stroke-width="5"/>
<path d="M338.356 158.145C338.995 157.191 339.515 156.173 340 155.04C340.485 156.173 341.005 157.191 341.644 158.145C342.858 159.956 344.369 161.549 346.113 162.858C347.221 163.69 348.433 164.353 349.827 165C348.433 165.647 347.221 166.31 346.113 167.142C344.369 168.451 342.858 170.044 341.644 171.855C341.005 172.809 340.485 173.827 340 174.96C339.515 173.827 338.995 172.809 338.356 171.855C337.142 170.044 335.631 168.451 333.887 167.142C332.779 166.31 331.567 165.647 330.173 165C331.567 164.353 332.779 163.69 333.887 162.858C335.631 161.549 337.142 159.956 338.356 158.145Z" stroke="#89C6DA" stroke-width="5"/>
<path d="M338.356 278.145C338.995 277.191 339.515 276.173 340 275.04C340.485 276.173 341.005 277.191 341.644 278.145C342.858 279.956 344.369 281.549 346.113 282.858C347.221 283.69 348.433 284.353 349.827 285C348.433 285.647 347.221 286.31 346.113 287.142C344.369 288.451 342.858 290.044 341.644 291.855C341.005 292.809 340.485 293.827 340 294.96C339.515 293.827 338.995 292.809 338.356 291.855C337.142 290.044 335.631 288.451 333.887 287.142C332.779 286.31 331.567 285.647 330.173 285C331.567 284.353 332.779 283.69 333.887 282.858C335.631 281.549 337.142 279.956 338.356 278.145Z" stroke="#89C6DA" stroke-width="5"/>
<path d="M332.5 225L327.5 225" stroke="#262930" stroke-width="5" stroke-linecap="round"/>
<path d="M472.5 225L467.5 225" stroke="#262930" stroke-width="5" stroke-linecap="round"/>
<path d="M400 292.5L400 297.5" stroke="#262930" stroke-width="5" stroke-linecap="round"/>
<path d="M400 152.5L400 157.5" stroke="#262930" stroke-width="5" stroke-linecap="round"/>
<defs>
<linearGradient id="paint0_linear_5499_459" x1="377.262" y1="3.12975e-05" x2="424.55" y2="240.166" gradientUnits="userSpaceOnUse">
<stop stop-color="#E1F3FF"/>
<stop offset="1" stop-color="white"/>
</linearGradient>
</defs>
</svg>
