<svg width="2293" height="1200" viewBox="0 0 2293 1200" fill="none" xmlns="http://www.w3.org/2000/svg">
<g clip-path="url(#clip0_96_28815)">
<rect width="2293" height="1200" transform="translate(0 0.0032959)" fill="white"/>
<g filter="url(#filter0_f_96_28815)">
<path d="M-5.45264 1227.52C-333.752 338.7 -241.95 -229.84 516.824 -667.918C1275.6 -1106 2553 -572.985 2973.72 155.724C3224.15 589.482 1186.46 913.162 753.255 1437.71C568.591 1661.31 1933.98 1351.13 1782.5 1601.69C1469.44 2012.03 1278.16 2218.77 968.878 2230.29C625.448 2243.09 171.428 1706.4 -5.45264 1227.52Z" fill="url(#paint0_linear_96_28815)"/>
</g>
<g opacity="0.8" filter="url(#filter1_f_96_28815)">
<path d="M817.87 1830.36C489.676 1261.91 311.881 708.214 993.984 314.401C1676.09 -79.4115 2495.09 62.1587 2823.29 630.607C3018.64 968.971 2381.56 827.17 1978 1274.25C1805.98 1464.82 2253.41 1927.77 1977.32 2087.16C1654.12 2273.77 1507.17 2612.83 1237.74 2638.09C938.557 2666.13 990.552 2129.45 817.87 1830.36Z" fill="#FDA599"/>
</g>
<g filter="url(#filter2_f_96_28815)">
<path d="M-562.821 1475.55C-927.972 843.09 -314.571 -357.267 373.261 -754.387C1061.09 -1151.51 1499.16 -470.375 1864.31 162.085C2081.67 538.552 1991.92 471.108 1997.36 640.431C2006.23 916.404 1797.1 1061.74 1518.69 1222.48C1192.77 1410.65 1282.34 1560.97 1004.77 1576.25C696.55 1593.22 -370.693 1808.32 -562.821 1475.55Z" fill="url(#paint1_linear_96_28815)"/>
</g>
<g filter="url(#filter3_f_96_28815)">
<path d="M-284.244 802.333C-383.439 432.135 126.355 397.978 879.985 196.044C1633.61 -5.891 2217.42 -35.7256 2316.62 334.473C2347.69 450.445 2459.05 725.645 2384.85 861.012C2222.18 1157.75 1692.35 1320.4 1174.81 1459.07C760.774 1570.02 164.17 1609.33 -124.407 1533.36C-361.094 1471.06 -239.546 969.147 -284.244 802.333Z" fill="white"/>
</g>
<g opacity="0.2">
<path d="M524.766 103.415C524.766 87.1263 537.971 73.9216 554.26 73.9216H620.418V169.573H524.766V103.415Z" stroke="#2D323A" stroke-width="2.12052"/>
<path d="M523.706 121.748H621.478" stroke="#2D323A" stroke-width="2.12052"/>
<path d="M572.591 72.8615L572.591 170.633" stroke="#2D323A" stroke-width="2.12052"/>
<rect x="620.418" y="73.9216" width="95.6514" height="95.6514" stroke="#2D323A" stroke-width="2.12052"/>
<path d="M619.357 121.748H717.129" stroke="#2D323A" stroke-width="2.12052"/>
<path d="M668.242 72.8615L668.242 170.633" stroke="#2D323A" stroke-width="2.12052"/>
<rect x="716.069" y="73.9217" width="95.6514" height="95.6514" stroke="#2D323A" stroke-width="2.12052"/>
<path d="M715.009 121.748H812.781" stroke="#2D323A" stroke-width="2.12052"/>
<path d="M763.896 72.8616L763.896 170.634" stroke="#2D323A" stroke-width="2.12052"/>
<rect x="811.72" y="73.9216" width="95.6514" height="95.6514" stroke="#2D323A" stroke-width="2.12052"/>
<path d="M810.66 121.748H908.432" stroke="#2D323A" stroke-width="2.12052"/>
<path d="M859.545 72.8615L859.545 170.633" stroke="#2D323A" stroke-width="2.12052"/>
<rect x="907.372" y="73.9216" width="95.6514" height="95.6514" stroke="#2D323A" stroke-width="2.12052"/>
<path d="M906.312 121.748H1004.08" stroke="#2D323A" stroke-width="2.12052"/>
<path d="M955.197 72.8615L955.197 170.633" stroke="#2D323A" stroke-width="2.12052"/>
<rect x="1003.02" y="73.9217" width="95.6514" height="95.6514" stroke="#2D323A" stroke-width="2.12052"/>
<path d="M1001.96 121.748H1099.73" stroke="#2D323A" stroke-width="2.12052"/>
<path d="M1050.85 72.8616L1050.85 170.634" stroke="#2D323A" stroke-width="2.12052"/>
<rect x="1098.67" y="73.9216" width="95.6514" height="95.6514" stroke="#2D323A" stroke-width="2.12052"/>
<path d="M1097.61 121.748H1195.39" stroke="#2D323A" stroke-width="2.12052"/>
<path d="M1146.5 72.8615L1146.5 170.633" stroke="#2D323A" stroke-width="2.12052"/>
<rect x="1194.33" y="73.9216" width="95.6514" height="95.6514" stroke="#2D323A" stroke-width="2.12052"/>
<path d="M1193.27 121.748H1291.04" stroke="#2D323A" stroke-width="2.12052"/>
<path d="M1242.15 72.8613L1242.15 170.633" stroke="#2D323A" stroke-width="2.12052"/>
<rect x="1289.98" y="73.9217" width="95.6514" height="95.6514" stroke="#2D323A" stroke-width="2.12052"/>
<path d="M1288.92 121.748H1386.69" stroke="#2D323A" stroke-width="2.12052"/>
<path d="M1337.8 72.8616L1337.8 170.634" stroke="#2D323A" stroke-width="2.12052"/>
<rect x="1385.63" y="73.9218" width="95.6514" height="95.6514" stroke="#2D323A" stroke-width="2.12052"/>
<path d="M1384.57 121.748H1482.34" stroke="#2D323A" stroke-width="2.12052"/>
<path d="M1433.45 72.8616L1433.45 170.634" stroke="#2D323A" stroke-width="2.12052"/>
<rect x="1481.28" y="73.9217" width="95.6514" height="95.6514" stroke="#2D323A" stroke-width="2.12052"/>
<path d="M1480.22 121.748H1577.99" stroke="#2D323A" stroke-width="2.12052"/>
<path d="M1529.1 72.8616L1529.1 170.634" stroke="#2D323A" stroke-width="2.12052"/>
<rect x="1576.93" y="73.9217" width="95.6514" height="95.6514" stroke="#2D323A" stroke-width="2.12052"/>
<path d="M1575.87 121.748H1673.64" stroke="#2D323A" stroke-width="2.12052"/>
<path d="M1624.76 72.8615L1624.76 170.633" stroke="#2D323A" stroke-width="2.12052"/>
<path d="M1672.58 73.9216H1738.74C1755.03 73.9216 1768.24 87.1263 1768.24 103.415V169.573H1672.58V73.9216Z" stroke="#2D323A" stroke-width="2.12052"/>
<path d="M1671.52 121.748H1769.3" stroke="#2D323A" stroke-width="2.12052"/>
<path d="M1720.41 72.8613L1720.41 170.633" stroke="#2D323A" stroke-width="2.12052"/>
<rect x="524.766" y="169.573" width="95.6514" height="95.6514" stroke="#2D323A" stroke-width="2.12052"/>
<path d="M523.706 217.399H621.478" stroke="#2D323A" stroke-width="2.12052"/>
<path d="M572.591 168.513L572.591 266.285" stroke="#2D323A" stroke-width="2.12052"/>
<rect x="620.418" y="169.573" width="95.6514" height="95.6514" stroke="#2D323A" stroke-width="2.12052"/>
<path d="M619.357 217.399H717.129" stroke="#2D323A" stroke-width="2.12052"/>
<path d="M668.242 168.513L668.242 266.285" stroke="#2D323A" stroke-width="2.12052"/>
<rect x="716.069" y="169.573" width="95.6514" height="95.6514" stroke="#2D323A" stroke-width="2.12052"/>
<path d="M715.009 217.399H812.781" stroke="#2D323A" stroke-width="2.12052"/>
<path d="M763.894 168.513L763.894 266.285" stroke="#2D323A" stroke-width="2.12052"/>
<rect x="811.72" y="169.573" width="95.6514" height="95.6514" stroke="#2D323A" stroke-width="2.12052"/>
<path d="M810.66 217.399H908.432" stroke="#2D323A" stroke-width="2.12052"/>
<path d="M859.545 168.513L859.545 266.285" stroke="#2D323A" stroke-width="2.12052"/>
<rect x="907.372" y="169.573" width="95.6514" height="95.6514" stroke="#2D323A" stroke-width="2.12052"/>
<path d="M906.312 217.399H1004.08" stroke="#2D323A" stroke-width="2.12052"/>
<path d="M955.198 168.513L955.198 266.285" stroke="#2D323A" stroke-width="2.12052"/>
<rect x="1003.02" y="169.573" width="95.6514" height="95.6514" stroke="#2D323A" stroke-width="2.12052"/>
<path d="M1001.96 217.399H1099.73" stroke="#2D323A" stroke-width="2.12052"/>
<path d="M1050.85 168.513L1050.85 266.285" stroke="#2D323A" stroke-width="2.12052"/>
<rect x="1098.67" y="169.573" width="95.6514" height="95.6514" stroke="#2D323A" stroke-width="2.12052"/>
<path d="M1097.61 217.399H1195.39" stroke="#2D323A" stroke-width="2.12052"/>
<path d="M1146.5 168.513L1146.5 266.285" stroke="#2D323A" stroke-width="2.12052"/>
<rect x="1194.33" y="169.573" width="95.6514" height="95.6514" stroke="#2D323A" stroke-width="2.12052"/>
<path d="M1193.27 217.398H1291.04" stroke="#2D323A" stroke-width="2.12052"/>
<path d="M1242.15 168.513L1242.15 266.285" stroke="#2D323A" stroke-width="2.12052"/>
<rect x="1289.98" y="169.573" width="95.6514" height="95.6514" stroke="#2D323A" stroke-width="2.12052"/>
<path d="M1288.92 217.399H1386.69" stroke="#2D323A" stroke-width="2.12052"/>
<path d="M1337.8 168.513L1337.8 266.285" stroke="#2D323A" stroke-width="2.12052"/>
<rect x="1385.63" y="169.573" width="95.6514" height="95.6514" stroke="#2D323A" stroke-width="2.12052"/>
<path d="M1384.57 217.399H1482.34" stroke="#2D323A" stroke-width="2.12052"/>
<path d="M1433.45 168.513L1433.45 266.285" stroke="#2D323A" stroke-width="2.12052"/>
<rect x="1481.28" y="169.573" width="95.6514" height="95.6514" stroke="#2D323A" stroke-width="2.12052"/>
<path d="M1480.22 217.399H1577.99" stroke="#2D323A" stroke-width="2.12052"/>
<path d="M1529.11 168.513L1529.11 266.285" stroke="#2D323A" stroke-width="2.12052"/>
<rect x="1576.93" y="169.573" width="95.6514" height="95.6514" stroke="#2D323A" stroke-width="2.12052"/>
<path d="M1575.87 217.398H1673.64" stroke="#2D323A" stroke-width="2.12052"/>
<path d="M1624.76 168.513L1624.76 266.285" stroke="#2D323A" stroke-width="2.12052"/>
<rect x="1672.58" y="169.573" width="95.6514" height="95.6514" stroke="#2D323A" stroke-width="2.12052"/>
<path d="M1671.52 217.398H1769.3" stroke="#2D323A" stroke-width="2.12052"/>
<path d="M1720.41 168.513L1720.41 266.285" stroke="#2D323A" stroke-width="2.12052"/>
<rect x="524.766" y="265.225" width="95.6514" height="95.6514" stroke="#2D323A" stroke-width="2.12052"/>
<path d="M523.706 313.051H621.478" stroke="#2D323A" stroke-width="2.12052"/>
<path d="M572.591 264.165L572.591 361.936" stroke="#2D323A" stroke-width="2.12052"/>
<rect x="620.418" y="265.225" width="95.6514" height="95.6514" stroke="#2D323A" stroke-width="2.12052"/>
<path d="M619.357 313.05H717.129" stroke="#2D323A" stroke-width="2.12052"/>
<path d="M668.242 264.165L668.242 361.936" stroke="#2D323A" stroke-width="2.12052"/>
<rect x="716.069" y="265.225" width="95.6514" height="95.6514" stroke="#2D323A" stroke-width="2.12052"/>
<path d="M715.009 313.05H812.781" stroke="#2D323A" stroke-width="2.12052"/>
<path d="M763.896 264.165L763.896 361.936" stroke="#2D323A" stroke-width="2.12052"/>
<rect x="811.72" y="265.225" width="95.6514" height="95.6514" stroke="#2D323A" stroke-width="2.12052"/>
<path d="M810.66 313.05H908.432" stroke="#2D323A" stroke-width="2.12052"/>
<path d="M859.545 264.165L859.545 361.936" stroke="#2D323A" stroke-width="2.12052"/>
<rect x="907.372" y="265.225" width="95.6514" height="95.6514" stroke="#2D323A" stroke-width="2.12052"/>
<path d="M906.312 313.05H1004.08" stroke="#2D323A" stroke-width="2.12052"/>
<path d="M955.197 264.165L955.197 361.936" stroke="#2D323A" stroke-width="2.12052"/>
<rect x="1003.02" y="265.225" width="95.6514" height="95.6514" stroke="#2D323A" stroke-width="2.12052"/>
<path d="M1001.96 313.05H1099.73" stroke="#2D323A" stroke-width="2.12052"/>
<path d="M1050.85 264.165L1050.85 361.936" stroke="#2D323A" stroke-width="2.12052"/>
<rect x="1098.67" y="265.225" width="95.6514" height="95.6514" stroke="#2D323A" stroke-width="2.12052"/>
<path d="M1097.61 313.051H1195.39" stroke="#2D323A" stroke-width="2.12052"/>
<path d="M1146.5 264.165L1146.5 361.936" stroke="#2D323A" stroke-width="2.12052"/>
<rect x="1194.33" y="265.225" width="95.6514" height="95.6514" stroke="#2D323A" stroke-width="2.12052"/>
<path d="M1193.27 313.051H1291.04" stroke="#2D323A" stroke-width="2.12052"/>
<path d="M1242.15 264.165L1242.15 361.936" stroke="#2D323A" stroke-width="2.12052"/>
<rect x="1289.98" y="265.225" width="95.6514" height="95.6514" stroke="#2D323A" stroke-width="2.12052"/>
<path d="M1288.92 313.05H1386.69" stroke="#2D323A" stroke-width="2.12052"/>
<path d="M1337.8 264.165L1337.8 361.936" stroke="#2D323A" stroke-width="2.12052"/>
<rect x="1385.63" y="265.225" width="95.6514" height="95.6514" stroke="#2D323A" stroke-width="2.12052"/>
<path d="M1384.57 313.05H1482.34" stroke="#2D323A" stroke-width="2.12052"/>
<path d="M1433.45 264.164L1433.45 361.936" stroke="#2D323A" stroke-width="2.12052"/>
<rect x="1481.28" y="265.225" width="95.6514" height="95.6514" stroke="#2D323A" stroke-width="2.12052"/>
<path d="M1480.22 313.05H1577.99" stroke="#2D323A" stroke-width="2.12052"/>
<path d="M1529.11 264.165L1529.11 361.936" stroke="#2D323A" stroke-width="2.12052"/>
<rect x="1576.93" y="265.225" width="95.6514" height="95.6514" stroke="#2D323A" stroke-width="2.12052"/>
<path d="M1575.87 313.051H1673.64" stroke="#2D323A" stroke-width="2.12052"/>
<path d="M1624.76 264.165L1624.76 361.936" stroke="#2D323A" stroke-width="2.12052"/>
<rect x="1672.58" y="265.225" width="95.6514" height="95.6514" stroke="#2D323A" stroke-width="2.12052"/>
<path d="M1671.52 313.051H1769.3" stroke="#2D323A" stroke-width="2.12052"/>
<path d="M1720.41 264.165L1720.41 361.936" stroke="#2D323A" stroke-width="2.12052"/>
<rect x="524.766" y="360.876" width="95.6514" height="95.6514" stroke="#2D323A" stroke-width="2.12052"/>
<path d="M523.706 408.702H621.478" stroke="#2D323A" stroke-width="2.12052"/>
<path d="M572.591 359.816L572.591 457.588" stroke="#2D323A" stroke-width="2.12052"/>
<rect x="620.418" y="360.876" width="95.6514" height="95.6514" stroke="#2D323A" stroke-width="2.12052"/>
<path d="M619.357 408.701H717.129" stroke="#2D323A" stroke-width="2.12052"/>
<path d="M668.242 359.816L668.242 457.588" stroke="#2D323A" stroke-width="2.12052"/>
<rect x="716.069" y="360.876" width="95.6514" height="95.6514" stroke="#2D323A" stroke-width="2.12052"/>
<path d="M715.009 408.702H812.781" stroke="#2D323A" stroke-width="2.12052"/>
<path d="M763.896 359.816L763.896 457.588" stroke="#2D323A" stroke-width="2.12052"/>
<rect x="811.72" y="360.876" width="95.6514" height="95.6514" stroke="#2D323A" stroke-width="2.12052"/>
<path d="M810.66 408.701H908.432" stroke="#2D323A" stroke-width="2.12052"/>
<path d="M859.545 359.816L859.545 457.588" stroke="#2D323A" stroke-width="2.12052"/>
<rect x="907.372" y="360.876" width="95.6514" height="95.6514" stroke="#2D323A" stroke-width="2.12052"/>
<path d="M906.312 408.701H1004.08" stroke="#2D323A" stroke-width="2.12052"/>
<path d="M955.197 359.816L955.197 457.588" stroke="#2D323A" stroke-width="2.12052"/>
<rect x="1003.02" y="360.876" width="95.6514" height="95.6514" stroke="#2D323A" stroke-width="2.12052"/>
<path d="M1001.96 408.702H1099.73" stroke="#2D323A" stroke-width="2.12052"/>
<path d="M1050.85 359.816L1050.85 457.588" stroke="#2D323A" stroke-width="2.12052"/>
<rect x="1098.67" y="360.876" width="95.6514" height="95.6514" stroke="#2D323A" stroke-width="2.12052"/>
<path d="M1097.61 408.702H1195.39" stroke="#2D323A" stroke-width="2.12052"/>
<path d="M1146.5 359.816L1146.5 457.588" stroke="#2D323A" stroke-width="2.12052"/>
<rect x="1194.33" y="360.876" width="95.6514" height="95.6514" stroke="#2D323A" stroke-width="2.12052"/>
<path d="M1193.27 408.702H1291.04" stroke="#2D323A" stroke-width="2.12052"/>
<path d="M1242.15 359.816L1242.15 457.588" stroke="#2D323A" stroke-width="2.12052"/>
<rect x="1289.98" y="360.876" width="95.6514" height="95.6514" stroke="#2D323A" stroke-width="2.12052"/>
<path d="M1288.92 408.702H1386.69" stroke="#2D323A" stroke-width="2.12052"/>
<path d="M1337.8 359.816L1337.8 457.588" stroke="#2D323A" stroke-width="2.12052"/>
<rect x="1385.63" y="360.876" width="95.6514" height="95.6514" stroke="#2D323A" stroke-width="2.12052"/>
<path d="M1384.57 408.702H1482.34" stroke="#2D323A" stroke-width="2.12052"/>
<path d="M1433.45 359.816L1433.45 457.588" stroke="#2D323A" stroke-width="2.12052"/>
<rect x="1481.28" y="360.876" width="95.6514" height="95.6514" stroke="#2D323A" stroke-width="2.12052"/>
<path d="M1480.22 408.701H1577.99" stroke="#2D323A" stroke-width="2.12052"/>
<path d="M1529.11 359.816L1529.11 457.588" stroke="#2D323A" stroke-width="2.12052"/>
<rect x="1576.93" y="360.876" width="95.6514" height="95.6514" stroke="#2D323A" stroke-width="2.12052"/>
<path d="M1575.87 408.702H1673.64" stroke="#2D323A" stroke-width="2.12052"/>
<path d="M1624.76 359.816L1624.76 457.588" stroke="#2D323A" stroke-width="2.12052"/>
<rect x="1672.58" y="360.876" width="95.6514" height="95.6514" stroke="#2D323A" stroke-width="2.12052"/>
<path d="M1671.52 408.702H1769.3" stroke="#2D323A" stroke-width="2.12052"/>
<path d="M1720.41 359.816L1720.41 457.588" stroke="#2D323A" stroke-width="2.12052"/>
<rect x="524.766" y="456.528" width="95.6514" height="95.6514" stroke="#2D323A" stroke-width="2.12052"/>
<path d="M523.706 504.354H621.478" stroke="#2D323A" stroke-width="2.12052"/>
<path d="M572.591 455.467L572.591 553.239" stroke="#2D323A" stroke-width="2.12052"/>
<rect x="620.418" y="456.528" width="95.6514" height="95.6514" stroke="#2D323A" stroke-width="2.12052"/>
<path d="M619.357 504.353H717.129" stroke="#2D323A" stroke-width="2.12052"/>
<path d="M668.242 455.467L668.242 553.239" stroke="#2D323A" stroke-width="2.12052"/>
<rect x="716.069" y="456.528" width="95.6514" height="95.6514" stroke="#2D323A" stroke-width="2.12052"/>
<path d="M715.009 504.353H812.781" stroke="#2D323A" stroke-width="2.12052"/>
<path d="M763.896 455.467L763.896 553.239" stroke="#2D323A" stroke-width="2.12052"/>
<rect x="811.72" y="456.528" width="95.6514" height="95.6514" stroke="#2D323A" stroke-width="2.12052"/>
<path d="M810.66 504.353H908.432" stroke="#2D323A" stroke-width="2.12052"/>
<path d="M859.545 455.467L859.545 553.239" stroke="#2D323A" stroke-width="2.12052"/>
<rect x="907.372" y="456.528" width="95.6514" height="95.6514" stroke="#2D323A" stroke-width="2.12052"/>
<path d="M906.312 504.353H1004.08" stroke="#2D323A" stroke-width="2.12052"/>
<path d="M955.197 455.467L955.197 553.239" stroke="#2D323A" stroke-width="2.12052"/>
<rect x="1003.02" y="456.528" width="95.6514" height="95.6514" stroke="#2D323A" stroke-width="2.12052"/>
<path d="M1001.96 504.353H1099.73" stroke="#2D323A" stroke-width="2.12052"/>
<path d="M1050.85 455.467L1050.85 553.239" stroke="#2D323A" stroke-width="2.12052"/>
<rect x="1098.67" y="456.528" width="95.6514" height="95.6514" stroke="#2D323A" stroke-width="2.12052"/>
<path d="M1097.61 504.354H1195.39" stroke="#2D323A" stroke-width="2.12052"/>
<path d="M1146.5 455.467L1146.5 553.239" stroke="#2D323A" stroke-width="2.12052"/>
<rect x="1194.33" y="456.528" width="95.6514" height="95.6514" stroke="#2D323A" stroke-width="2.12052"/>
<path d="M1193.27 504.354H1291.04" stroke="#2D323A" stroke-width="2.12052"/>
<path d="M1242.15 455.467L1242.15 553.239" stroke="#2D323A" stroke-width="2.12052"/>
<rect x="1289.98" y="456.528" width="95.6514" height="95.6514" stroke="#2D323A" stroke-width="2.12052"/>
<path d="M1288.92 504.353H1386.69" stroke="#2D323A" stroke-width="2.12052"/>
<path d="M1337.8 455.467L1337.8 553.239" stroke="#2D323A" stroke-width="2.12052"/>
<rect x="1385.63" y="456.528" width="95.6514" height="95.6514" stroke="#2D323A" stroke-width="2.12052"/>
<path d="M1384.57 504.353H1482.34" stroke="#2D323A" stroke-width="2.12052"/>
<path d="M1433.45 455.467L1433.45 553.239" stroke="#2D323A" stroke-width="2.12052"/>
<rect x="1481.28" y="456.528" width="95.6514" height="95.6514" stroke="#2D323A" stroke-width="2.12052"/>
<path d="M1480.22 504.353H1577.99" stroke="#2D323A" stroke-width="2.12052"/>
<path d="M1529.11 455.467L1529.11 553.239" stroke="#2D323A" stroke-width="2.12052"/>
<rect x="1576.93" y="456.528" width="95.6514" height="95.6514" stroke="#2D323A" stroke-width="2.12052"/>
<path d="M1575.87 504.354H1673.64" stroke="#2D323A" stroke-width="2.12052"/>
<path d="M1624.76 455.467L1624.76 553.239" stroke="#2D323A" stroke-width="2.12052"/>
<rect x="1672.58" y="456.528" width="95.6514" height="95.6514" stroke="#2D323A" stroke-width="2.12052"/>
<path d="M1671.52 504.354H1769.3" stroke="#2D323A" stroke-width="2.12052"/>
<path d="M1720.41 455.467L1720.41 553.239" stroke="#2D323A" stroke-width="2.12052"/>
<rect x="524.766" y="552.179" width="95.6514" height="95.6514" stroke="#2D323A" stroke-width="2.12052"/>
<path d="M523.706 600.005H621.478" stroke="#2D323A" stroke-width="2.12052"/>
<path d="M572.591 551.119L572.591 648.891" stroke="#2D323A" stroke-width="2.12052"/>
<rect x="620.418" y="552.179" width="95.6514" height="95.6514" stroke="#2D323A" stroke-width="2.12052"/>
<path d="M619.357 600.005H717.129" stroke="#2D323A" stroke-width="2.12052"/>
<path d="M668.242 551.119L668.242 648.891" stroke="#2D323A" stroke-width="2.12052"/>
<rect x="716.069" y="552.179" width="95.6514" height="95.6514" stroke="#2D323A" stroke-width="2.12052"/>
<path d="M715.009 600.005H812.781" stroke="#2D323A" stroke-width="2.12052"/>
<path d="M763.896 551.119L763.896 648.891" stroke="#2D323A" stroke-width="2.12052"/>
<rect x="811.72" y="552.179" width="95.6514" height="95.6514" stroke="#2D323A" stroke-width="2.12052"/>
<path d="M810.66 600.005H908.432" stroke="#2D323A" stroke-width="2.12052"/>
<path d="M859.545 551.119L859.545 648.891" stroke="#2D323A" stroke-width="2.12052"/>
<rect x="907.372" y="552.179" width="95.6514" height="95.6514" stroke="#2D323A" stroke-width="2.12052"/>
<path d="M906.312 600.005H1004.08" stroke="#2D323A" stroke-width="2.12052"/>
<path d="M955.197 551.119L955.197 648.891" stroke="#2D323A" stroke-width="2.12052"/>
<rect x="1003.02" y="552.179" width="95.6514" height="95.6514" stroke="#2D323A" stroke-width="2.12052"/>
<path d="M1001.96 600.005H1099.73" stroke="#2D323A" stroke-width="2.12052"/>
<path d="M1050.85 551.119L1050.85 648.891" stroke="#2D323A" stroke-width="2.12052"/>
<rect x="1098.67" y="552.179" width="95.6514" height="95.6514" stroke="#2D323A" stroke-width="2.12052"/>
<path d="M1097.61 600.005H1195.39" stroke="#2D323A" stroke-width="2.12052"/>
<path d="M1146.5 551.119L1146.5 648.891" stroke="#2D323A" stroke-width="2.12052"/>
<rect x="1194.33" y="552.179" width="95.6514" height="95.6514" stroke="#2D323A" stroke-width="2.12052"/>
<path d="M1193.27 600.005H1291.04" stroke="#2D323A" stroke-width="2.12052"/>
<path d="M1242.15 551.119L1242.15 648.891" stroke="#2D323A" stroke-width="2.12052"/>
<rect x="1289.98" y="552.179" width="95.6514" height="95.6514" stroke="#2D323A" stroke-width="2.12052"/>
<path d="M1288.92 600.005H1386.69" stroke="#2D323A" stroke-width="2.12052"/>
<path d="M1337.8 551.119L1337.8 648.891" stroke="#2D323A" stroke-width="2.12052"/>
<rect x="1385.63" y="552.179" width="95.6514" height="95.6514" stroke="#2D323A" stroke-width="2.12052"/>
<path d="M1384.57 600.005H1482.34" stroke="#2D323A" stroke-width="2.12052"/>
<path d="M1433.45 551.119L1433.45 648.891" stroke="#2D323A" stroke-width="2.12052"/>
<rect x="1481.28" y="552.179" width="95.6514" height="95.6514" stroke="#2D323A" stroke-width="2.12052"/>
<path d="M1480.22 600.005H1577.99" stroke="#2D323A" stroke-width="2.12052"/>
<path d="M1529.11 551.119L1529.11 648.891" stroke="#2D323A" stroke-width="2.12052"/>
<rect x="1576.93" y="552.179" width="95.6514" height="95.6514" stroke="#2D323A" stroke-width="2.12052"/>
<path d="M1575.87 600.005H1673.64" stroke="#2D323A" stroke-width="2.12052"/>
<path d="M1624.76 551.119L1624.76 648.891" stroke="#2D323A" stroke-width="2.12052"/>
<rect x="1672.58" y="552.179" width="95.6514" height="95.6514" stroke="#2D323A" stroke-width="2.12052"/>
<path d="M1671.52 600.005H1769.3" stroke="#2D323A" stroke-width="2.12052"/>
<path d="M1720.41 551.119L1720.41 648.891" stroke="#2D323A" stroke-width="2.12052"/>
<rect x="524.766" y="647.831" width="95.6514" height="95.6514" stroke="#2D323A" stroke-width="2.12052"/>
<path d="M523.706 695.656H621.478" stroke="#2D323A" stroke-width="2.12052"/>
<path d="M572.591 646.77L572.591 744.542" stroke="#2D323A" stroke-width="2.12052"/>
<rect x="620.418" y="647.831" width="95.6514" height="95.6514" stroke="#2D323A" stroke-width="2.12052"/>
<path d="M619.357 695.656H717.129" stroke="#2D323A" stroke-width="2.12052"/>
<path d="M668.242 646.771L668.242 744.542" stroke="#2D323A" stroke-width="2.12052"/>
<rect x="716.069" y="647.831" width="95.6514" height="95.6514" stroke="#2D323A" stroke-width="2.12052"/>
<path d="M715.009 695.656H812.781" stroke="#2D323A" stroke-width="2.12052"/>
<path d="M763.896 646.77L763.896 744.542" stroke="#2D323A" stroke-width="2.12052"/>
<rect x="811.72" y="647.831" width="95.6514" height="95.6514" stroke="#2D323A" stroke-width="2.12052"/>
<path d="M810.66 695.656H908.432" stroke="#2D323A" stroke-width="2.12052"/>
<path d="M859.545 646.771L859.545 744.542" stroke="#2D323A" stroke-width="2.12052"/>
<rect x="907.372" y="647.831" width="95.6514" height="95.6514" stroke="#2D323A" stroke-width="2.12052"/>
<path d="M906.312 695.656H1004.08" stroke="#2D323A" stroke-width="2.12052"/>
<path d="M955.197 646.771L955.197 744.542" stroke="#2D323A" stroke-width="2.12052"/>
<rect x="1003.02" y="647.831" width="95.6514" height="95.6514" stroke="#2D323A" stroke-width="2.12052"/>
<path d="M1001.96 695.656H1099.73" stroke="#2D323A" stroke-width="2.12052"/>
<path d="M1050.85 646.77L1050.85 744.542" stroke="#2D323A" stroke-width="2.12052"/>
<rect x="1098.67" y="647.831" width="95.6514" height="95.6514" stroke="#2D323A" stroke-width="2.12052"/>
<path d="M1097.61 695.657H1195.39" stroke="#2D323A" stroke-width="2.12052"/>
<path d="M1146.5 646.771L1146.5 744.542" stroke="#2D323A" stroke-width="2.12052"/>
<rect x="1194.33" y="647.831" width="95.6514" height="95.6514" stroke="#2D323A" stroke-width="2.12052"/>
<path d="M1193.27 695.657H1291.04" stroke="#2D323A" stroke-width="2.12052"/>
<path d="M1242.15 646.77L1242.15 744.542" stroke="#2D323A" stroke-width="2.12052"/>
<rect x="1289.98" y="647.831" width="95.6514" height="95.6514" stroke="#2D323A" stroke-width="2.12052"/>
<path d="M1288.92 695.656H1386.69" stroke="#2D323A" stroke-width="2.12052"/>
<path d="M1337.8 646.77L1337.8 744.542" stroke="#2D323A" stroke-width="2.12052"/>
<rect x="1385.63" y="647.831" width="95.6514" height="95.6514" stroke="#2D323A" stroke-width="2.12052"/>
<path d="M1384.57 695.656H1482.34" stroke="#2D323A" stroke-width="2.12052"/>
<path d="M1433.45 646.77L1433.45 744.542" stroke="#2D323A" stroke-width="2.12052"/>
<rect x="1481.28" y="647.831" width="95.6514" height="95.6514" stroke="#2D323A" stroke-width="2.12052"/>
<path d="M1480.22 695.656H1577.99" stroke="#2D323A" stroke-width="2.12052"/>
<path d="M1529.11 646.771L1529.11 744.542" stroke="#2D323A" stroke-width="2.12052"/>
<rect x="1576.93" y="647.831" width="95.6514" height="95.6514" stroke="#2D323A" stroke-width="2.12052"/>
<path d="M1575.87 695.656H1673.64" stroke="#2D323A" stroke-width="2.12052"/>
<path d="M1624.76 646.77L1624.76 744.542" stroke="#2D323A" stroke-width="2.12052"/>
<rect x="1672.58" y="647.831" width="95.6514" height="95.6514" stroke="#2D323A" stroke-width="2.12052"/>
<path d="M1671.52 695.657H1769.3" stroke="#2D323A" stroke-width="2.12052"/>
<path d="M1720.41 646.77L1720.41 744.542" stroke="#2D323A" stroke-width="2.12052"/>
<rect x="524.766" y="743.482" width="95.6514" height="95.6514" stroke="#2D323A" stroke-width="2.12052"/>
<path d="M523.706 791.308H621.478" stroke="#2D323A" stroke-width="2.12052"/>
<path d="M572.591 742.422L572.591 840.194" stroke="#2D323A" stroke-width="2.12052"/>
<rect x="620.418" y="743.482" width="95.6514" height="95.6514" stroke="#2D323A" stroke-width="2.12052"/>
<path d="M619.357 791.308H717.129" stroke="#2D323A" stroke-width="2.12052"/>
<path d="M668.242 742.422L668.242 840.194" stroke="#2D323A" stroke-width="2.12052"/>
<rect x="716.069" y="743.482" width="95.6514" height="95.6514" stroke="#2D323A" stroke-width="2.12052"/>
<path d="M715.009 791.308H812.781" stroke="#2D323A" stroke-width="2.12052"/>
<path d="M763.896 742.422L763.896 840.194" stroke="#2D323A" stroke-width="2.12052"/>
<rect x="811.72" y="743.482" width="95.6514" height="95.6514" stroke="#2D323A" stroke-width="2.12052"/>
<path d="M810.66 791.308H908.432" stroke="#2D323A" stroke-width="2.12052"/>
<path d="M859.545 742.422L859.545 840.194" stroke="#2D323A" stroke-width="2.12052"/>
<rect x="907.372" y="743.482" width="95.6514" height="95.6514" stroke="#2D323A" stroke-width="2.12052"/>
<path d="M906.312 791.308H1004.08" stroke="#2D323A" stroke-width="2.12052"/>
<path d="M955.197 742.422L955.197 840.194" stroke="#2D323A" stroke-width="2.12052"/>
<rect x="1003.02" y="743.482" width="95.6514" height="95.6514" stroke="#2D323A" stroke-width="2.12052"/>
<path d="M1001.96 791.308H1099.73" stroke="#2D323A" stroke-width="2.12052"/>
<path d="M1050.85 742.422L1050.85 840.194" stroke="#2D323A" stroke-width="2.12052"/>
<rect x="1098.67" y="743.482" width="95.6514" height="95.6514" stroke="#2D323A" stroke-width="2.12052"/>
<path d="M1097.61 791.308H1195.39" stroke="#2D323A" stroke-width="2.12052"/>
<path d="M1146.5 742.422L1146.5 840.194" stroke="#2D323A" stroke-width="2.12052"/>
<rect x="1194.33" y="743.482" width="95.6514" height="95.6514" stroke="#2D323A" stroke-width="2.12052"/>
<path d="M1193.27 791.308H1291.04" stroke="#2D323A" stroke-width="2.12052"/>
<path d="M1242.15 742.422L1242.15 840.194" stroke="#2D323A" stroke-width="2.12052"/>
<rect x="1289.98" y="743.482" width="95.6514" height="95.6514" stroke="#2D323A" stroke-width="2.12052"/>
<path d="M1288.92 791.308H1386.69" stroke="#2D323A" stroke-width="2.12052"/>
<path d="M1337.8 742.422L1337.8 840.194" stroke="#2D323A" stroke-width="2.12052"/>
<rect x="1385.63" y="743.482" width="95.6514" height="95.6514" stroke="#2D323A" stroke-width="2.12052"/>
<path d="M1384.57 791.308H1482.34" stroke="#2D323A" stroke-width="2.12052"/>
<path d="M1433.45 742.422L1433.45 840.194" stroke="#2D323A" stroke-width="2.12052"/>
<rect x="1481.28" y="743.482" width="95.6514" height="95.6514" stroke="#2D323A" stroke-width="2.12052"/>
<path d="M1480.22 791.308H1577.99" stroke="#2D323A" stroke-width="2.12052"/>
<path d="M1529.11 742.422L1529.11 840.194" stroke="#2D323A" stroke-width="2.12052"/>
<rect x="1576.93" y="743.482" width="95.6514" height="95.6514" stroke="#2D323A" stroke-width="2.12052"/>
<path d="M1575.87 791.308H1673.64" stroke="#2D323A" stroke-width="2.12052"/>
<path d="M1624.76 742.422L1624.76 840.194" stroke="#2D323A" stroke-width="2.12052"/>
<rect x="1672.58" y="743.482" width="95.6514" height="95.6514" stroke="#2D323A" stroke-width="2.12052"/>
<path d="M1671.52 791.308H1769.3" stroke="#2D323A" stroke-width="2.12052"/>
<path d="M1720.41 742.422L1720.41 840.194" stroke="#2D323A" stroke-width="2.12052"/>
<rect x="524.766" y="839.134" width="95.6514" height="95.6514" stroke="#2D323A" stroke-width="2.12052"/>
<path d="M523.706 886.96H621.478" stroke="#2D323A" stroke-width="2.12052"/>
<path d="M572.591 838.073L572.591 935.845" stroke="#2D323A" stroke-width="2.12052"/>
<rect x="620.418" y="839.134" width="95.6514" height="95.6514" stroke="#2D323A" stroke-width="2.12052"/>
<path d="M619.357 886.959H717.129" stroke="#2D323A" stroke-width="2.12052"/>
<path d="M668.242 838.073L668.242 935.845" stroke="#2D323A" stroke-width="2.12052"/>
<rect x="716.069" y="839.134" width="95.6514" height="95.6514" stroke="#2D323A" stroke-width="2.12052"/>
<path d="M715.009 886.959H812.781" stroke="#2D323A" stroke-width="2.12052"/>
<path d="M763.896 838.073L763.896 935.845" stroke="#2D323A" stroke-width="2.12052"/>
<rect x="811.72" y="839.134" width="95.6514" height="95.6514" stroke="#2D323A" stroke-width="2.12052"/>
<path d="M810.66 886.959H908.432" stroke="#2D323A" stroke-width="2.12052"/>
<path d="M859.545 838.073L859.545 935.845" stroke="#2D323A" stroke-width="2.12052"/>
<rect x="907.372" y="839.134" width="95.6514" height="95.6514" stroke="#2D323A" stroke-width="2.12052"/>
<path d="M906.312 886.959H1004.08" stroke="#2D323A" stroke-width="2.12052"/>
<path d="M955.197 838.073L955.197 935.845" stroke="#2D323A" stroke-width="2.12052"/>
<rect x="1003.02" y="839.134" width="95.6514" height="95.6514" stroke="#2D323A" stroke-width="2.12052"/>
<path d="M1001.96 886.959H1099.73" stroke="#2D323A" stroke-width="2.12052"/>
<path d="M1050.85 838.073L1050.85 935.845" stroke="#2D323A" stroke-width="2.12052"/>
<rect x="1098.67" y="839.134" width="95.6514" height="95.6514" stroke="#2D323A" stroke-width="2.12052"/>
<path d="M1097.61 886.96H1195.39" stroke="#2D323A" stroke-width="2.12052"/>
<path d="M1146.5 838.073L1146.5 935.845" stroke="#2D323A" stroke-width="2.12052"/>
<rect x="1194.33" y="839.134" width="95.6514" height="95.6514" stroke="#2D323A" stroke-width="2.12052"/>
<path d="M1193.27 886.96H1291.04" stroke="#2D323A" stroke-width="2.12052"/>
<path d="M1242.15 838.073L1242.15 935.845" stroke="#2D323A" stroke-width="2.12052"/>
<rect x="1289.98" y="839.134" width="95.6514" height="95.6514" stroke="#2D323A" stroke-width="2.12052"/>
<path d="M1288.92 886.959H1386.69" stroke="#2D323A" stroke-width="2.12052"/>
<path d="M1337.8 838.073L1337.8 935.845" stroke="#2D323A" stroke-width="2.12052"/>
<rect x="1385.63" y="839.134" width="95.6514" height="95.6514" stroke="#2D323A" stroke-width="2.12052"/>
<path d="M1384.57 886.959H1482.34" stroke="#2D323A" stroke-width="2.12052"/>
<path d="M1433.45 838.073L1433.45 935.845" stroke="#2D323A" stroke-width="2.12052"/>
<rect x="1481.28" y="839.134" width="95.6514" height="95.6514" stroke="#2D323A" stroke-width="2.12052"/>
<path d="M1480.22 886.959H1577.99" stroke="#2D323A" stroke-width="2.12052"/>
<path d="M1529.11 838.073L1529.11 935.845" stroke="#2D323A" stroke-width="2.12052"/>
<rect x="1576.93" y="839.134" width="95.6514" height="95.6514" stroke="#2D323A" stroke-width="2.12052"/>
<path d="M1575.87 886.96H1673.64" stroke="#2D323A" stroke-width="2.12052"/>
<path d="M1624.76 838.073L1624.76 935.845" stroke="#2D323A" stroke-width="2.12052"/>
<rect x="1672.58" y="839.134" width="95.6514" height="95.6514" stroke="#2D323A" stroke-width="2.12052"/>
<path d="M1671.52 886.96H1769.3" stroke="#2D323A" stroke-width="2.12052"/>
<path d="M1720.41 838.073L1720.41 935.845" stroke="#2D323A" stroke-width="2.12052"/>
<rect x="524.766" y="934.785" width="95.6514" height="95.6514" stroke="#2D323A" stroke-width="2.12052"/>
<path d="M523.706 982.611H621.478" stroke="#2D323A" stroke-width="2.12052"/>
<path d="M572.591 933.725L572.591 1031.5" stroke="#2D323A" stroke-width="2.12052"/>
<rect x="620.418" y="934.785" width="95.6514" height="95.6514" stroke="#2D323A" stroke-width="2.12052"/>
<path d="M619.357 982.611H717.129" stroke="#2D323A" stroke-width="2.12052"/>
<path d="M668.242 933.725L668.242 1031.5" stroke="#2D323A" stroke-width="2.12052"/>
<rect x="716.069" y="934.785" width="95.6514" height="95.6514" stroke="#2D323A" stroke-width="2.12052"/>
<path d="M715.009 982.611H812.781" stroke="#2D323A" stroke-width="2.12052"/>
<path d="M763.896 933.725L763.896 1031.5" stroke="#2D323A" stroke-width="2.12052"/>
<rect x="811.72" y="934.785" width="95.6514" height="95.6514" stroke="#2D323A" stroke-width="2.12052"/>
<path d="M810.66 982.611H908.432" stroke="#2D323A" stroke-width="2.12052"/>
<path d="M859.545 933.725L859.545 1031.5" stroke="#2D323A" stroke-width="2.12052"/>
<rect x="907.372" y="934.785" width="95.6514" height="95.6514" stroke="#2D323A" stroke-width="2.12052"/>
<path d="M906.312 982.611H1004.08" stroke="#2D323A" stroke-width="2.12052"/>
<path d="M955.197 933.725L955.197 1031.5" stroke="#2D323A" stroke-width="2.12052"/>
<rect x="1003.02" y="934.785" width="95.6514" height="95.6514" stroke="#2D323A" stroke-width="2.12052"/>
<path d="M1001.96 982.611H1099.73" stroke="#2D323A" stroke-width="2.12052"/>
<path d="M1050.85 933.725L1050.85 1031.5" stroke="#2D323A" stroke-width="2.12052"/>
<rect x="1098.67" y="934.785" width="95.6514" height="95.6514" stroke="#2D323A" stroke-width="2.12052"/>
<path d="M1097.61 982.611H1195.39" stroke="#2D323A" stroke-width="2.12052"/>
<path d="M1146.5 933.725L1146.5 1031.5" stroke="#2D323A" stroke-width="2.12052"/>
<rect x="1194.33" y="934.785" width="95.6514" height="95.6514" stroke="#2D323A" stroke-width="2.12052"/>
<path d="M1193.27 982.611H1291.04" stroke="#2D323A" stroke-width="2.12052"/>
<path d="M1242.15 933.725L1242.15 1031.5" stroke="#2D323A" stroke-width="2.12052"/>
<rect x="1289.98" y="934.785" width="95.6514" height="95.6514" stroke="#2D323A" stroke-width="2.12052"/>
<path d="M1288.92 982.611H1386.69" stroke="#2D323A" stroke-width="2.12052"/>
<path d="M1337.8 933.725L1337.8 1031.5" stroke="#2D323A" stroke-width="2.12052"/>
<rect x="1385.63" y="934.785" width="95.6514" height="95.6514" stroke="#2D323A" stroke-width="2.12052"/>
<path d="M1384.57 982.611H1482.34" stroke="#2D323A" stroke-width="2.12052"/>
<path d="M1433.45 933.725L1433.45 1031.5" stroke="#2D323A" stroke-width="2.12052"/>
<rect x="1481.28" y="934.785" width="95.6514" height="95.6514" stroke="#2D323A" stroke-width="2.12052"/>
<path d="M1480.22 982.611H1577.99" stroke="#2D323A" stroke-width="2.12052"/>
<path d="M1529.11 933.725L1529.11 1031.5" stroke="#2D323A" stroke-width="2.12052"/>
<rect x="1576.93" y="934.785" width="95.6514" height="95.6514" stroke="#2D323A" stroke-width="2.12052"/>
<path d="M1575.87 982.611H1673.64" stroke="#2D323A" stroke-width="2.12052"/>
<path d="M1624.76 933.725L1624.76 1031.5" stroke="#2D323A" stroke-width="2.12052"/>
<rect x="1672.58" y="934.785" width="95.6514" height="95.6514" stroke="#2D323A" stroke-width="2.12052"/>
<path d="M1671.52 982.611H1769.3" stroke="#2D323A" stroke-width="2.12052"/>
<path d="M1720.41 933.725L1720.41 1031.5" stroke="#2D323A" stroke-width="2.12052"/>
<path d="M524.766 1030.44H620.418V1126.09H554.26C537.971 1126.09 524.766 1112.88 524.766 1096.59V1030.44Z" stroke="#2D323A" stroke-width="2.12052"/>
<path d="M523.706 1078.26H621.478" stroke="#2D323A" stroke-width="2.12052"/>
<path d="M572.591 1029.38L572.591 1127.15" stroke="#2D323A" stroke-width="2.12052"/>
<rect x="620.418" y="1030.44" width="95.6514" height="95.6514" stroke="#2D323A" stroke-width="2.12052"/>
<path d="M619.357 1078.26H717.129" stroke="#2D323A" stroke-width="2.12052"/>
<path d="M668.242 1029.38L668.242 1127.15" stroke="#2D323A" stroke-width="2.12052"/>
<rect x="716.069" y="1030.44" width="95.6514" height="95.6514" stroke="#2D323A" stroke-width="2.12052"/>
<path d="M715.009 1078.26H812.781" stroke="#2D323A" stroke-width="2.12052"/>
<path d="M763.896 1029.38L763.896 1127.15" stroke="#2D323A" stroke-width="2.12052"/>
<rect x="811.72" y="1030.44" width="95.6514" height="95.6514" stroke="#2D323A" stroke-width="2.12052"/>
<path d="M810.66 1078.26H908.432" stroke="#2D323A" stroke-width="2.12052"/>
<path d="M859.545 1029.38L859.545 1127.15" stroke="#2D323A" stroke-width="2.12052"/>
<rect x="907.372" y="1030.44" width="95.6514" height="95.6514" stroke="#2D323A" stroke-width="2.12052"/>
<path d="M906.312 1078.26H1004.08" stroke="#2D323A" stroke-width="2.12052"/>
<path d="M955.197 1029.38L955.197 1127.15" stroke="#2D323A" stroke-width="2.12052"/>
<rect x="1003.02" y="1030.44" width="95.6514" height="95.6514" stroke="#2D323A" stroke-width="2.12052"/>
<path d="M1001.96 1078.26H1099.73" stroke="#2D323A" stroke-width="2.12052"/>
<path d="M1050.85 1029.38L1050.85 1127.15" stroke="#2D323A" stroke-width="2.12052"/>
<rect x="1098.67" y="1030.44" width="95.6514" height="95.6514" stroke="#2D323A" stroke-width="2.12052"/>
<path d="M1097.61 1078.26H1195.39" stroke="#2D323A" stroke-width="2.12052"/>
<path d="M1146.5 1029.38L1146.5 1127.15" stroke="#2D323A" stroke-width="2.12052"/>
<rect x="1194.33" y="1030.44" width="95.6514" height="95.6514" stroke="#2D323A" stroke-width="2.12052"/>
<path d="M1193.27 1078.26H1291.04" stroke="#2D323A" stroke-width="2.12052"/>
<path d="M1242.15 1029.38L1242.15 1127.15" stroke="#2D323A" stroke-width="2.12052"/>
<rect x="1289.98" y="1030.44" width="95.6514" height="95.6514" stroke="#2D323A" stroke-width="2.12052"/>
<path d="M1288.92 1078.26H1386.69" stroke="#2D323A" stroke-width="2.12052"/>
<path d="M1337.8 1029.38L1337.8 1127.15" stroke="#2D323A" stroke-width="2.12052"/>
<rect x="1385.63" y="1030.44" width="95.6514" height="95.6514" stroke="#2D323A" stroke-width="2.12052"/>
<path d="M1384.57 1078.26H1482.34" stroke="#2D323A" stroke-width="2.12052"/>
<path d="M1433.45 1029.38L1433.45 1127.15" stroke="#2D323A" stroke-width="2.12052"/>
<rect x="1481.28" y="1030.44" width="95.6514" height="95.6514" stroke="#2D323A" stroke-width="2.12052"/>
<path d="M1480.22 1078.26H1577.99" stroke="#2D323A" stroke-width="2.12052"/>
<path d="M1529.1 1029.38L1529.1 1127.15" stroke="#2D323A" stroke-width="2.12052"/>
<rect x="1576.93" y="1030.44" width="95.6514" height="95.6514" stroke="#2D323A" stroke-width="2.12052"/>
<path d="M1575.87 1078.26H1673.64" stroke="#2D323A" stroke-width="2.12052"/>
<path d="M1624.76 1029.38L1624.76 1127.15" stroke="#2D323A" stroke-width="2.12052"/>
<path d="M1672.58 1030.44H1768.24V1096.59C1768.24 1112.88 1755.03 1126.09 1738.74 1126.09H1672.58V1030.44Z" stroke="#2D323A" stroke-width="2.12052"/>
<path d="M1671.52 1078.26H1769.3" stroke="#2D323A" stroke-width="2.12052"/>
<path d="M1720.41 1029.38L1720.41 1127.15" stroke="#2D323A" stroke-width="2.12052"/>
</g>
<g filter="url(#filter4_d_96_28815)">
<g clip-path="url(#clip1_96_28815)">
<rect x="620.065" y="170.067" width="1052.87" height="859.875" rx="36.5903" fill="#F3FAFB"/>
<g clip-path="url(#clip2_96_28815)">
<g filter="url(#filter5_d_96_28815)">
<g clip-path="url(#clip3_96_28815)">
<g clip-path="url(#clip4_96_28815)">
<rect width="3009.55" height="1378.49" transform="translate(-1335.84 -347.77)" fill="white"/>
<rect width="721.197" height="663.379" transform="translate(-813.669 -346.504)" fill="white"/>
<path d="M1202.96 972.749C1200.81 972.749 1198.94 972.412 1197.36 971.738C1195.77 971.038 1194.54 970 1193.66 968.626C1192.78 967.251 1192.31 965.579 1192.26 963.608H1196.15C1196.15 965.397 1196.79 966.785 1198.06 967.77C1199.33 968.756 1201.01 969.248 1203.11 969.248H1203.5C1205.27 969.248 1206.64 968.859 1207.63 968.081C1208.64 967.303 1209.14 966.331 1209.14 965.164C1209.14 964.075 1208.79 963.193 1208.09 962.519C1207.39 961.845 1206.32 961.365 1204.86 961.08L1200.51 960.185C1198.28 959.718 1196.57 958.862 1195.37 957.618C1194.21 956.347 1193.62 954.648 1193.62 952.522C1193.62 951.096 1194.02 949.799 1194.83 948.632C1195.66 947.439 1196.8 946.493 1198.25 945.793C1199.73 945.092 1201.43 944.742 1203.35 944.742C1205.34 944.742 1207.08 945.092 1208.56 945.793C1210.06 946.493 1211.23 947.491 1212.06 948.788C1212.92 950.058 1213.37 951.563 1213.42 953.3H1209.53C1209.43 951.77 1208.82 950.551 1207.7 949.644C1206.61 948.71 1205.23 948.243 1203.54 948.243H1203.15C1202.04 948.243 1201.05 948.425 1200.2 948.788C1199.34 949.151 1198.68 949.657 1198.21 950.305C1197.75 950.953 1197.51 951.679 1197.51 952.483C1197.51 953.494 1197.84 954.324 1198.48 954.973C1199.13 955.621 1200.05 956.062 1201.25 956.295L1205.6 957.151C1208.01 957.618 1209.86 958.499 1211.13 959.796C1212.4 961.093 1213.03 962.83 1213.03 965.008C1213.03 966.59 1212.6 967.965 1211.75 969.132C1210.92 970.299 1209.74 971.193 1208.21 971.816C1206.71 972.438 1204.95 972.749 1202.96 972.749ZM1218.13 952.911H1221.82V955.634C1222.32 954.752 1223.17 954.013 1224.39 953.417C1225.61 952.82 1226.89 952.522 1228.24 952.522C1229.87 952.522 1231.31 952.924 1232.56 953.728C1233.83 954.532 1234.81 955.699 1235.51 957.229C1236.24 958.733 1236.6 960.535 1236.6 962.636C1236.6 964.71 1236.21 966.512 1235.44 968.042C1234.68 969.572 1233.63 970.739 1232.29 971.543C1230.96 972.347 1229.49 972.749 1227.85 972.749C1226.53 972.749 1225.31 972.464 1224.2 971.893C1223.11 971.297 1222.32 970.545 1221.82 969.637V980.14H1218.13V952.911ZM1227.62 969.637C1228.63 969.637 1229.52 969.378 1230.3 968.859C1231.11 968.315 1231.74 967.524 1232.21 966.486C1232.68 965.423 1232.91 964.14 1232.91 962.636C1232.91 960.379 1232.42 958.655 1231.43 957.462C1230.44 956.243 1229.17 955.634 1227.62 955.634H1227.31C1226.35 955.634 1225.45 955.906 1224.62 956.451C1223.79 956.969 1223.12 957.76 1222.6 958.824C1222.08 959.887 1221.82 961.157 1221.82 962.636C1221.82 964.114 1222.08 965.384 1222.6 966.448C1223.12 967.511 1223.79 968.315 1224.62 968.859C1225.45 969.378 1226.35 969.637 1227.31 969.637H1227.62ZM1249.43 972.749C1247.69 972.749 1246.11 972.321 1244.68 971.465C1243.26 970.61 1242.13 969.417 1241.3 967.887C1240.5 966.357 1240.09 964.606 1240.09 962.636C1240.09 960.665 1240.5 958.914 1241.3 957.384C1242.13 955.854 1243.26 954.661 1244.68 953.806C1246.11 952.95 1247.69 952.522 1249.43 952.522C1251.17 952.522 1252.75 952.95 1254.17 953.806C1255.6 954.661 1256.72 955.854 1257.52 957.384C1258.35 958.914 1258.76 960.665 1258.76 962.636C1258.76 964.606 1258.35 966.357 1257.52 967.887C1256.72 969.417 1255.6 970.61 1254.17 971.465C1252.75 972.321 1251.17 972.749 1249.43 972.749ZM1249.58 969.637C1250.65 969.637 1251.59 969.365 1252.42 968.82C1253.25 968.25 1253.9 967.446 1254.37 966.409C1254.84 965.345 1255.07 964.088 1255.07 962.636C1255.07 961.183 1254.84 959.939 1254.37 958.901C1253.9 957.838 1253.25 957.034 1252.42 956.49C1251.59 955.919 1250.65 955.634 1249.58 955.634H1249.27C1248.21 955.634 1247.26 955.919 1246.43 956.49C1245.6 957.034 1244.96 957.838 1244.49 958.901C1244.02 959.939 1243.79 961.183 1243.79 962.636C1243.79 964.088 1244.02 965.345 1244.49 966.409C1244.96 967.446 1245.6 968.25 1246.43 968.82C1247.26 969.365 1248.21 969.637 1249.27 969.637H1249.58ZM1263.41 952.911H1267.1V955.634C1267.75 954.674 1268.58 953.922 1269.59 953.378C1270.6 952.807 1271.85 952.522 1273.33 952.522C1274.8 952.522 1276.06 952.807 1277.1 953.378C1278.16 953.922 1278.97 954.713 1279.51 955.751C1280.06 956.762 1280.33 957.955 1280.33 959.329V972.36H1276.63V960.107C1276.63 959.174 1276.49 958.383 1276.2 957.734C1275.95 957.06 1275.52 956.542 1274.92 956.178C1274.35 955.815 1273.61 955.634 1272.7 955.634H1272.39C1271.46 955.634 1270.59 955.867 1269.79 956.334C1268.98 956.801 1268.33 957.475 1267.84 958.357C1267.35 959.238 1267.1 960.276 1267.1 961.469V972.36H1263.41V952.911ZM1292.47 972.749C1289.95 972.749 1287.99 972.153 1286.59 970.96C1285.19 969.767 1284.49 968.224 1284.49 966.331H1288.19C1288.29 967.446 1288.73 968.276 1289.51 968.82C1290.29 969.365 1291.29 969.637 1292.51 969.637H1292.82C1293.85 969.637 1294.71 969.404 1295.38 968.937C1296.08 968.47 1296.43 967.861 1296.43 967.109C1296.43 966.461 1296.23 965.929 1295.81 965.514C1295.4 965.099 1294.72 964.801 1293.79 964.619L1290.95 964.075C1289.24 963.738 1287.86 963.115 1286.83 962.208C1285.79 961.3 1285.27 960.068 1285.27 958.512C1285.27 957.268 1285.61 956.191 1286.28 955.284C1286.96 954.376 1287.85 953.689 1288.97 953.222C1290.08 952.755 1291.3 952.522 1292.62 952.522C1295.09 952.522 1296.98 953.118 1298.3 954.311C1299.65 955.478 1300.32 957.021 1300.32 958.94H1296.63C1296.53 957.981 1296.16 957.19 1295.54 956.567C1294.92 955.945 1294.01 955.634 1292.82 955.634H1292.51C1291.44 955.634 1290.59 955.88 1289.94 956.373C1289.29 956.84 1288.97 957.423 1288.97 958.123C1288.97 958.798 1289.17 959.342 1289.59 959.757C1290.03 960.146 1290.73 960.431 1291.69 960.613L1294.76 961.235C1296.4 961.546 1297.69 962.169 1298.65 963.102C1299.64 964.01 1300.13 965.281 1300.13 966.914C1300.13 968.055 1299.81 969.08 1299.16 969.987C1298.51 970.869 1297.6 971.556 1296.43 972.049C1295.29 972.516 1293.97 972.749 1292.47 972.749ZM1313.09 972.749C1311.36 972.749 1309.77 972.321 1308.35 971.465C1306.92 970.61 1305.79 969.417 1304.96 967.887C1304.16 966.357 1303.76 964.606 1303.76 962.636C1303.76 960.665 1304.16 958.914 1304.96 957.384C1305.79 955.854 1306.92 954.661 1308.35 953.806C1309.77 952.95 1311.36 952.522 1313.09 952.522C1314.83 952.522 1316.41 952.95 1317.84 953.806C1319.27 954.661 1320.38 955.854 1321.18 957.384C1322.01 958.914 1322.43 960.665 1322.43 962.636C1322.43 964.606 1322.01 966.357 1321.18 967.887C1320.38 969.417 1319.27 970.61 1317.84 971.465C1316.41 972.321 1314.83 972.749 1313.09 972.749ZM1313.25 969.637C1314.31 969.637 1315.26 969.365 1316.09 968.82C1316.92 968.25 1317.57 967.446 1318.03 966.409C1318.5 965.345 1318.73 964.088 1318.73 962.636C1318.73 961.183 1318.5 959.939 1318.03 958.901C1317.57 957.838 1316.92 957.034 1316.09 956.49C1315.26 955.919 1314.31 955.634 1313.25 955.634H1312.94C1311.88 955.634 1310.93 955.919 1310.1 956.49C1309.27 957.034 1308.62 957.838 1308.15 958.901C1307.69 959.939 1307.45 961.183 1307.45 962.636C1307.45 964.088 1307.69 965.345 1308.15 966.409C1308.62 967.446 1309.27 968.25 1310.1 968.82C1310.93 969.365 1311.88 969.637 1312.94 969.637H1313.25ZM1327.07 952.911H1330.57V957.19C1330.96 955.764 1331.66 954.661 1332.67 953.883C1333.71 953.105 1334.89 952.717 1336.21 952.717H1337.96V956.295H1336.41C1334.64 956.295 1333.26 956.853 1332.25 957.968C1331.26 959.057 1330.77 960.574 1330.77 962.519V972.36H1327.07V952.911ZM1349.1 972.749C1347.44 972.749 1345.91 972.373 1344.51 971.621C1343.14 970.843 1342.02 969.689 1341.17 968.159C1340.34 966.629 1339.92 964.775 1339.92 962.597C1339.92 960.444 1340.34 958.616 1341.17 957.112C1342.02 955.582 1343.14 954.441 1344.51 953.689C1345.91 952.911 1347.4 952.522 1348.99 952.522C1350.65 952.522 1352.1 952.885 1353.34 953.611C1354.59 954.311 1355.55 955.31 1356.22 956.606C1356.9 957.903 1357.23 959.394 1357.23 961.08C1357.23 961.78 1357.23 962.493 1357.23 963.219H1343.62C1343.7 964.619 1344.01 965.799 1344.55 966.759C1345.1 967.718 1345.77 968.444 1346.57 968.937C1347.4 969.404 1348.23 969.637 1349.06 969.637H1349.37C1350.39 969.637 1351.28 969.378 1352.06 968.859C1352.84 968.341 1353.32 967.589 1353.5 966.603H1357.19C1356.86 968.522 1355.94 970.026 1354.43 971.115C1352.93 972.205 1351.15 972.749 1349.1 972.749ZM1353.54 960.302C1353.46 958.72 1353.01 957.553 1352.18 956.801C1351.37 956.023 1350.36 955.634 1349.14 955.634H1348.83C1347.69 955.634 1346.65 956.01 1345.72 956.762C1344.81 957.514 1344.19 958.694 1343.85 960.302H1353.54ZM1369.26 972.749C1367.62 972.749 1366.17 972.347 1364.9 971.543C1363.65 970.739 1362.67 969.585 1361.94 968.081C1361.24 966.551 1360.89 964.736 1360.89 962.636C1360.89 960.561 1361.27 958.759 1362.02 957.229C1362.8 955.699 1363.85 954.532 1365.17 953.728C1366.52 952.924 1368.01 952.522 1369.64 952.522C1370.97 952.522 1372.17 952.82 1373.26 953.417C1374.38 953.987 1375.18 954.726 1375.67 955.634V945.131H1379.37V972.36H1375.67V969.637C1375.18 970.519 1374.32 971.258 1373.11 971.854C1371.89 972.451 1370.6 972.749 1369.26 972.749ZM1370.19 969.637C1371.15 969.637 1372.04 969.378 1372.87 968.859C1373.7 968.315 1374.38 967.511 1374.9 966.448C1375.41 965.384 1375.67 964.114 1375.67 962.636C1375.67 961.157 1375.41 959.887 1374.9 958.824C1374.38 957.76 1373.7 956.969 1372.87 956.451C1372.04 955.906 1371.15 955.634 1370.19 955.634H1369.88C1368.87 955.634 1367.96 955.906 1367.15 956.451C1366.38 956.969 1365.75 957.76 1365.29 958.824C1364.82 959.861 1364.59 961.131 1364.59 962.636C1364.59 964.892 1365.08 966.629 1366.07 967.848C1367.05 969.041 1368.32 969.637 1369.88 969.637H1370.19ZM1392.39 952.911H1396.21L1402.23 969.832H1401.46L1407.49 952.911H1411.26L1404.06 972.36H1399.59L1392.39 952.911ZM1414.78 952.911H1418.48V972.36H1414.78V952.911ZM1414.59 945.131H1418.67V949.41H1414.59V945.131ZM1431.75 972.749C1430.11 972.749 1428.65 972.347 1427.35 971.543C1426.06 970.739 1425.03 969.572 1424.28 968.042C1423.55 966.512 1423.19 964.71 1423.19 962.636C1423.19 960.561 1423.55 958.759 1424.28 957.229C1425.03 955.699 1426.06 954.532 1427.35 953.728C1428.65 952.924 1430.11 952.522 1431.75 952.522C1433.28 952.522 1434.54 952.794 1435.52 953.339C1436.51 953.883 1437.32 954.648 1437.97 955.634V952.911H1441.67V972.36H1437.97V969.637C1437.32 970.623 1436.51 971.388 1435.52 971.932C1434.54 972.477 1433.28 972.749 1431.75 972.749ZM1432.53 969.637C1433.46 969.637 1434.34 969.378 1435.17 968.859C1436 968.315 1436.67 967.511 1437.19 966.448C1437.71 965.384 1437.97 964.114 1437.97 962.636C1437.97 961.157 1437.71 959.887 1437.19 958.824C1436.67 957.76 1436 956.969 1435.17 956.451C1434.34 955.906 1433.46 955.634 1432.53 955.634H1432.14C1431.15 955.634 1430.26 955.906 1429.45 956.451C1428.65 956.969 1428.01 957.76 1427.55 958.824C1427.11 959.861 1426.89 961.131 1426.89 962.636C1426.89 964.14 1427.11 965.423 1427.55 966.486C1428.01 967.524 1428.65 968.315 1429.45 968.859C1430.26 969.378 1431.15 969.637 1432.14 969.637H1432.53ZM1468.77 972.749C1466.23 972.749 1463.99 972.153 1462.04 970.96C1460.1 969.767 1458.59 968.107 1457.53 965.981C1456.47 963.854 1455.94 961.443 1455.94 958.746C1455.94 956.023 1456.47 953.611 1457.53 951.511C1458.62 949.384 1460.16 947.725 1462.16 946.532C1464.16 945.339 1466.49 944.742 1469.16 944.742C1471.42 944.742 1473.35 945.144 1474.96 945.948C1476.59 946.752 1477.85 947.854 1478.73 949.255C1479.61 950.655 1480.12 952.263 1480.25 954.078H1476.36C1476.18 952.211 1475.48 950.772 1474.26 949.76C1473.04 948.749 1471.4 948.243 1469.36 948.243H1468.97C1467.15 948.243 1465.56 948.658 1464.18 949.488C1462.81 950.318 1461.73 951.524 1460.95 953.105C1460.2 954.687 1459.83 956.567 1459.83 958.746C1459.83 960.924 1460.2 962.804 1460.95 964.386C1461.73 965.968 1462.81 967.174 1464.18 968.004C1465.56 968.833 1467.15 969.248 1468.97 969.248H1469.36C1470.91 969.248 1472.26 968.963 1473.4 968.392C1474.57 967.796 1475.45 967.005 1476.05 966.02C1476.64 965.034 1476.94 963.945 1476.94 962.752V962.013H1469.16V958.551H1477.14C1478.2 958.551 1479.02 958.837 1479.59 959.407C1480.16 959.978 1480.44 960.794 1480.44 961.858V972.36H1476.94V969.287C1476.63 969.754 1476.11 970.26 1475.39 970.804C1474.69 971.323 1473.76 971.777 1472.62 972.166C1471.48 972.555 1470.2 972.749 1468.77 972.749ZM1485.67 952.911H1489.36V972.36H1485.67V952.911ZM1485.47 945.131H1489.56V949.41H1485.47V945.131ZM1501.5 972.36C1500.15 972.36 1499.1 971.984 1498.35 971.232C1497.6 970.48 1497.22 969.43 1497.22 968.081V956.101H1492.94V952.911H1497.22V946.609H1500.92V952.911H1505.59V956.101H1500.92V967.498C1500.92 968.068 1501.04 968.47 1501.27 968.704C1501.5 968.937 1501.9 969.054 1502.47 969.054H1506.17V972.36H1501.5ZM1510.75 945.131H1522.62C1524.04 945.131 1525.35 945.43 1526.54 946.026C1527.74 946.597 1528.67 947.426 1529.34 948.516C1530.04 949.605 1530.39 950.875 1530.39 952.328C1530.39 953.832 1529.99 955.115 1529.19 956.178C1528.38 957.242 1527.31 958.033 1525.96 958.551C1527.52 958.811 1528.73 959.511 1529.62 960.652C1530.52 961.767 1530.98 963.206 1530.98 964.969C1530.98 966.422 1530.62 967.718 1529.89 968.859C1529.16 969.974 1528.19 970.843 1526.97 971.465C1525.75 972.062 1524.43 972.36 1523 972.36H1510.75V945.131ZM1522.23 968.859C1523.7 968.859 1524.88 968.483 1525.77 967.731C1526.65 966.979 1527.09 965.929 1527.09 964.58C1527.09 963.232 1526.65 962.182 1525.77 961.43C1524.88 960.678 1523.7 960.302 1522.23 960.302H1514.64V968.859H1522.23ZM1522.03 956.801C1523.41 956.801 1524.5 956.438 1525.3 955.712C1526.1 954.986 1526.5 953.987 1526.5 952.717C1526.5 951.446 1526.1 950.447 1525.3 949.721C1524.5 948.995 1523.41 948.632 1522.03 948.632H1514.64V956.801H1522.03ZM1544.09 972.749C1542.35 972.749 1540.77 972.321 1539.34 971.465C1537.92 970.61 1536.79 969.417 1535.96 967.887C1535.16 966.357 1534.75 964.606 1534.75 962.636C1534.75 960.665 1535.16 958.914 1535.96 957.384C1536.79 955.854 1537.92 954.661 1539.34 953.806C1540.77 952.95 1542.35 952.522 1544.09 952.522C1545.83 952.522 1547.41 952.95 1548.84 953.806C1550.26 954.661 1551.38 955.854 1552.18 957.384C1553.01 958.914 1553.43 960.665 1553.43 962.636C1553.43 964.606 1553.01 966.357 1552.18 967.887C1551.38 969.417 1550.26 970.61 1548.84 971.465C1547.41 972.321 1545.83 972.749 1544.09 972.749ZM1544.25 969.637C1545.31 969.637 1546.26 969.365 1547.09 968.82C1547.92 968.25 1548.56 967.446 1549.03 966.409C1549.5 965.345 1549.73 964.088 1549.73 962.636C1549.73 961.183 1549.5 959.939 1549.03 958.901C1548.56 957.838 1547.92 957.034 1547.09 956.49C1546.26 955.919 1545.31 955.634 1544.25 955.634H1543.93C1542.87 955.634 1541.92 955.919 1541.09 956.49C1540.27 957.034 1539.62 957.838 1539.15 958.901C1538.68 959.939 1538.45 961.183 1538.45 962.636C1538.45 964.088 1538.68 965.345 1539.15 966.409C1539.62 967.446 1540.27 968.25 1541.09 968.82C1541.92 969.365 1542.87 969.637 1543.93 969.637H1544.25ZM1566.2 972.749C1564.46 972.749 1562.88 972.321 1561.45 971.465C1560.03 970.61 1558.9 969.417 1558.07 967.887C1557.26 966.357 1556.86 964.606 1556.86 962.636C1556.86 960.665 1557.26 958.914 1558.07 957.384C1558.9 955.854 1560.03 954.661 1561.45 953.806C1562.88 952.95 1564.46 952.522 1566.2 952.522C1567.94 952.522 1569.52 952.95 1570.94 953.806C1572.37 954.661 1573.49 955.854 1574.29 957.384C1575.12 958.914 1575.53 960.665 1575.53 962.636C1575.53 964.606 1575.12 966.357 1574.29 967.887C1573.49 969.417 1572.37 970.61 1570.94 971.465C1569.52 972.321 1567.94 972.749 1566.2 972.749ZM1566.35 969.637C1567.42 969.637 1568.36 969.365 1569.19 968.82C1570.02 968.25 1570.67 967.446 1571.14 966.409C1571.61 965.345 1571.84 964.088 1571.84 962.636C1571.84 961.183 1571.61 959.939 1571.14 958.901C1570.67 957.838 1570.02 957.034 1569.19 956.49C1568.36 955.919 1567.42 955.634 1566.35 955.634H1566.04C1564.98 955.634 1564.03 955.919 1563.2 956.49C1562.37 957.034 1561.73 957.838 1561.26 958.901C1560.79 959.939 1560.56 961.183 1560.56 962.636C1560.56 964.088 1560.79 965.345 1561.26 966.409C1561.73 967.446 1562.37 968.25 1563.2 968.82C1564.03 969.365 1564.98 969.637 1566.04 969.637H1566.35ZM1580.18 945.131H1583.87V961.313L1592.43 952.911H1597.29L1589.2 960.652L1597.68 972.36H1593.13L1586.56 963.18L1583.87 965.786V972.36H1580.18V945.131Z" fill="#656973"/>
<rect x="1097.26" y="761.01" width="445.448" height="26.1624" rx="13.0812" fill="white"/>
<rect x="1097.26" y="805.014" width="445.448" height="26.1624" rx="13.0812" fill="white"/>
<rect x="1097.26" y="849.019" width="330.529" height="26.1624" rx="13.0812" fill="white"/>
<path d="M376.453 276.873H961.278C971.05 276.873 978.972 284.795 978.972 294.567C978.972 304.339 971.05 312.261 961.278 312.261H376.453V276.873Z" fill="#F2F7F7"/>
<path d="M376.453 217.354H961.278C971.05 217.354 978.972 225.276 978.972 235.048C978.972 244.82 971.05 252.742 961.278 252.742H376.453V217.354Z" fill="#F2F7F7"/>
<path d="M376.453 336.393H961.278C971.05 336.393 978.972 344.315 978.972 354.087C978.972 363.859 971.05 371.781 961.278 371.781H376.453V336.393Z" fill="#F2F7F7"/>
<path d="M376.453 395.914H805.838C815.61 395.914 823.531 403.836 823.531 413.608C823.531 423.38 815.61 431.302 805.838 431.302H376.453V395.914Z" fill="#F2F7F7"/>
<path d="M376.453 568.588H961.278C971.05 568.588 978.972 576.509 978.972 586.281C978.972 596.053 971.05 603.975 961.278 603.975H376.453V568.588Z" fill="#F2F7F7"/>
<path d="M376.453 509.069H961.278C971.05 509.069 978.972 516.99 978.972 526.762C978.972 536.534 971.05 544.456 961.278 544.456H376.453V509.069Z" fill="#F2F7F7"/>
<path d="M376.453 628.108H961.278C971.05 628.108 978.972 636.029 978.972 645.801C978.972 655.573 971.05 663.495 961.278 663.495H376.453V628.108Z" fill="#F2F7F7"/>
<path d="M376.453 687.629H805.838C815.61 687.629 823.531 695.551 823.531 705.323C823.531 715.095 815.61 723.017 805.838 723.017H376.453V687.629Z" fill="#F2F7F7"/>
<path d="M376.453 800.784H961.278C971.05 800.784 978.972 808.705 978.972 818.477C978.972 828.25 971.05 836.171 961.278 836.171H376.453V800.784Z" fill="#F2F7F7"/>
<path d="M376.453 861.012H961.278C971.05 861.012 978.972 868.934 978.972 878.706C978.972 888.478 971.05 896.4 961.278 896.4H376.453V861.012Z" fill="#F2F7F7"/>
<path d="M376.453 921.241H805.838C815.61 921.241 823.531 929.162 823.531 938.934C823.531 948.706 815.61 956.628 805.838 956.628H376.453V921.241Z" fill="#F2F7F7"/>
<path d="M1574.85 338.51H1089.92C1077.39 338.51 1067.23 348.668 1067.23 361.197V894.341C1067.23 906.87 1077.39 917.028 1089.92 917.028H1574.85C1587.38 917.028 1597.54 906.87 1597.54 894.341V361.197C1597.54 348.668 1587.38 338.51 1574.85 338.51Z" fill="#DEE5E5"/>
<path d="M1527.27 765.08H1112.61C1105.46 765.08 1099.67 770.872 1099.67 778.017C1099.67 785.162 1105.46 790.954 1112.61 790.954H1527.27C1534.42 790.954 1540.21 785.162 1540.21 778.017C1540.21 770.872 1534.42 765.08 1527.27 765.08Z" fill="white"/>
<path d="M1527.27 809.059H1112.61C1105.46 809.059 1099.67 814.851 1099.67 821.996C1099.67 829.141 1105.46 834.933 1112.61 834.933H1527.27C1534.42 834.933 1540.21 829.141 1540.21 821.996C1540.21 814.851 1534.42 809.059 1527.27 809.059Z" fill="white"/>
<path d="M1413.62 853.038H1112.61C1105.46 853.038 1099.67 858.83 1099.67 865.975C1099.67 873.12 1105.46 878.912 1112.61 878.912H1413.62C1420.76 878.912 1426.56 873.12 1426.56 865.975C1426.56 858.83 1420.76 853.038 1413.62 853.038Z" fill="white"/>
<path d="M1540.82 375.376H1123.95C1111.42 375.376 1101.26 385.534 1101.26 398.063V710.01C1101.26 722.54 1111.42 732.697 1123.95 732.697H1540.82C1553.35 732.697 1563.51 722.54 1563.51 710.01V398.063C1563.51 385.534 1553.35 375.376 1540.82 375.376Z" fill="#14171C"/>
<path fill-rule="evenodd" clip-rule="evenodd" d="M1332.39 583.194C1300.65 583.194 1274.92 608.923 1274.92 640.66C1274.92 645.328 1271.13 649.112 1266.47 649.112C1261.8 649.112 1258.02 645.328 1258.02 640.66C1258.02 599.588 1291.31 566.292 1332.39 566.292C1373.46 566.292 1406.75 599.588 1406.75 640.66C1406.75 645.328 1402.97 649.112 1398.31 649.112C1393.64 649.112 1389.85 645.328 1389.85 640.66C1389.85 608.923 1364.12 583.194 1332.39 583.194Z" fill="url(#paint2_radial_96_28815)"/>
<path fill-rule="evenodd" clip-rule="evenodd" d="M1418.11 640.66C1418.11 593.32 1379.73 554.943 1332.39 554.943C1285.05 554.943 1246.67 593.32 1246.67 640.66C1246.67 645.328 1242.89 649.112 1238.22 649.112C1233.55 649.112 1229.77 645.328 1229.77 640.66C1229.77 583.985 1275.71 538.04 1332.39 538.04C1389.07 538.04 1435.01 583.985 1435.01 640.66C1435.01 645.328 1431.23 649.112 1426.56 649.112C1421.89 649.112 1418.11 645.328 1418.11 640.66Z" fill="url(#paint3_radial_96_28815)"/>
<path fill-rule="evenodd" clip-rule="evenodd" d="M1332.39 525.968C1269.04 525.968 1217.69 577.318 1217.69 640.661C1217.69 645.328 1213.91 649.112 1209.24 649.112C1204.57 649.112 1200.79 645.328 1200.79 640.661C1200.79 567.983 1259.71 509.066 1332.39 509.066C1405.06 509.066 1463.98 567.983 1463.98 640.661C1463.98 645.328 1460.2 649.112 1455.53 649.112C1450.86 649.112 1447.08 645.328 1447.08 640.661C1447.08 577.318 1395.73 525.968 1332.39 525.968Z" fill="url(#paint4_radial_96_28815)"/>
<path fill-rule="evenodd" clip-rule="evenodd" d="M1475.57 640.66C1475.57 561.581 1411.47 497.475 1332.39 497.475C1253.31 497.475 1189.2 561.581 1189.2 640.66C1189.2 645.328 1185.42 649.112 1180.75 649.112C1176.08 649.112 1172.3 645.328 1172.3 640.66C1172.3 552.247 1243.97 480.573 1332.39 480.573C1420.8 480.573 1492.48 552.247 1492.48 640.66C1492.48 645.328 1488.69 649.112 1484.03 649.112C1479.36 649.112 1475.57 645.328 1475.57 640.66Z" fill="url(#paint5_radial_96_28815)"/>
<path fill-rule="evenodd" clip-rule="evenodd" d="M1332.39 470.19C1238.24 470.19 1161.91 546.513 1161.91 640.66C1161.91 645.328 1158.13 649.112 1153.46 649.112C1148.8 649.112 1145.01 645.328 1145.01 640.66C1145.01 537.178 1228.9 453.288 1332.39 453.288C1435.87 453.288 1519.76 537.178 1519.76 640.66C1519.76 645.328 1515.98 649.112 1511.31 649.112C1506.64 649.112 1502.86 645.328 1502.86 640.66C1502.86 546.513 1426.53 470.19 1332.39 470.19Z" fill="url(#paint6_radial_96_28815)"/>
</g>
</g>
</g>
</g>
</g>
</g>
</g>
<defs>
<filter id="filter0_f_96_28815" x="-293.798" y="-935.093" width="3397.34" height="3274.19" filterUnits="userSpaceOnUse" color-interpolation-filters="sRGB">
<feFlood flood-opacity="0" result="BackgroundImageFix"/>
<feBlend mode="normal" in="SourceGraphic" in2="BackgroundImageFix" result="shape"/>
<feGaussianBlur stdDeviation="54.2898" result="effect1_foregroundBlur_96_28815"/>
</filter>
<filter id="filter1_f_96_28815" x="201.327" y="-234.32" width="2984.04" height="3199.2" filterUnits="userSpaceOnUse" color-interpolation-filters="sRGB">
<feFlood flood-opacity="0" result="BackgroundImageFix"/>
<feBlend mode="normal" in="SourceGraphic" in2="BackgroundImageFix" result="shape"/>
<feGaussianBlur stdDeviation="162.869" result="effect1_foregroundBlur_96_28815"/>
</filter>
<filter id="filter2_f_96_28815" x="-932.401" y="-1132.98" width="3204.19" height="3053.81" filterUnits="userSpaceOnUse" color-interpolation-filters="sRGB">
<feFlood flood-opacity="0" result="BackgroundImageFix"/>
<feBlend mode="normal" in="SourceGraphic" in2="BackgroundImageFix" result="shape"/>
<feGaussianBlur stdDeviation="130.295" result="effect1_foregroundBlur_96_28815"/>
</filter>
<filter id="filter3_f_96_28815" x="-622.305" y="-276.988" width="3357.93" height="2175.36" filterUnits="userSpaceOnUse" color-interpolation-filters="sRGB">
<feFlood flood-opacity="0" result="BackgroundImageFix"/>
<feBlend mode="normal" in="SourceGraphic" in2="BackgroundImageFix" result="shape"/>
<feGaussianBlur stdDeviation="162.869" result="effect1_foregroundBlur_96_28815"/>
</filter>
<filter id="filter4_d_96_28815" x="551.818" y="123.665" width="1167.52" height="974.525" filterUnits="userSpaceOnUse" color-interpolation-filters="sRGB">
<feFlood flood-opacity="0" result="BackgroundImageFix"/>
<feColorMatrix in="SourceAlpha" type="matrix" values="0 0 0 0 0 0 0 0 0 0 0 0 0 0 0 0 0 0 127 0" result="hardAlpha"/>
<feOffset dx="-10.9223" dy="10.9223"/>
<feGaussianBlur stdDeviation="28.6625"/>
<feComposite in2="hardAlpha" operator="out"/>
<feColorMatrix type="matrix" values="0 0 0 0 0.0392157 0 0 0 0 0.0470588 0 0 0 0 0.054902 0 0 0 0.2 0"/>
<feBlend mode="normal" in2="BackgroundImageFix" result="effect1_dropShadow_96_28815"/>
<feBlend mode="normal" in="SourceGraphic" in2="effect1_dropShadow_96_28815" result="shape"/>
</filter>
<filter id="filter5_d_96_28815" x="-1404.1" y="-458.085" width="3124.23" height="1557.07" filterUnits="userSpaceOnUse" color-interpolation-filters="sRGB">
<feFlood flood-opacity="0" result="BackgroundImageFix"/>
<feColorMatrix in="SourceAlpha" type="matrix" values="0 0 0 0 0 0 0 0 0 0 0 0 0 0 0 0 0 0 127 0" result="hardAlpha"/>
<feOffset dx="-10.9245" dy="10.9245"/>
<feGaussianBlur stdDeviation="28.6684"/>
<feComposite in2="hardAlpha" operator="out"/>
<feColorMatrix type="matrix" values="0 0 0 0 0.0392157 0 0 0 0 0.0470588 0 0 0 0 0.054902 0 0 0 0.2 0"/>
<feBlend mode="normal" in2="BackgroundImageFix" result="effect1_dropShadow_96_28815"/>
<feBlend mode="normal" in="SourceGraphic" in2="effect1_dropShadow_96_28815" result="shape"/>
</filter>
<linearGradient id="paint0_linear_96_28815" x1="2046.47" y1="1692.34" x2="642.04" y2="-740.212" gradientUnits="userSpaceOnUse">
<stop offset="0.045" stop-color="#F4E28D"/>
<stop offset="0.645" stop-color="#F4E28D"/>
<stop offset="1" stop-color="#5B6D72"/>
</linearGradient>
<linearGradient id="paint1_linear_96_28815" x1="1578.79" y1="1332.88" x2="1087.39" y2="532.477" gradientUnits="userSpaceOnUse">
<stop stop-color="#D2F6FF"/>
<stop offset="0.239583" stop-color="#BBDDE5"/>
<stop offset="0.734375" stop-color="#BBDDE5"/>
<stop offset="1" stop-color="#BBDDE5"/>
</linearGradient>
<radialGradient id="paint2_radial_96_28815" cx="0" cy="0" r="1" gradientUnits="userSpaceOnUse" gradientTransform="translate(1311.59 604.808) rotate(64.8515) scale(48.944 88.5869)">
<stop stop-color="#3F89A1"/>
<stop offset="0.339725" stop-color="#F4E28D"/>
<stop offset="0.505624" stop-color="#BBDDE5"/>
<stop offset="0.848958" stop-color="#FDA599"/>
</radialGradient>
<radialGradient id="paint3_radial_96_28815" cx="0" cy="0" r="1" gradientUnits="userSpaceOnUse" gradientTransform="translate(1454.36 546.086) rotate(168.06) scale(229.558 149.799)">
<stop stop-color="#3F89A1"/>
<stop offset="0.19" stop-color="#F4E28D"/>
<stop offset="0.614011" stop-color="#BBDDE5"/>
<stop offset="1" stop-color="#FDA599"/>
</radialGradient>
<radialGradient id="paint4_radial_96_28815" cx="0" cy="0" r="1" gradientUnits="userSpaceOnUse" gradientTransform="translate(1295.58 574.195) rotate(63.8366) scale(83.4697 155.425)">
<stop stop-color="#3F89A1"/>
<stop offset="0.339725" stop-color="#F4E28D"/>
<stop offset="0.505624" stop-color="#BBDDE5"/>
<stop offset="0.848958" stop-color="#FDA599"/>
</radialGradient>
<radialGradient id="paint5_radial_96_28815" cx="0" cy="0" r="1" gradientUnits="userSpaceOnUse" gradientTransform="translate(1343.58 541.274) rotate(-177.998) scale(322.774 205.092)">
<stop stop-color="#3F89A1"/>
<stop offset="0.339725" stop-color="#F4E28D"/>
<stop offset="0.505624" stop-color="#BBDDE5"/>
<stop offset="0.848958" stop-color="#FDA599"/>
</radialGradient>
<radialGradient id="paint6_radial_96_28815" cx="0" cy="0" r="1" gradientUnits="userSpaceOnUse" gradientTransform="translate(1279.98 544.357) rotate(63.4233) scale(117.132 220.512)">
<stop stop-color="#3F89A1"/>
<stop offset="0.339725" stop-color="#F4E28D"/>
<stop offset="0.505624" stop-color="#BBDDE5"/>
<stop offset="0.848958" stop-color="#FDA599"/>
</radialGradient>
<clipPath id="clip0_96_28815">
<rect width="2293" height="1200" fill="white" transform="translate(0 0.0032959)"/>
</clipPath>
<clipPath id="clip1_96_28815">
<rect x="620.065" y="170.067" width="1052.87" height="859.875" rx="36.5903" fill="white"/>
</clipPath>
<clipPath id="clip2_96_28815">
<rect width="2775.31" height="1180.81" fill="white" transform="translate(-1101.6 -150.092)"/>
</clipPath>
<clipPath id="clip3_96_28815">
<rect x="-1335.84" y="-411.673" width="3009.55" height="1442.39" rx="48.6884" fill="white"/>
</clipPath>
<clipPath id="clip4_96_28815">
<path d="M-1335.84 -411.673H1673.71V1030.72H-1335.84V-411.673Z" fill="white"/>
</clipPath>
</defs>
</svg>
