<svg width="1060" height="801" viewBox="0 0 1060 801" fill="none" xmlns="http://www.w3.org/2000/svg">
<rect width="1060" height="801" transform="matrix(-1 0 0 1 1060 0)" fill="url(#paint0_linear_5481_4279)"/>
<g opacity="0.15">
<path d="M1000 41V760" stroke="black"/>
<path d="M980 40V761" stroke="black"/>
<path d="M41 721H1020" stroke="black"/>
<path d="M41 741H1020" stroke="black"/>
<path d="M979.5 300H1019.5" stroke="black"/>
<path d="M979.5 100H1019.5" stroke="black"/>
<path d="M979.5 320H1019.5" stroke="black"/>
<path d="M979.5 120H1019.5" stroke="black"/>
<path d="M979.5 340H1019.5" stroke="black"/>
<path d="M979.5 140H1019.5" stroke="black"/>
<path d="M979.5 360H1019.5" stroke="black"/>
<path d="M979.5 160H1019.5" stroke="black"/>
<path d="M979.5 380H1019.5" stroke="black"/>
<path d="M979.5 180H1019.5" stroke="black"/>
<path d="M979.5 400H1019.5" stroke="black"/>
<path d="M979.5 200H1019.5" stroke="black"/>
<path d="M979.5 420H1019.5" stroke="black"/>
<path d="M979.5 220H1019.5" stroke="black"/>
<path d="M979.5 440H1019.5" stroke="black"/>
<path d="M979.5 240H1019.5" stroke="black"/>
<path d="M979.5 460H1019.5" stroke="black"/>
<path d="M979.5 260H1019.5" stroke="black"/>
<path d="M979.5 480H1019.5" stroke="black"/>
<path d="M979.5 280H1019.5" stroke="black"/>
<path d="M979.5 500H1019.5" stroke="black"/>
<path d="M979.5 520H1019.5" stroke="black"/>
<path d="M979.5 540H1019.5" stroke="black"/>
<path d="M979.5 560H1019.5" stroke="black"/>
<path d="M979.5 580H1019.5" stroke="black"/>
<path d="M979.5 600H1019.5" stroke="black"/>
<path d="M979.5 620H1019.5" stroke="black"/>
<path d="M979.5 640H1019.5" stroke="black"/>
<path d="M979.5 660H1019.5" stroke="black"/>
<path d="M979.5 680H1019.5" stroke="black"/>
<path d="M979.5 700H1019.5" stroke="black"/>
<path d="M660 721V761" stroke="black"/>
<path d="M680 721V761" stroke="black"/>
<path d="M700 721V761" stroke="black"/>
<path d="M720 721V761" stroke="black"/>
<path d="M740 721V761" stroke="black"/>
<path d="M760 721V761" stroke="black"/>
<path d="M780 721V761" stroke="black"/>
<path d="M800 721V761" stroke="black"/>
<path d="M820 721V761" stroke="black"/>
<path d="M840 721V761" stroke="black"/>
<path d="M860 721V761" stroke="black"/>
<path d="M880 721V761" stroke="black"/>
<path d="M900 721V761" stroke="black"/>
<path d="M920 721V761" stroke="black"/>
<path d="M940 721V761" stroke="black"/>
<path d="M960 721V761" stroke="black"/>
<path d="M100 721V761" stroke="black"/>
<path d="M120 721V761" stroke="black"/>
<path d="M140 721V761" stroke="black"/>
<path d="M160 721V761" stroke="black"/>
<path d="M180 721V761" stroke="black"/>
<path d="M200 721V761" stroke="black"/>
<path d="M220 721V761" stroke="black"/>
<path d="M240 721V761" stroke="black"/>
<path d="M260 721V761" stroke="black"/>
<path d="M280 721V761" stroke="black"/>
<path d="M300 721V761" stroke="black"/>
<path d="M320 721V761" stroke="black"/>
<path d="M340 721V761" stroke="black"/>
<path d="M360 721V761" stroke="black"/>
<path d="M380 721V761" stroke="black"/>
<path d="M400 721V761" stroke="black"/>
<path d="M420 721V761" stroke="black"/>
<path d="M440 721V761" stroke="black"/>
<path d="M460 721V761" stroke="black"/>
<path d="M480 721V761" stroke="black"/>
<path d="M500 721V761" stroke="black"/>
<path d="M520 721V761" stroke="black"/>
<path d="M540 721V761" stroke="black"/>
<path d="M560 721V761" stroke="black"/>
<path d="M580 721V761" stroke="black"/>
<path d="M600 721V761" stroke="black"/>
<path d="M620 721V761" stroke="black"/>
<path d="M640 721V761" stroke="black"/>
<path d="M80 41V761" stroke="black"/>
<path d="M60 40V761" stroke="black"/>
<path d="M40.5 300H80.5" stroke="black"/>
<path d="M40.5 100H80.5" stroke="black"/>
<path d="M40.5 320H80.5" stroke="black"/>
<path d="M40.5 120H80.5" stroke="black"/>
<path d="M40.5 340H80.5" stroke="black"/>
<path d="M40.5 140H80.5" stroke="black"/>
<path d="M40.5 360H80.5" stroke="black"/>
<path d="M40.5 160H80.5" stroke="black"/>
<path d="M40.5 380H80.5" stroke="black"/>
<path d="M40.5 180H80.5" stroke="black"/>
<path d="M40.5 400H80.5" stroke="black"/>
<path d="M40.5 200H80.5" stroke="black"/>
<path d="M40.5 420H80.5" stroke="black"/>
<path d="M40.5 220H80.5" stroke="black"/>
<path d="M40.5 440H80.5" stroke="black"/>
<path d="M40.5 240H80.5" stroke="black"/>
<path d="M40.5 460H80.5" stroke="black"/>
<path d="M40.5 260H80.5" stroke="black"/>
<path d="M40.5 480H80.5" stroke="black"/>
<path d="M40.5 280H80.5" stroke="black"/>
<path d="M40.5 500H80.5" stroke="black"/>
<path d="M40.5 520H80.5" stroke="black"/>
<path d="M40.5 540H80.5" stroke="black"/>
<path d="M40.5 560H80.5" stroke="black"/>
<path d="M40.5 580H80.5" stroke="black"/>
<path d="M40.5 600H80.5" stroke="black"/>
<path d="M40.5 620H80.5" stroke="black"/>
<path d="M40.5 640H80.5" stroke="black"/>
<path d="M40.5 660H80.5" stroke="black"/>
<path d="M40.5 680H80.5" stroke="black"/>
<path d="M40.5 700H80.5" stroke="black"/>
<path d="M41 80H1020" stroke="black"/>
<path d="M41 60H1020" stroke="black"/>
<path d="M660 40.5V80.5" stroke="black"/>
<path d="M680 40.5V80.5" stroke="black"/>
<path d="M700 40.5V80.5" stroke="black"/>
<path d="M720 40.5V80.5" stroke="black"/>
<path d="M740 40.5V80.5" stroke="black"/>
<path d="M760 40.5V80.5" stroke="black"/>
<path d="M780 40.5V80.5" stroke="black"/>
<path d="M800 40.5V80.5" stroke="black"/>
<path d="M820 40.5V80.5" stroke="black"/>
<path d="M840 40.5V80.5" stroke="black"/>
<path d="M860 40.5V80.5" stroke="black"/>
<path d="M880 40.5V80.5" stroke="black"/>
<path d="M900 40.5V80.5" stroke="black"/>
<path d="M920 40.5V80.5" stroke="black"/>
<path d="M940 40.5V80.5" stroke="black"/>
<path d="M960 40.5V80.5" stroke="black"/>
<path d="M100 40.5V80.5" stroke="black"/>
<path d="M120 40.5V80.5" stroke="black"/>
<path d="M140 40.5V80.5" stroke="black"/>
<path d="M160 40.5V80.5" stroke="black"/>
<path d="M180 40.5V80.5" stroke="black"/>
<path d="M200 40.5V80.5" stroke="black"/>
<path d="M220 40.5V80.5" stroke="black"/>
<path d="M240 40.5V80.5" stroke="black"/>
<path d="M260 40.5V80.5" stroke="black"/>
<path d="M280 40.5V80.5" stroke="black"/>
<path d="M300 40.5V80.5" stroke="black"/>
<path d="M320 40.5V80.5" stroke="black"/>
<path d="M340 40.5V80.5" stroke="black"/>
<path d="M360 40.5V80.5" stroke="black"/>
<path d="M380 40.5V80.5" stroke="black"/>
<path d="M400 40.5V80.5" stroke="black"/>
<path d="M420 40.5V80.5" stroke="black"/>
<path d="M440 40.5V80.5" stroke="black"/>
<path d="M460 40.5V80.5" stroke="black"/>
<path d="M480 40.5V80.5" stroke="black"/>
<path d="M500 40.5V80.5" stroke="black"/>
<path d="M520 40.5V80.5" stroke="black"/>
<path d="M540 40.5V80.5" stroke="black"/>
<path d="M560 40.5V80.5" stroke="black"/>
<path d="M580 40.5V80.5" stroke="black"/>
<path d="M600 40.5V80.5" stroke="black"/>
<path d="M620 40.5V80.5" stroke="black"/>
<path d="M640 40.5V80.5" stroke="black"/>
<rect x="40" y="40" width="980" height="721" rx="12" stroke="black"/>
</g>
<g filter="url(#filter0_dd_5481_4279)">
<rect x="81" y="81" width="898" height="639" rx="16" fill="white"/>
</g>
<defs>
<filter id="filter0_dd_5481_4279" x="64" y="72" width="932" height="673" filterUnits="userSpaceOnUse" color-interpolation-filters="sRGB">
<feFlood flood-opacity="0" result="BackgroundImageFix"/>
<feColorMatrix in="SourceAlpha" type="matrix" values="0 0 0 0 0 0 0 0 0 0 0 0 0 0 0 0 0 0 127 0" result="hardAlpha"/>
<feMorphology radius="3" operator="dilate" in="SourceAlpha" result="effect1_dropShadow_5481_4279"/>
<feOffset dy="8"/>
<feGaussianBlur stdDeviation="7"/>
<feColorMatrix type="matrix" values="0 0 0 0 0.121569 0 0 0 0 0.160784 0 0 0 0 0.2 0 0 0 0.08 0"/>
<feBlend mode="normal" in2="BackgroundImageFix" result="effect1_dropShadow_5481_4279"/>
<feColorMatrix in="SourceAlpha" type="matrix" values="0 0 0 0 0 0 0 0 0 0 0 0 0 0 0 0 0 0 127 0" result="hardAlpha"/>
<feOffset dy="2"/>
<feGaussianBlur stdDeviation="1"/>
<feComposite in2="hardAlpha" operator="out"/>
<feColorMatrix type="matrix" values="0 0 0 0 0 0 0 0 0 0 0 0 0 0 0 0 0 0 0.07 0"/>
<feBlend mode="normal" in2="effect1_dropShadow_5481_4279" result="effect2_dropShadow_5481_4279"/>
<feBlend mode="normal" in="SourceGraphic" in2="effect2_dropShadow_5481_4279" result="shape"/>
</filter>
<linearGradient id="paint0_linear_5481_4279" x1="612.652" y1="5.63521e-05" x2="430.4" y2="797.125" gradientUnits="userSpaceOnUse">
<stop stop-color="#F1E0F8"/>
<stop offset="0.482366" stop-color="#EAF7FF"/>
<stop offset="1" stop-color="white"/>
</linearGradient>
</defs>
</svg>
